<svg width="640" height="480" viewBox="0 0 640 480" fill="none" xmlns="http://www.w3.org/2000/svg">
<g clip-path="url(#clip0_75_4265)">
<mask id="mask0_75_4265" style="mask-type:luminance" maskUnits="userSpaceOnUse" x="-1" y="0" width="641" height="480">
<path d="M0.0371097 0H639.975V480H-0.0566406L0.0371097 0Z" fill="white"/>
</mask>
<g mask="url(#mask0_75_4265)">
<path fill-rule="evenodd" clip-rule="evenodd" d="M-44.0254 0H915.975V480H-44.0254V0Z" fill="white"/>
<path fill-rule="evenodd" clip-rule="evenodd" d="M-44.0254 319.969H915.975V480H-44.0254V319.969Z" fill="#D50000"/>
<path fill-rule="evenodd" clip-rule="evenodd" d="M-44.0254 160.031H915.975V319.969H-44.0254V160.031Z" fill="#0000BF"/>
<path fill-rule="evenodd" clip-rule="evenodd" d="M228.225 87.1875C224.475 144.937 222.225 176.625 213.506 191.25C203.943 207 194.756 218.531 157.537 232.5C120.412 218.531 111.225 207 101.662 191.25C92.8496 176.625 90.6934 144.937 86.9434 87.1875L92.3809 85.3125C103.443 81.9375 111.693 79.2187 117.787 78C126.506 76.125 134.006 74.0625 157.443 73.5938C180.881 73.9688 188.381 76.2188 197.1 78.0938C203.1 79.4063 211.725 81.8437 222.693 85.3125L228.225 87.1875Z" fill="#D50000"/>
<path fill-rule="evenodd" clip-rule="evenodd" d="M222.787 85.3125C219.225 142.969 216.225 169.406 211.537 182.062C202.537 203.812 188.287 215.719 157.537 227.062C126.787 215.719 112.537 203.812 103.443 182.062C98.7559 169.312 95.9434 142.969 92.3809 85.2188C103.256 81.8438 111.693 79.2187 117.787 78C126.506 76.125 134.006 73.9688 157.443 73.5938C180.881 73.9688 188.381 76.125 197.1 78C205.777 79.9754 214.351 82.3847 222.787 85.2188V85.3125Z" fill="#0000BF"/>
<path fill-rule="evenodd" clip-rule="evenodd" d="M157.537 102.938L158.943 106.406L165.506 107.344L161.287 109.875L165.318 112.594L159.412 113.531L157.537 116.719L155.662 113.437L150.037 112.687L153.787 109.875L149.85 107.344L156.131 106.406L157.537 102.938Z" fill="#FFDF00"/>
<path fill-rule="evenodd" clip-rule="evenodd" d="M209.381 168.375L205.725 165.563L203.193 161.25L198.131 156.844L195.412 152.438L190.35 147.844L187.912 143.437L185.1 141.281L183.412 139.5L178.725 143.531L176.287 147.938L173.193 150.75L169.725 148.031L167.193 143.531L157.537 126.375L147.881 143.531L145.35 148.031L141.881 150.75L138.787 147.938L136.256 143.531L131.662 139.5L129.881 141.188L127.162 143.437L124.725 147.844L119.662 152.438L116.943 156.844L111.881 161.25L109.35 165.563L105.693 168.375C107.755 181.279 113.86 193.196 123.131 202.406C133.188 211.014 144.85 217.546 157.443 221.625C170.133 217.637 181.873 211.097 191.943 202.406C197.381 196.781 207.506 184.313 209.381 168.375Z" fill="white"/>
<path fill-rule="evenodd" clip-rule="evenodd" d="M172.912 78.6562L174.412 82.125L180.975 83.0625L176.662 85.5938L180.787 88.3125L174.881 89.25L173.006 92.4375L171.131 89.1562L165.506 88.4063L169.256 85.5938L165.318 83.0625L171.506 82.125L173.006 78.6562H172.912ZM141.975 78.6562L143.475 82.125L150.037 82.9687L145.818 85.5L149.85 88.2187L143.943 89.1562L142.068 92.3437L140.193 89.1562L134.568 88.3125L138.318 85.5L134.381 82.9687L140.662 82.0312L142.068 78.5625L141.975 78.6562Z" fill="#FFDF00"/>
<path fill-rule="evenodd" clip-rule="evenodd" d="M201.318 190.313H194.381L187.818 189.844L180.037 186.094H171.225L163.631 189.844L157.537 190.406L151.537 189.844L143.943 186.094H135.037L127.162 189.844L120.693 190.406L113.568 190.313L110.193 184.5L110.287 184.313L120.787 186.094L127.256 185.625L135.037 181.781H143.85L151.537 185.531L157.537 186.094L163.631 185.531L171.225 181.781H180.037L187.912 185.531L194.381 186.094L204.506 184.219L204.693 184.594L201.225 190.313H201.318ZM120.318 199.219L127.256 198.75L135.037 195H143.85L151.537 198.75L157.537 199.219L163.537 198.75L171.225 195H180.037L187.818 198.75L194.85 199.219L199.35 193.594H199.256L194.381 194.906L187.912 194.438L180.131 190.688H171.318L163.631 194.438L157.631 195L151.537 194.438L143.943 190.688H135.037L127.162 194.438L120.693 195L116.006 193.781V193.969L120.225 199.219H120.318Z" fill="#0000BF"/>
</g>
</g>
<defs>
<clipPath id="clip0_75_4265">
<rect width="640" height="480" fill="white"/>
</clipPath>
</defs>
</svg>
