<svg width="258" height="354" viewBox="0 0 258 354" fill="none" xmlns="http://www.w3.org/2000/svg">
<path d="M258 338.463C258 352.193 222.004 354 150.759 354C79.5143 354 0 352.193 0 338.463C0 324.733 79.5143 326.033 150.759 326.033C222.004 326.033 258 324.733 258 338.463Z" fill="#1A1919"/>
<path d="M105.217 54.1094C106.464 51.7736 109.051 49.6847 111.524 48.7359C115.286 47.2878 117.68 46.6775 121.012 43.9533C121.489 43.5622 123.892 40.9046 123.471 40.5051C121.958 40.1139 117.376 43.4207 116.65 43.2154C115.461 42.8798 116.865 39.0043 117.691 38.3884C114.384 38.6242 111.119 37.5867 108.15 36.2246C95.5243 30.4322 95.4183 18.1761 91.2238 6.78C90.7745 5.56216 88.6535 1.49528 88.7679 0.746267C88.821 0.396727 88.9103 0.124862 89.2842 0.00557407C89.5549 -0.080424 94.2099 0.854458 94.8769 1.032C98.8314 2.08062 106.952 6.78277 110.089 9.50142C115.994 14.6197 119.011 20.6562 121.802 27.8079C122.72 28.0076 122.689 27.1144 123.306 26.5762C126.161 24.0795 129.929 22.8283 133.671 22.3623C135.443 22.1431 141.351 22.2735 142.342 21.6022C142.861 21.261 142.504 20.8088 142.347 20.3899C141.2 17.2634 135.973 12.7444 143.972 13.3297C149.963 13.768 156.137 17.3078 161.721 19.2941L162.262 19.0389C162.569 18.5201 162.712 17.38 163.108 17.0027C165.014 15.1828 168.971 21.3969 169.719 20.8504C170.216 19.2802 171.636 17.6712 172.758 16.4589C174.868 14.1786 178.602 10.5889 180.977 8.59983C182.113 7.6483 184.044 6.15027 184.036 8.59428C182.42 13.3242 181.331 18.2538 181.287 23.2722C184.798 22.6619 188.255 22.7507 191.797 22.6785C192.972 22.6536 196.524 21.5744 196.82 23.4303C197.116 25.2862 192.768 26.357 192.826 28.5347C192.905 28.9952 198.204 30.6098 197.721 32.0412C208.114 22.4122 223.215 17.8626 237.28 20.3927C239.666 20.8226 243.283 22.4344 245.357 21.7769C247.162 21.2055 249.23 19.2636 248.756 23.042C247.123 36.0082 233.041 47.0659 220.846 49.7346C215.699 50.8609 211.692 50.3699 206.54 49.582C208.421 52.764 210.327 56.0042 211.636 59.4829C212.507 61.7993 214.156 66.8482 214.391 69.1702C214.485 70.1078 214.204 71.0899 213.082 71.0205C211.725 70.9345 210.648 68.9871 209.275 69.0897C211.134 75.2871 210.598 82.1087 211.795 88.3561C212.825 93.7129 215.853 99.0282 216.838 104.479C216.877 108.235 210.333 102.16 208.979 101.897L214.142 125.019C213.654 127.552 210.112 124.733 208.672 124.578C207.86 127.108 211.854 144.418 211.103 145.14C208.745 145.486 209.069 142.019 207.456 140.906C208.17 147.145 210.221 154.075 209.546 160.372C209.373 161.976 209.197 163.657 207.168 163.302C206.473 169.042 204.843 174.668 204.146 180.407C203.861 182.76 203.593 185.564 203.484 187.917C203.295 192.086 203.995 198.087 203.06 202.009C202.731 203.385 201.88 203.91 200.518 203.28C199.784 202.941 200.091 202.079 199.24 202.292C198.028 207.699 195.907 212.829 194.766 218.263C193.203 225.7 192.958 232.96 193.449 240.539L192.229 241.779C194.347 252.987 196.34 264.319 196.192 275.774L201.821 276.07C217.606 274.508 234.395 267.975 246.847 258.224C249.255 256.338 252.306 252.684 255.202 252.005C260.117 250.854 257.203 260.014 256.52 262.394C249.278 287.6 221.3 310.25 196.957 318.412C192.642 319.857 188.571 320.42 184.237 321.427C183.941 321.497 183.796 322.207 183.43 322.504C181.658 323.949 179.911 324.615 177.932 325.666C177.823 325.724 177.511 325.627 177.327 325.669V325.966C177.62 326.002 177.957 325.921 178.236 325.969C182.121 326.609 183.369 331.19 186.285 332.635C188.202 333.586 191.021 333.589 193.145 334.588C195.327 335.614 198.623 338.51 196.937 341.076C195.162 343.778 189.712 340.999 187.368 340.18C186.271 345.751 178.239 342.575 174.893 340.785C174.341 344.209 170.249 344.311 167.512 343.731C164.671 343.132 159.993 339.942 157.565 338.194C153.979 335.614 155.629 331.018 156.631 327.492C145.825 323.469 138.485 313.432 135.332 302.683C133.674 303.407 131.045 302.874 129.1 302.68C125.229 302.294 121.333 301.639 117.515 300.899C111.01 303.945 110.059 311.274 104.748 315.677C102.895 317.213 101.656 316.484 102.189 319.749C102.392 321 103.679 322.556 103.922 324.074C104.223 325.96 104.025 327.977 102.909 329.575C100.673 332.776 97.9579 331.819 94.7011 332.002C87.5121 332.402 75.5119 333.573 68.7416 332.122C67.5192 331.861 66.5731 330.962 65.7917 330.818C64.1731 330.518 60.9917 331.375 59.9061 330.318C57.3302 327.805 60.0679 324.118 62.147 322.332C65.588 319.377 71.2197 319.103 74.7751 316.14C71.87 313.962 69.5592 311.141 67.7313 308.028C60.4056 295.564 60.1042 281.796 62.401 267.853C62.6968 266.058 63.894 262.591 63.841 261.112C63.7601 258.871 61.854 254.01 61.4354 251.084C58.5637 231.041 66.0066 211.269 75.6933 194.131C72.9026 194.306 70.1313 192.33 67.5583 191.778C63.4112 190.891 57.4474 190.924 53.5404 189.382C48.1765 187.262 44.49 183.403 40.4015 179.761C36.874 176.618 33.0674 173.774 29.8916 170.246H29.4478C29.3613 170.95 28.9595 171.463 28.2171 171.006C27.2041 170.382 25.7055 165.602 24.7008 164.22C23.1017 162.02 19.4319 159.565 17.4197 157.243C12.4494 151.509 10.9871 146.147 11.174 138.629C11.322 132.714 12.2764 127.014 15.9071 122.142L6 77.5453C6.82048 74.8017 8.55353 74.2385 11.1852 74.0832C15.1899 73.8501 19.4709 74.1664 23.5203 74.0943C27.5697 74.0221 34.527 72.8431 37.9596 74.2357C40.3066 75.19 41.102 77.2901 41.769 79.5205C42.8685 83.2045 43.4016 87.1188 44.3728 90.8417C46.8398 100.29 49.5747 109.664 51.958 119.138C52.5162 121.354 52.9599 123.651 53.7832 125.79C54.5227 129.127 55.332 132.468 56.2167 135.769C56.4511 136.643 56.6995 137.711 57.1293 138.49C57.6874 141.478 58.7758 144.169 58.6502 147.259C58.3628 154.389 50.4929 153.59 45.263 153.007C45.9272 154.17 47.423 154.735 48.6147 155.268C53.0269 157.241 58.8567 158.259 63.6819 158.098C65.0299 158.053 67.4578 157.074 69.1546 156.941C77.3259 156.3 86.6554 157.87 93.8666 152.771C94.3969 152.394 97.3411 149.903 97.6202 149.545C97.8434 149.257 98.0081 149.048 97.8853 148.657L91.9689 143.933C92.1447 145.262 91.8852 149.52 90.6015 150.13C88.3772 151.19 80.9734 149.52 79.0255 147.722C77.5771 146.383 77.2143 144.241 76.4412 143.337C76.1426 142.987 74.1975 141.994 73.5472 141.372C73.2793 141.117 71.5183 138.987 71.429 138.79C71.3816 138.682 70.8653 136.69 70.8374 136.504C70.4523 133.791 72.4058 130.404 73.8626 128.209C71.9677 127.61 69.6625 126.869 68.108 125.607C66.2159 124.07 65.0857 121.329 62.4373 120.658L62.3396 119.471C67.8569 116.885 72.9946 116.569 78.724 118.683C83.0274 120.27 87.3865 122.816 91.8127 124.575C95.569 126.068 99.476 127.568 103.375 128.656C104.885 129.078 108.632 130.209 109.955 130.315C111.518 130.437 111.797 128.975 112.799 128.043C115.054 125.943 117.563 124.126 120.421 122.908C117.108 119.019 113.865 115.09 111.289 110.663C111.086 110.663 110.885 110.663 110.681 110.663L112.81 108.849C113.215 108.646 113.631 108.46 114.027 108.244C116.793 108.316 116.053 107.93 116.765 106.43C116.843 106.263 117.287 105.583 117.373 105.522C117.563 105.389 118.143 105.4 118.573 105.059C119.095 104.646 120.359 103.314 120.722 103.103C120.772 103.076 121.542 102.818 121.635 102.801C126.01 102.044 131.575 102.549 135.839 101.042C138.337 100.16 145.303 94.4175 146.888 92.2149C146.835 92.7836 146.55 93.8821 146.28 94.3315C145.024 96.4177 141.734 98.5815 139.892 100.229C140.69 100.429 141.764 100.049 142.574 99.8715C151.535 97.9074 161.637 94.5368 169.379 89.6183C175.446 85.765 179.255 79.6259 187.524 82.2197C188.523 82.5332 189.346 83.2628 190.399 83.4459C192.132 85.1825 195.352 87.7763 194.964 90.5504C194.964 90.8139 194.342 90.7501 194.211 90.6947C194.094 90.6475 193.072 88.9692 192.835 88.5863C191.523 86.4724 191.615 86.4086 189.489 84.9578C189.123 84.7081 189.145 84.636 188.576 84.353C187.421 83.776 186.313 83.149 184.926 83.1435C184.365 102.141 172.652 121.657 153.887 127.593C153.684 127.591 153.483 127.593 153.279 127.593C152.944 127.591 152.511 127.516 152.366 127.896C152.176 127.871 151.953 127.896 151.758 127.896C151.071 127.904 150.893 128.195 150.845 128.198C137.84 129.25 127.464 123.518 121.983 111.675C121.096 109.761 120.669 107.378 119.832 105.65C118.584 103.078 118.233 108.471 117.61 109.079C117.507 109.179 115.319 110.18 115.02 110.286C114.465 110.483 113.187 110.039 113.424 110.804C113.692 111.673 116.505 115.409 117.256 116.372C118.093 117.448 121.395 121.449 122.332 121.909C122.782 122.131 124.222 122.311 124.333 122.492C124.501 122.764 124.241 123.465 124.526 123.959C124.702 124.264 128.335 126.72 128.963 127.111C142.322 135.441 157.417 135.347 171.999 130.318C178.259 128.157 186.974 123.64 191.308 118.663C198.347 110.577 202.474 96.9919 201.623 86.3559C200.25 69.209 187.256 66.1852 176.093 78.4469C175.091 79.5482 173.715 81.934 172.775 82.7079C172.365 83.0464 172.122 83.2433 171.539 83.1407C170.676 82.2835 175.987 76.3912 176.855 75.5757C180 72.6101 184.404 69.5308 188.88 69.5336C189 68.4905 187.117 68.8373 186.441 68.1826C184.901 66.6929 187.982 65.2059 188.579 64.0935C186.723 63.5304 184.309 64.3404 182.83 62.9894C182.423 61.8187 184.99 58.6257 185.59 57.3385C186.533 55.319 187.242 52.9249 187.379 50.6834C187.075 49.4628 181.429 51.7875 180.341 50.2784C179.665 49.2436 181.153 45.8231 181.27 44.2779C181.357 43.1433 181.373 41.9005 180.935 40.8408C179.21 40.3276 171.449 44.0976 170.665 42.8825L171.541 38.0833C166.686 38.4606 162.318 38.9405 157.691 40.4968C155.324 41.2929 152.656 43.7924 152.832 39.6007C147.775 40.9712 142.624 43.3292 138.982 47.1547C138.781 47.2102 138.574 47.3738 138.373 47.4571C136.925 47.5958 135.524 48.0674 134.115 48.3642C134.065 47.8538 134.394 47.3045 134.419 46.8523C135.959 43.5234 138.887 40.7492 141.926 38.7407C142.239 38.5327 144.385 36.9958 144.161 38.2386C143.874 39.8282 136.716 44.1559 136.551 46.8523C137.338 46.2281 138.05 45.3765 138.84 44.7467C142.621 41.734 148.582 38.4994 153.48 38.1138C154.903 38.0028 155.274 38.136 154.953 39.5896C157.046 38.6686 159.257 37.8281 161.495 37.3259C163.409 36.896 170.872 35.7807 172.25 36.6213C172.448 36.7406 172.661 36.8016 172.714 37.0679L172.454 41.1071C172.887 41.5565 179.797 38.1776 181.502 38.9127C184.53 40.2194 182.596 46.8523 181.89 49.2713C183.556 48.9218 188.42 47.6901 188.878 50.0342C189.603 53.746 186.486 58.3233 185.236 61.6689C186.436 61.8132 191.294 62.2404 191.786 63.1753C192.712 64.9452 188.97 65.4362 188.886 67.109C189.776 67.3531 192.952 68.2436 193.457 68.7679C193.856 69.1813 193.622 69.8915 194.063 70.2826C194.467 70.6405 196.039 71.2591 196.77 71.825C200.66 74.8322 202.829 81.2626 203.18 86.0147C204.149 99.0282 198.966 113.071 189.799 122.3C189.539 122.922 191.174 122.75 191.786 123.343C193.809 125.299 189.43 124.769 188.498 124.939C185.314 125.518 180.86 128.911 178.85 131.377C169.728 142.574 174.667 156.314 158.754 162.811C154.875 164.395 149.249 166.359 145.526 163.571C143.031 161.701 139.289 156.553 136.861 154.039C132.982 150.028 128.243 144.909 124.076 141.342C122.103 139.653 119.988 138.143 117.959 136.534C112.78 132.426 106.852 131.743 100.788 129.71C95.8034 128.037 90.8694 126.026 86.1837 123.66L85.5474 124.545C80.3455 122.3 75.191 127.735 73.4133 132.129C71.6356 136.523 72.7714 138.049 76.2961 140.893C76.1956 138.64 77.7668 136.493 79.1873 134.842C80.1808 133.685 83.4013 130.467 84.9279 130.95L85.4246 131.666C81.7436 134.912 75.6793 139.591 79.6478 144.976C81.9864 148.15 86.7028 148.005 90.2945 148.15C89.7559 146.51 90.007 144.577 91.2071 143.317L87.2526 143.614C87.0488 142.676 87.8191 141.814 88.4693 141.198L90.2945 140.593C90.5875 140.612 90.9587 140.537 91.2071 140.593C91.1624 141.237 92.1196 141.714 92.5885 142.091C97.2351 145.822 101.898 149.581 107.24 152.025C109.294 152.966 111.529 156.35 112.877 158.214C116.798 163.635 119.89 169.655 123.764 175.064C123.867 175.25 123.954 175.464 124.068 175.669C124.311 176.11 124.573 176.39 124.676 176.576C125.391 177.869 126.292 179.262 127.11 180.507C127.671 181.362 127.445 180.857 127.718 181.112C127.83 181.215 129.044 183.173 129.331 183.609C131.857 187.398 134.296 191.251 136.85 195.019C137.397 195.091 137.126 194.361 137.076 194.039C136.646 191.401 135.223 188.685 135.781 185.95L139.579 195.784C140.517 196.858 147.522 200.542 149.009 200.927C152.163 201.743 157.538 198.858 158.86 199.291C160.549 199.843 157.934 202.55 157.236 203.039C161.166 203.177 164.763 200.531 168.287 198.902C169.019 198.564 170.799 198.189 171.151 197.965C171.458 197.768 171.55 196.608 172.448 197.293L172.596 199.557L188.66 187.986C190.329 187.273 190.639 188.963 190.856 188.971C194.738 184.341 197.325 177.911 198.771 172.046C199.298 169.907 200.936 158.644 201.961 157.956C202.34 157.684 202.628 158.075 202.873 158.131C202.164 164.403 201.146 171.07 199.304 177.112C198.252 180.563 194.375 189.773 191.467 191.698C190.265 192.494 188.908 192.472 188.875 190.791H188.426C185.054 193.271 181.792 195.953 178.323 198.295C177.129 199.102 172.521 202.312 171.424 202.204C169.228 201.984 171.315 199.801 170.771 198.655C169.474 200.303 167.434 200.919 165.787 202.126C166.208 202.792 166.457 203.555 166.582 204.326C167.986 212.87 165.089 223.983 161.791 231.917C157.353 242.598 147.859 252.973 139.883 261.248C138.764 262.408 137.173 263.307 136.537 264.877C134.229 267.351 133.077 270.977 132.58 274.253H131.67C131.447 264.33 140.556 258.549 146.587 252.035C154.217 243.791 159.653 235.504 162.857 224.66C164.98 217.475 166.3 210.323 164.528 202.889C161.668 204.037 158.299 205.266 155.227 204.423C154.373 203.244 156.801 202.032 157.228 201.077C154.708 201.602 152.079 202.512 149.469 202.278C146.74 202.034 142.094 200.126 140.338 198.051L140.347 199.565C139.618 200.597 137.723 198.425 137.129 197.904C133.032 194.317 129.044 187.784 125.879 183.087C122.823 178.551 120.661 173.247 116.067 170.16C114.538 169.13 112.738 168.44 111.189 167.449C108.317 165.61 106.107 163.305 104.128 160.553C103.444 160.378 103.486 161.341 103.372 161.46C82.6283 182.998 60.9358 214.926 62.9033 246.129C65.0606 280.354 93.942 296.477 125.173 300.516C128.352 300.927 131.595 301.032 134.712 301.468C132.518 292.518 132.471 284.146 134.411 275.16H135.019C134.452 278.456 133.652 283.078 133.802 286.348C133.841 287.206 134.031 287.625 134.106 288.163C134.134 291.084 134.399 292.618 135.019 295.42C137.344 305.939 145.484 320.11 155.905 324.407C160.247 326.196 161.707 324.742 165.907 324.454C175.404 323.802 180.117 325.536 185.582 316.187C190.853 307.166 190.546 299.082 192.009 289.311C192.628 285.167 194.054 281.036 194.35 276.822C194.652 272.539 194.172 266.941 193.742 262.616C192.997 255.106 191.225 247.733 190.184 240.276C190.334 239.058 191.54 239.31 191.635 238.997C191.853 238.27 191.328 236.653 191.294 235.718C190.943 225.351 192.994 217.786 195.57 208.035C196.547 206.639 196.655 204.698 197.091 203.197C198.028 199.97 198.151 196.977 201.347 201.08C201.815 195.307 201.433 189.465 201.961 183.695C202.502 177.772 204.037 171.957 204.952 166.107C205.17 164.717 205.022 160.278 206.203 160.07L207.737 160.558C207.852 152.236 206.183 144.019 204.408 135.946L205.106 135.5C206.917 136.149 207.263 138.268 208.65 139.395C208.12 136.016 207.218 132.637 206.864 129.227C206.699 127.635 206.228 124.839 207.121 123.51C208.357 121.671 210.802 123.818 212.303 124.276C212.973 123.538 208.081 108.216 207.587 105.833C205.619 96.3511 208.636 99.3555 214.285 103.106C214.505 103.178 214.458 102.876 214.444 102.651C214.184 98.9116 210.863 93.0333 210.012 88.9053C209.147 84.7136 209.119 80.0697 208.611 75.7837C208.399 73.9916 207.104 68.9316 207.5 67.6389C207.612 67.2727 207.905 67.0008 208.259 66.8593L211.695 68.3324C210.679 63.6497 209.214 58.9697 206.987 54.7197C206.518 53.8209 204.235 49.8095 203.699 49.3712C202.658 48.5168 197.046 49.3352 196.809 50.3727C198.829 54.4728 198.737 59.2499 197.244 63.4943C195.634 60.3068 195.771 56.4009 194.657 52.911C194.269 51.6932 193.502 51.0274 193.468 50.9109C193.343 50.492 193.979 48.5029 193.745 47.4682L194.657 44.142C197.819 39.9503 203.11 37.5562 207.969 35.7502C213.746 33.6031 219.939 32.8707 225.849 30.8428C230.008 29.4169 234.517 27.6609 238.157 25.2113C238.983 24.9755 239.867 25.6801 239.689 26.6039C238.782 26.9396 234.358 32.0523 232.835 33.248C228.358 36.7572 222.69 39.0404 217.176 40.3636C210.467 41.9754 202.837 41.7451 197.702 47.016C199.547 46.8606 201.107 46.4944 203.024 46.5638C210.444 46.8412 213.95 49.2436 222.043 47.0132C232.991 43.995 243.06 36.0443 245.778 24.7869C245.848 24.4984 246.303 24.1155 246.08 23.5774C243.755 24.4706 241.388 23.422 239.083 22.9726C221.113 19.4772 199.418 25.9659 192.832 44.4416C192.363 45.7593 192.483 47.507 190.703 47.163C190.725 46.2475 190.594 45.2045 190.736 44.3223C191.437 40.0002 194.155 36.2995 196.789 32.9539C192.539 31.4365 187.463 29.4752 192.531 24.7897C191.068 24.834 189.586 24.7148 188.121 24.7897C186.539 24.8701 180.123 26.1351 179.289 25.3972C178.753 24.9228 179.071 21.9101 179.143 21.0085C179.397 17.7877 180.268 14.6502 180.818 11.4877C176.822 14.5642 173.35 18.1844 170.121 22.0294C169.111 22.1903 165.321 18.8613 164.657 18.7615C163.552 18.5922 164.313 21.6965 161.98 21.4607C155.383 19.1804 148.858 15.402 141.714 15.4159C143.199 17.6823 147.145 23.1612 142.144 23.852C136.671 24.6066 131.843 23.5108 126.597 26.2405C125.123 27.009 124.007 28.2573 122.569 29.0507C122.779 30.6375 124.799 31.4365 124.375 33.2535C126.957 32.4684 130.183 30.668 132.817 30.2935C134.173 30.1021 135.172 30.8178 133.922 31.7083C133.004 32.363 129.53 33.0066 128.028 33.7113C125.299 34.9901 122.363 37.3287 120.418 39.6007C122.734 38.6853 132.7 36.5381 134.425 37.6283C135.502 38.308 132.44 40.1556 131.966 40.6466C131.648 40.9767 128.444 44.5553 128.634 44.7384L134.36 46.0117C134.494 46.1699 134.402 46.3779 134.413 46.5555C132.175 47.0049 129.535 46.2808 127.238 45.9729L126.85 45.2461L131.98 38.9987C130.467 39.2956 128.098 39.1374 126.736 39.6812C125.475 40.1833 124.503 42.6939 123.588 43.8091C122.059 45.6733 120.063 46.6332 117.987 47.7705L122.544 49.1299L124.071 50.184C123.716 50.2562 123.027 50.7361 122.55 50.7888H121.942C117.25 48.2421 110.558 49.4017 107.335 53.8126L106.726 54.115C106.252 54.176 105.641 54.0262 105.205 54.115L105.217 54.1094ZM93.9587 8.44725C97.21 17.9875 97.0314 26.4014 106.129 32.6377C108.733 34.4214 111.607 36.0804 114.836 36.5381C115.157 36.5825 115.944 36.7961 115.866 36.2718C106.59 33.936 107.075 23.4054 103.14 16.409C102.484 15.2439 101.385 13.682 100.506 12.6778C99.3505 11.3629 95.7392 9.39323 97.1541 7.85081L100.35 9.95915C101.773 11.9454 103.877 12.6806 105.046 14.2119C109.609 20.1763 112.166 28.8427 118.819 32.8818C120.342 33.8083 122.402 35.4201 123.778 33.5504C119.835 31.3949 118.925 26.2433 117.139 22.4566C112.824 13.3103 105.644 7.76482 96.3951 3.91155C94.8378 3.2624 93.2834 2.53281 91.5252 2.7048C92.4545 4.54128 93.2973 6.50259 93.9587 8.44725ZM117.387 36.5714H116.173V36.8682L117.384 37.1734V36.5714H117.387ZM53.1859 151.778C55.6195 151.332 57.1851 148.885 57.1265 146.524L39.4527 76.9766C38.5429 75.6256 36.8991 75.1956 35.3782 74.9764L9.37122 75.4314L7.84468 77.0848C10.5629 77.3622 13.2308 76.6659 15.9099 76.4856C21.3993 76.1138 29.032 75.4508 34.3261 76.6243C35.6684 76.9211 37.1587 77.229 37.9206 78.494L54.9274 146.26C55.2567 148.033 54.9134 149.648 53.8948 151.107C53.6101 151.515 53.1385 151.337 53.1831 151.775L53.1859 151.778ZM30.9744 150.569L51.5059 151.775C54.6343 149.992 54.6455 147.689 54.0092 144.463C52.2064 135.328 48.8491 125.904 46.5161 116.833C43.2927 104.302 40.7699 91.5963 37.2871 79.1349C36.8936 78.2277 35.3475 78.0391 34.3847 77.7866C28.4292 76.2193 23.6375 76.9544 17.7379 77.3927C14.4476 77.6396 11.1433 77.8393 7.85027 77.9975L17.2858 119.424C17.749 119.548 17.7909 119.304 18.0477 119.127C19.0774 118.419 20.057 117.149 21.3212 116.333C24.2152 114.469 28.4711 113.323 31.8898 113.074C32.0907 115.018 30.7958 116.661 30.0646 118.372L30.9576 119.002C31.3093 120.267 26.9948 126.029 27.3269 126.378C30.9242 124.3 35.607 123.551 37.8396 127.871C38.3029 128.77 38.515 131.042 38.6266 131.172C38.7103 131.272 40.2955 131.599 41.0294 132.259C45.7933 136.548 40.8062 142.979 37.0638 145.883L30.9772 150.563L30.9744 150.569ZM144.468 101.284L128.039 104.152C129.848 105.306 131.72 108.815 133.345 109.764C133.749 110 134.053 110.169 134.547 110.05L142.875 106.954L144.466 101.281L144.468 101.284ZM145.677 126.67C146.017 122.114 150.22 121.135 154.069 122.433C155.177 122.805 157.138 124.442 157.443 124.5C157.775 124.567 159.77 123.76 159.991 123.51C160.49 122.941 160.236 121.596 160.496 120.686C161.051 118.727 163.172 117.77 165.047 117.645C166.033 117.579 167.464 118.006 167.981 117.87C168.271 117.792 170.241 115.831 170.473 115.47C171.246 114.275 170.322 114.211 170.093 113.16C169.794 111.784 170.087 110.188 171.237 109.298C166.591 106.901 160.875 105.936 156.064 108.424C151.914 110.571 150.176 113.831 146.916 116.267C146.506 116.575 145.554 117.079 145.378 116.247C145.133 115.076 150.644 109.797 151.769 108.849C147.095 108.38 142.47 110.965 139.777 114.619C139.336 115.218 137.706 117.792 137.757 118.356C137.813 118.982 138.909 119.654 139.308 120.472C140.04 121.976 140.003 124.084 140.246 125.737L145.671 126.675L145.677 126.67ZM171.553 113.678C172.019 114.172 174.315 110.857 174.544 110.455C175.622 108.563 172.831 108.837 171.851 110.197C170.967 111.42 171.413 112.338 171.553 113.678ZM30.6674 114.588H28.9957L28.845 115.185L30.3604 116.097L30.6674 114.588ZM16.0634 151.781C19.083 157.204 23.5231 159.468 26.2441 163.588C26.805 164.439 28.0329 168.551 28.259 168.709C28.3985 168.806 28.9427 168.454 29.2553 168.495C30.1483 168.62 37.2424 175.544 38.5736 176.732C39.9187 177.93 45.1542 183.059 46.0165 183.548C46.7198 183.944 47.73 184.011 48.7096 184.499C50.2724 185.276 52.0334 187.329 53.0017 187.795C54.1125 188.327 62.9647 189.87 64.3322 189.864C65.0996 189.861 65.5182 189.329 66.0596 189.351C67.8206 189.42 71.8811 191.637 73.8682 192.156C74.3454 192.281 75.8859 192.583 76.3101 192.605C77.3008 192.655 77.4096 191.426 77.831 190.791C85.4721 179.314 93.3141 168.44 103.232 158.733L103.86 152.988L99.5319 150.011C98.8565 149.95 98.0611 151.365 97.6062 151.781C88.4638 160.145 81.2748 157.909 70.0727 158.739C68.2755 158.872 66.3806 159.518 64.6057 159.651C59.4623 160.04 51.305 159.263 46.4937 157.368C43.9821 156.378 41.0964 153.354 38.9057 152.813C37.4238 152.447 29.7493 152.352 29.4172 151.906C29.2804 151.723 29.113 150.982 29.1409 150.73C29.2581 149.62 35.4926 145.253 36.7568 144.072C39.1094 141.875 41.9057 138.915 41.1829 135.43C40.8257 133.705 40.1225 132.351 38.1326 132.406C33.5921 132.534 27.7901 138.557 25.231 142.002C25.0189 142.285 24.9296 142.662 24.8822 143.009C24.1482 143.109 24.1985 142.956 24.338 142.316C24.5054 141.539 25.2952 139.705 25.8003 139.078C26.9111 137.7 30.5837 134.407 32.0907 133.383C33.5977 132.359 35.1214 131.641 36.9354 131.23C37.3122 130.739 36.6954 129.602 36.4526 129.097C35.3112 126.733 33.8768 126.029 31.2646 126.514C29.9 126.767 26.0766 129.191 24.885 130.154C22.9873 131.688 21.6561 134.182 20.6235 136.354L20.0179 136.204C20.0012 135.55 20.0458 134.892 20.0179 134.24C21.0254 132.895 21.4579 131.319 22.6356 130.037C23.0291 129.61 25.0468 128.265 25.125 128.129C25.3036 127.813 25.1752 126.858 25.4264 126.156C26.1101 124.259 29.5232 120.3 29.7102 118.894C29.8106 118.145 29.2469 117.806 28.8423 117.304C25.2757 112.89 18.9295 120.136 17.0346 123.26C12.0196 131.533 11.3415 143.3 16.0606 151.775L16.0634 151.781ZM70.8318 125.169C70.7062 126.023 74.3063 127.355 74.5938 127.31C76.6394 124.486 79.9129 121.929 83.6106 122.445C83.2032 121.898 82.1288 121.549 81.4813 121.238C77.7473 119.446 72.6179 117.465 68.5378 119.11C67.1341 119.676 66.2969 120.206 66.7741 121.79C67.2513 123.374 69.1713 125.138 70.8318 125.172V125.169ZM161.512 122.447L166.069 119.576C166.119 118.761 163.607 119.49 163.164 119.707C162.078 120.239 161.687 121.304 161.512 122.445V122.447ZM137.386 120.719C136.244 119.604 132.069 119.141 132.281 121.377C132.396 122.578 137.143 124.75 138.379 125.169C138.683 124.758 137.885 121.205 137.386 120.716V120.719ZM155.422 125.468C155.83 124.927 153.762 123.857 153.382 123.721C150.541 122.7 147.432 123.418 146.905 126.678C149.813 126.894 152.645 126.215 155.422 125.466V125.468ZM128.645 128.803C128.6 128.759 127.824 128.589 127.45 128.329C126.58 127.724 122.355 124.32 121.855 124.328C118.177 125.64 115.048 128.287 112.52 131.214C114.351 131.236 118.021 134.423 119.341 134.246C120.122 134.14 124.266 131.186 125.399 130.559C126.404 130.004 127.191 129.799 128.196 129.402C128.461 129.299 129.192 129.352 128.645 128.8V128.803ZM126.516 132.426C124.587 133.441 122.784 134.698 120.87 135.747C121.688 138.191 124.397 138.621 126.37 140.282C130.241 143.539 134.79 148.508 138.39 152.228C140.695 154.611 144.817 160.156 147.206 161.76C149.816 163.516 152.757 163.05 155.671 162.461C159.455 161.696 161.807 160.378 164.403 157.532C171.36 149.895 169.856 138.188 176.721 130.315C163.764 135.697 149.871 137.35 136.398 132.737C135.047 132.273 132.315 130.728 131.201 130.617C129.678 130.465 127.771 131.766 126.513 132.429L126.516 132.426ZM117.083 168.712C114.462 165.052 112.325 160.472 109.606 156.941C109.313 156.561 107.103 154.025 106.908 153.878C106.539 153.601 106.285 153.529 105.825 153.595C103.232 159.723 109.545 164.167 113.946 167.144L117.08 168.712H117.083ZM254.923 259.431C255.482 257.439 256.31 255.461 256.444 253.386C253.313 253.209 252.49 255.728 250.52 257.625C249.286 258.815 247.614 259.844 246.406 261.096C248.413 261.767 250.642 262.438 251.881 264.269C251.77 264.644 251.962 265.334 251.881 265.781C251.46 265.878 251.281 265.648 250.969 265.482C250.076 265.002 249.576 264.053 248.549 263.501C247.748 263.071 245.616 262.372 244.754 262.46C242.756 262.663 236.22 268.605 233.32 268.813C232.899 269.374 235.955 270.808 236.507 271.235C238.874 273.072 240.16 275.252 240.624 278.181C241.017 280.689 240.632 282.922 240.322 285.439C245.767 279.335 250.849 271.784 253.631 264.045C254.187 262.497 254.488 260.996 254.926 259.434L254.923 259.431ZM63.5312 272.131C61.6447 289.752 64.8457 315.699 86.6554 318.395C92.6415 319.136 101.583 317.219 105.817 312.489C109.411 308.472 109.841 304.982 114.568 300.946C114.786 300.76 115.143 300.957 114.954 300.255C94.3606 296.33 73.1816 284.509 65.3536 264.269C64.8792 264.322 64.8847 264.716 64.7759 265.054C64.215 266.802 63.7322 270.236 63.5312 272.131ZM238.491 281.202C238.503 280.939 238.818 280.501 238.804 279.865C238.773 278.412 238.045 275.976 237.222 274.753C236.398 273.529 232.72 270.461 231.311 270.317C230.278 270.211 225.163 272.725 223.653 273.266C219.369 274.803 214.985 276.148 210.495 276.975L215.032 279.263C219.082 281.438 224.504 288.174 225.099 292.696C225.344 294.56 225.573 299.093 223.274 299.65C223.237 297.709 224.033 296.224 223.879 294.208C223.424 288.146 217.326 281.677 211.918 279.333C207.313 277.335 204.285 277.982 199.535 278.181L195.885 277.577L195.349 281.927C195.455 282.487 196.29 282.737 196.494 283.02C199.87 287.708 201.065 298.996 200.451 304.641C200.395 305.154 199.401 308.364 198.969 306.716C198.681 305.62 199.005 303.52 198.924 302.225C198.601 297.073 198.087 291.472 196.189 286.648C195.902 285.918 195.732 284.509 194.668 284.534C193.357 289.383 193.502 294.416 192.84 299.351C192.282 303.52 190.773 309.363 189.19 313.26C188.434 315.125 187.156 316.814 186.452 318.7C199.937 315.818 212.895 309.199 223.851 300.988C226.65 298.89 236.577 290.768 237.587 288.03C238.341 285.985 238.388 283.366 238.483 281.208L238.491 281.202ZM98.5216 318.698C91.4052 320.956 85.7037 320.911 78.6654 318.323C77.9678 318.065 76.7594 317.102 76.2319 317.23C72.3835 320.368 65.0606 320.886 62.0159 324.604C60.7991 326.091 59.9395 327.45 61.1451 329.231L65.8141 329.286C68.0467 327.272 70.8737 324.754 74.1807 324.751C74.15 325.106 74.3426 325.403 73.991 325.677C73.19 326.31 71.27 326.934 70.123 327.824C69.3806 328.399 68.7555 329.076 68.0997 329.739C68.496 330.385 69.1323 330.085 69.6151 330.194C72.1909 330.765 75.1268 330.468 77.831 330.496C80.3566 330.521 82.913 330.538 85.4386 330.496C89.3205 330.429 95.036 330.637 98.6807 330.199C101.619 329.847 102.493 327.328 102.035 324.731C101.639 322.479 99.4593 320.462 100.344 318.098C100.157 317.918 98.8956 318.581 98.5188 318.7L98.5216 318.698ZM160.596 327.467C159.703 327.544 158.757 327.408 157.858 327.469C158.511 330.565 155.523 333.85 158.467 336.538C159.123 337.137 159.589 337.65 160.596 337.748C162.656 339.481 164.626 341.315 167.344 342.078C168.851 342.5 171.338 342.777 172.462 341.678C174.715 339.479 170.107 336.127 171.081 334.713C172.354 332.871 174.332 338.308 174.592 338.655C175.859 340.347 182.361 342.15 184.329 341.376C186.539 340.505 184.697 338.261 186.427 337.895C187.583 337.65 193.187 341.251 195.282 340.164C194.593 335.989 189.508 336.222 186.391 335.243C183.33 334.28 181.532 331.065 179.467 328.818C178.624 327.899 177.003 327.034 177.022 325.952C171.899 327.325 166.571 326.659 161.33 327.148C160.939 327.184 160.646 327.458 160.593 327.464L160.596 327.467Z" fill="#0B0908"/>
<path d="M72.0514 61.3666C66.3834 67.8747 66.869 78.7825 68.1834 86.8303C68.4709 88.5974 69.4978 94.0569 70.2123 95.3968C72.3221 99.3472 80.5604 101.472 84.7242 102.141C86.326 102.399 88.0647 102.293 89.5131 102.521C93.6099 103.164 97.6788 104.321 101.884 104.438C103.478 104.92 104.508 108.937 105.828 109.894C107.031 110.768 109.263 110.655 110.692 110.655C110.896 110.655 111.097 110.655 111.3 110.655L109.615 111.251C104.53 115.221 99.0156 118.638 93.8583 122.503C93.1299 123.047 91.9438 123.612 91.8238 124.564C87.3977 122.805 83.0385 120.259 78.7352 118.672C73.0058 116.558 67.8681 116.874 62.3508 119.46L62.4484 120.647C65.0941 121.318 66.2243 124.059 68.1192 125.596C69.6737 126.858 71.976 127.599 73.8737 128.198C72.417 130.392 70.4634 133.78 70.8486 136.493C70.8737 136.679 71.3928 138.67 71.4402 138.779L58.6614 147.245C58.787 144.155 57.6986 141.464 57.1404 138.476C57.0009 137.727 57.3776 135.602 56.2278 135.755C55.3432 132.454 54.5339 129.114 53.7943 125.776C53.5376 124.619 53.5208 123.341 53.1664 122.015C52.9348 121.141 52.5329 119.829 51.9664 119.124C49.5831 109.653 46.8509 100.276 44.3811 90.8278C43.41 87.1049 42.8769 83.1906 41.7774 79.5066C41.1104 77.2762 40.315 75.1734 37.968 74.2219C34.5382 72.8293 27.4218 74.011 23.5287 74.0804C19.6356 74.1497 15.1955 73.8335 11.1936 74.0693L72.0486 61.3693L72.0514 61.3666Z" fill="#AFE3FC" fill-opacity="0.52"/>
<path d="M124.69 50.1785L127.434 53.1995L128.039 53.0469L127.732 50.1757L128.98 50.3533C132.485 60.5648 128.517 71.0372 118.3 75.1207C120.407 76.2997 122.818 76.9017 124.788 78.3498C125.251 78.691 127.308 80.3777 126.814 81.0185C124.082 79.4705 120.775 77.6341 117.7 76.9267C113.846 76.0389 110.993 77.451 107.19 77.6895C104.41 77.8643 101.262 77.7617 98.5216 77.3927C100.657 79.9921 103.414 82.7801 104.67 85.9454C104.787 86.2394 105.158 86.8719 104.762 87.0633C100.559 82.5415 97.0955 75.9751 90.0043 76.1804C90.9112 79.6564 90.501 83.3155 91.3103 86.822C92.4517 91.7655 95.7002 93.4216 92.0778 98.9532C91.7903 99.3916 90.3001 100.62 90.6126 100.973C93.688 101.486 96.7914 102.138 99.8947 102.482C104.681 103.015 110.254 103.958 114.437 101.217L122.254 95.5328C122.525 95.8018 120.736 97.8103 120.437 98.1099C118.621 99.9214 116.109 101.419 114.041 102.942C116.204 103.636 118.713 102.401 120.733 103.092C120.37 103.303 119.106 104.635 118.584 105.048C118.155 105.389 117.577 105.378 117.384 105.511C117.172 104.821 116.6 104.92 116.031 104.89C112.235 104.673 108.37 105.256 104.605 104.607L107.086 109.093L112.819 108.84L110.689 110.655C109.26 110.655 107.028 110.768 105.825 109.894C104.505 108.937 103.475 104.92 101.882 104.438C97.676 104.318 93.6071 103.164 89.5103 102.521C88.0619 102.293 86.3233 102.396 84.7214 102.141C80.5576 101.472 72.3193 99.3444 70.2095 95.3968C69.4951 94.0569 68.4681 88.5974 68.1806 86.8303C66.8662 78.7825 66.3806 67.8719 72.0486 61.3666C72.3333 61.2112 72.6402 61.1197 72.9612 61.0642C74.3928 60.8173 75.7408 60.3263 77.2198 60.4594C82.5837 60.9449 87.0684 70.3381 89.594 74.3939C93.1718 74.7129 96.6044 75.9502 100.196 76.1804C104.993 76.4883 110.673 75.9557 115.255 74.5159C115.545 74.4244 115.95 74.466 115.861 74.0693C107.441 73.7114 101.564 66.2185 103.478 57.9793C103.765 56.7449 104.46 55.6685 104.605 54.4118C104.879 54.3563 105.111 54.1316 105.214 54.1094C105.649 54.0207 106.263 54.1705 106.735 54.1094C105.345 57.8184 104.206 60.4844 105.585 64.4764C107.873 71.1093 115.905 74.2468 122.048 70.6904C125.036 68.9594 128.489 63.1115 128.62 59.6605C128.762 55.8904 125.391 52.7723 122.556 50.786C123.033 50.7333 123.725 50.2534 124.076 50.1813C124.261 50.1452 124.498 50.2173 124.685 50.1813L124.69 50.1785ZM128.19 53.5047V53.8071C128.388 53.7072 128.388 53.6045 128.19 53.5047ZM74.7054 62.0407C74.0998 62.1655 73.4384 62.6371 72.9556 63.0227C66.8773 67.8747 68.6578 87.141 71.3537 93.6574C72.8858 97.3609 79.0171 99.1558 82.6953 99.9242C86.9819 100.82 89.2982 101.569 91.1373 96.8172C92.4936 93.3162 90.381 91.6323 89.4796 88.6473C88.0731 83.984 89.1698 78.8158 87.5791 74.208C86.086 69.8859 80.0636 60.9338 74.7054 62.0434V62.0407Z" fill="#4F88A4"/>
<path d="M104.608 54.4118C104.466 55.6685 103.768 56.7449 103.481 57.9793C101.566 66.2185 107.446 73.7114 115.863 74.0693C115.95 74.466 115.548 74.4244 115.258 74.5159C110.673 75.9557 104.993 76.4883 100.199 76.1804C96.6072 75.9502 93.1745 74.7129 89.5968 74.3939C87.0712 70.3381 82.5864 60.9449 77.2226 60.4594V60.157C86.1502 58.8504 95.6806 56.2261 104.608 54.4118Z" fill="#AFE3FC" fill-opacity="0.52"/>
<path d="M77.2226 60.157V60.4594C75.7435 60.3263 74.3956 60.8173 72.964 61.0642C73.857 59.6854 75.8747 60.354 77.2226 60.157Z" fill="#77592F"/>
<path d="M177.941 325.652L178.245 325.955C177.966 325.908 177.628 325.988 177.335 325.952V325.655C177.522 325.614 177.832 325.711 177.941 325.652Z" fill="#FCB38C"/>
<path d="M134.427 46.5499C134.416 46.3724 134.508 46.1671 134.374 46.0062L128.648 44.7329C128.461 44.547 131.662 40.9711 131.98 40.641C132.452 40.1472 135.516 38.3024 134.439 37.6228C132.717 36.5325 122.748 38.6797 120.432 39.5952C122.377 37.3232 125.316 34.9874 128.042 33.7057C129.544 33.0011 133.018 32.3575 133.936 31.7028C135.184 30.8123 134.185 30.0966 132.831 30.288C130.197 30.6625 126.97 32.4629 124.389 33.248C124.813 31.4309 122.793 30.632 122.583 29.0452C124.021 28.2518 125.137 27.0034 126.61 26.235C131.857 23.5025 136.685 24.601 142.158 23.8464C147.159 23.1557 143.213 17.6768 141.728 15.4103C148.872 15.3964 155.394 19.172 161.994 21.4551C164.327 21.6909 163.568 18.5895 164.671 18.7559C165.335 18.8586 169.125 22.1847 170.135 22.0238C173.364 18.1789 176.836 14.5587 180.832 11.4821C180.282 14.6447 179.411 17.7794 179.157 21.003C179.085 21.9046 178.767 24.9173 179.303 25.3916C180.137 26.1296 186.553 24.8645 188.135 24.7841C189.598 24.7092 191.082 24.8285 192.545 24.7841C187.477 29.4696 192.553 31.4337 196.803 32.9484C194.172 36.294 191.451 39.9919 190.75 44.3167C190.608 45.1989 190.739 46.242 190.717 47.1575C190.717 47.2102 190.39 47.5236 190.421 48.1534C190.546 50.6473 192.695 51.8873 194.671 52.9027C195.785 56.3925 195.651 60.2985 197.258 63.486C198.751 59.2388 198.843 54.4645 196.823 50.3643C197.06 49.3268 202.672 48.5085 203.713 49.3629C204.249 49.8012 206.529 53.8126 207.001 54.7114C209.228 58.9642 210.693 63.6413 211.709 68.3241L208.273 66.851C207.919 66.9897 207.626 67.2643 207.514 67.6305C207.118 68.9233 208.413 73.9861 208.625 75.7754C209.136 80.0614 209.164 84.7025 210.026 88.897C210.877 93.0249 214.195 98.9005 214.458 102.643C214.474 102.868 214.522 103.17 214.298 103.098C208.647 99.3444 205.633 96.3428 207.601 105.825C208.095 108.208 212.987 123.529 212.317 124.267C210.816 123.812 208.374 121.662 207.135 123.502C206.242 124.83 206.713 127.627 206.878 129.219C207.232 132.628 208.134 136.007 208.664 139.386C207.28 138.263 206.931 136.143 205.12 135.491L204.422 135.938C206.197 144.013 207.866 152.23 207.751 160.55L206.217 160.062C205.036 160.27 205.184 164.708 204.966 166.098C204.048 171.949 202.516 177.763 201.975 183.686C201.447 189.456 201.829 195.296 201.361 201.072C198.162 196.969 198.042 199.962 197.105 203.188C195.793 204.481 196.008 206.415 195.584 208.026C193.011 217.778 190.959 225.343 191.308 235.71C191.339 236.644 191.864 238.262 191.649 238.989C191.557 239.302 190.348 239.05 190.198 240.267C191.239 247.727 193.011 255.101 193.756 262.607C194.186 266.935 194.663 272.533 194.364 276.814C194.068 281.028 192.642 285.158 192.023 289.303C190.56 299.076 190.867 307.157 185.596 316.179C180.131 325.527 175.418 323.794 165.921 324.446C161.718 324.734 160.261 326.191 155.919 324.398C145.498 320.101 137.358 305.931 135.033 295.412C134.913 293.156 134.72 290.851 134.413 288.615C134.374 288.332 134.123 288.185 134.12 288.154C134.115 287.583 134.324 286.668 133.816 286.34C133.665 283.069 134.466 278.448 135.033 275.152C135.27 273.771 136.063 271.951 135.641 270.616C136.699 267.299 138.086 264.219 139.9 261.243C147.876 252.967 157.37 242.592 161.807 231.912C162.544 232.073 162.438 231.54 162.664 231.116C165.427 225.978 167.456 220.943 168.957 215.278C169.951 211.527 170.933 207.66 170.023 203.79C172.552 204.157 174.293 203.233 176.42 202.131C180.586 199.973 184.613 196.53 188.601 193.978C189.648 193.31 190.851 193.091 192.031 192.244C198.958 187.27 202.912 174.812 204.059 166.7C204.288 165.086 204.913 161.202 204.693 159.807C204.472 158.411 203.981 158.37 202.884 158.125C202.636 158.07 202.351 157.679 201.972 157.951C200.948 158.636 199.309 169.902 198.782 172.04C197.336 177.905 194.747 184.335 190.867 188.965C190.65 188.957 190.34 187.27 188.671 187.981L172.608 199.551L172.46 197.288C171.561 196.603 171.469 197.762 171.162 197.959C170.81 198.184 169.03 198.561 168.299 198.897C164.774 200.525 161.177 203.172 157.247 203.033C157.948 202.545 160.56 199.837 158.871 199.285C157.549 198.852 152.174 201.738 149.02 200.922C147.533 200.536 140.528 196.855 139.59 195.779L135.792 185.944C135.234 188.68 136.657 191.396 137.087 194.034C137.14 194.356 137.411 195.085 136.861 195.013C134.307 191.246 131.868 187.39 129.343 183.603C129.052 183.17 127.838 181.209 127.73 181.106L127.721 180.513L127.121 180.502C126.301 179.256 125.402 177.863 124.688 176.571V175.663H124.079C123.965 175.458 123.878 175.245 123.775 175.059C119.851 167.971 113.067 154.047 106.285 149.348C103.263 147.254 94.3215 141.27 91.2154 140.587C90.9671 140.532 90.5959 140.607 90.3029 140.587C90.2024 140.579 90.0712 140.177 89.3931 140.399C88.8154 140.59 88.7763 140.906 88.4777 141.192C87.8303 141.808 87.0572 142.674 87.261 143.608L91.2154 143.312C90.0154 144.571 89.7643 146.505 90.3029 148.144C86.7112 148 81.9948 148.144 79.6562 144.97C75.6877 139.589 81.752 134.909 85.433 131.66L84.9363 130.944C83.4097 130.465 80.1892 133.68 79.1957 134.837C77.7752 136.487 76.204 138.634 76.3045 140.887C72.7798 138.043 71.6439 136.518 73.4216 132.124C75.1993 127.729 80.3566 122.295 85.5558 124.539L86.1921 123.654C90.8778 126.02 95.809 128.034 100.796 129.704C106.86 131.738 112.788 132.42 117.968 136.529C119.996 138.138 122.112 139.647 124.085 141.336C128.249 144.904 132.987 150.022 136.869 154.034C139.297 156.544 143.04 161.696 145.535 163.565C149.257 166.353 154.884 164.392 158.763 162.805C174.675 156.306 169.736 142.568 178.859 131.372C180.868 128.906 185.322 125.513 188.506 124.933C189.439 124.764 193.817 125.291 191.794 123.338C191.183 122.747 189.547 122.916 189.807 122.295C198.975 113.062 204.157 99.0226 203.189 86.0091C202.834 81.2543 200.669 74.8239 196.778 71.8195C196.044 71.2536 194.476 70.6349 194.071 70.2771C193.63 69.8859 193.865 69.1757 193.466 68.7624C192.96 68.2381 189.785 67.3476 188.894 67.1035C188.975 65.4307 192.72 64.9396 191.794 63.1697C191.303 62.2349 186.447 61.8049 185.244 61.6634C186.497 58.3178 189.612 53.7405 188.886 50.0287C188.428 47.6873 183.564 48.9163 181.898 49.2658C182.607 46.8468 184.541 40.2138 181.51 38.9072C179.808 38.1721 172.898 41.5509 172.462 41.1015L172.722 37.0624C172.669 36.7989 172.457 36.7378 172.259 36.6158C170.88 35.7724 163.415 36.8904 161.503 37.3204C159.265 37.8225 157.055 38.6631 154.962 39.5841C155.283 38.1304 154.911 37.9945 153.488 38.1082C148.59 38.4911 142.629 41.7285 138.848 44.7412C138.058 45.3709 137.349 46.2226 136.559 46.8468C136.724 44.1503 143.882 39.8254 144.17 38.2331C144.396 36.9903 142.247 38.5271 141.934 38.7352C138.895 40.7464 135.968 43.5206 134.427 46.8468C134.433 46.7497 134.433 46.6415 134.427 46.5444V46.5499ZM178.242 170.529C177.466 169.738 174.494 174.263 173.685 174.615L168.508 178.69C170.601 178.537 172.831 176.973 174.43 175.661C175.156 175.067 179.13 171.433 178.242 170.531V170.529ZM186.151 208.631L185.227 208.764C184.644 209.189 185.026 216.163 184.937 217.547C184.53 223.781 182.372 229.984 180.38 235.843C180.815 235.682 181.245 234.761 181.454 234.345C183.779 229.731 186.751 218.735 186.785 213.63C186.79 212.939 186.372 208.767 186.154 208.631H186.151ZM170.939 239.474L172.46 233.124C171.396 234.356 170.766 237.097 170.392 238.78C170.249 239.424 170.205 239.571 170.939 239.474ZM172.158 273.64C171.564 267.734 171.689 261.567 173.071 255.8C172.688 255.95 172.242 256.388 172.024 256.721C170.431 259.159 169.993 268.353 170.417 271.293C170.556 272.27 170.877 273.915 172.161 273.637L172.158 273.64ZM160.292 278.783C160.127 279.202 159.184 279.654 159.382 280.295C159.89 280.079 160.334 279.557 160.596 279.086C162.639 275.441 162.622 268.891 164.246 264.874C162.045 264.988 162.382 268.902 162.022 270.675C161.573 272.888 161.043 276.861 160.292 278.783Z" fill="#C08F4B"/>
<path d="M103.391 161.457L105.699 167.175C108.981 171.549 113.885 172.984 117.208 177.508C122.664 184.935 124.263 193.84 132.15 200.154C134.838 202.303 136.981 202.401 139.897 203.643C147.789 207.003 147.709 207.63 156.756 207.447C157.861 207.424 159.234 207.938 160.591 207.416C161.241 208.063 159.081 219.922 158.671 221.686C154.27 240.653 134.793 252.926 130.311 271.823C128.525 279.355 128.687 286.279 129.859 293.9C127.166 294.072 124.534 293.642 121.891 293.201C95.703 288.82 73.204 271.904 63.668 247.025C63.4894 246.556 63.7573 245.943 62.9173 246.124C60.9498 214.92 82.6423 182.993 103.386 161.454L103.391 161.457ZM72.964 232.519C72.4672 234.924 73.9156 235.662 76.151 235.23C79.5697 234.572 78.0543 226.796 75.2803 227.701C73.3184 228.341 77.3398 231.496 76.0282 233.524C75.6347 233.99 75.0431 234.045 74.4682 233.909C73.3407 233.643 74.0775 232.356 72.964 232.519Z" fill="#EEB79B"/>
<path d="M28.8423 117.307C28.1892 117.296 28.0134 117.687 27.6729 118.111C26.445 119.634 20.0458 131.652 19.7584 133.278C19.6384 133.96 20.0151 134.165 20.0179 134.243C20.043 134.895 20.0012 135.552 20.0179 136.207L20.6235 136.357C21.6589 134.185 22.9873 131.691 24.885 130.157C26.0738 129.197 29.8972 126.772 31.2646 126.517C33.8768 126.032 35.3112 126.739 36.4526 129.1C36.6256 130.096 35.9363 129.591 35.3866 129.691C31.0525 130.487 26.9864 134.975 25.8031 139.078C25.298 139.705 24.5082 141.539 24.3408 142.316C24.2012 142.956 24.151 143.109 24.885 143.009C24.9324 142.662 25.0217 142.288 25.2338 142.002C27.7929 138.557 33.5977 132.534 38.1354 132.406C40.1252 132.351 40.8257 133.705 41.1857 135.43C41.9085 138.915 39.115 141.875 36.7596 144.072C35.4954 145.251 29.2609 149.62 29.1437 150.73C29.1158 150.982 29.2832 151.723 29.4199 151.906C29.752 152.352 37.4266 152.45 38.9085 152.813C41.0992 153.354 43.9848 156.378 46.4965 157.368C51.3078 159.263 59.4651 160.04 64.6085 159.651C66.3862 159.518 68.2783 158.872 70.0755 158.739C81.2776 157.906 88.4666 160.142 97.609 151.781C98.3235 152.214 98.8258 152.885 99.4593 153.418C100.294 154.122 101.485 154.014 100.796 155.401C95.8565 160.328 91.768 165.987 87.2526 171.275C86.0609 172.673 84.6488 173.963 83.4516 175.361C80.7027 178.574 77.6105 183.156 74.644 185.961C74.3705 186.219 74.1724 186.546 73.7314 186.541C66.7657 184.183 59.2586 184.482 52.2008 182.538C37.3708 178.454 27.6394 163.782 17.7351 152.988C17.2774 152.488 16.7974 151.845 16.0578 151.781C11.3387 143.306 12.0141 131.538 17.0318 123.266C18.9267 120.142 25.2701 112.896 28.8395 117.31L28.8423 117.307Z" fill="#C08F4B"/>
<path d="M138.993 47.1547C142.632 43.3292 147.787 40.9712 152.843 39.6007C152.668 43.7952 155.333 41.2957 157.702 40.4968C162.329 38.9405 166.697 38.4578 171.553 38.0833L170.676 42.8825C171.463 44.0976 179.222 40.3276 180.946 40.8408C181.384 41.9005 181.368 43.1433 181.281 44.2779C181.164 45.8231 179.677 49.2436 180.352 50.2784C181.44 51.7875 187.086 49.4628 187.39 50.6834C187.253 52.9221 186.545 55.319 185.601 57.3385C185.001 58.6257 182.434 61.8187 182.841 62.9894C184.32 64.3404 186.737 63.5304 188.59 64.0935C187.993 65.2032 184.915 66.6901 186.452 68.1826C187.128 68.8373 189.012 68.4905 188.892 69.5336C184.415 69.5336 180.011 72.6101 176.866 75.5756C175.998 76.394 170.688 82.2835 171.55 83.1407C172.133 83.2461 172.373 83.0491 172.786 82.7079C173.727 81.9312 175.102 79.5482 176.104 78.4469C187.267 66.1852 200.258 69.209 201.634 86.3559C202.485 96.9947 198.358 110.577 191.32 118.663C186.985 123.643 178.27 128.159 172.01 130.318C157.429 135.35 142.334 135.441 128.974 127.111C128.346 126.72 124.713 124.264 124.537 123.959C124.252 123.465 124.512 122.764 124.344 122.492C124.23 122.311 122.79 122.131 122.343 121.909C121.409 121.446 118.104 117.448 117.267 116.372C116.516 115.407 113.703 111.673 113.435 110.804C113.198 110.039 114.476 110.48 115.032 110.286C115.327 110.18 117.518 109.179 117.621 109.079C118.244 108.471 118.595 103.078 119.843 105.65C120.68 107.378 121.11 109.761 121.995 111.675C127.478 123.518 137.854 129.25 150.856 128.198L151.769 127.896C151.964 127.896 152.188 127.871 152.377 127.896C152.483 127.91 152.838 128.395 153.29 128.195V127.593C153.494 127.593 153.697 127.591 153.901 127.593C159.435 127.688 169.719 120.933 173.989 117.165C184.117 108.227 187.535 98.6509 187.982 85.3961C188.001 84.8135 187.672 84.1838 188.59 84.3502C189.159 84.6332 189.137 84.7053 189.503 84.955C189.494 85.5486 189.913 85.7955 190.256 86.1701C190.976 86.9524 191.9 88.1619 192.849 88.5835C193.086 88.9664 194.11 90.6447 194.225 90.6919C194.356 90.7474 194.978 90.8112 194.978 90.5476C195.366 87.7707 192.146 85.1797 190.413 83.4431C189.715 82.744 189.553 82.0449 188.255 81.2016C180.773 76.3385 174.966 82.7551 168.709 86.2172C162.846 89.4602 154.412 93.3883 147.823 94.4952C147.357 94.5729 146.589 94.8975 146.291 94.3288C146.562 93.8793 146.846 92.7808 146.899 92.2121C147.686 91.1163 149.492 88.1258 147.664 87.374C146.168 90.4117 144.304 93.1442 141.722 95.3829L129.859 97.0502C136.345 92.1761 143.014 87.5266 149.637 82.8383C152.199 84.0784 156.064 84.0312 158.88 83.7094C159.625 83.6234 163.566 83.1157 163.328 82.0893C163.141 81.2737 161.185 81.9284 160.454 81.9478C157.663 82.0227 154.822 82.0227 152.07 81.6316V81.3292C153.067 80.6523 154.384 79.6619 155.417 78.9102C165.868 82.4499 178.133 76.1804 179.981 65.0672C181.839 53.8875 173.757 43.9034 162.72 42.9241C158.417 42.5413 154.381 42.3083 150.549 44.7384C150.184 44.805 149.645 45.2267 149.029 45.3432C145.903 45.9285 141.974 46.3474 138.987 47.1575L138.993 47.1547Z" fill="#EEB79B"/>
<path d="M149.034 45.3404C140.824 51.0884 138.131 61.6218 143.548 70.2965C146.034 74.2774 151.002 77.7672 155.726 78.3026C155.612 78.4524 155.531 78.8269 155.422 78.9074C154.387 79.6592 153.072 80.6495 152.076 81.3264C151.97 81.3985 151.576 81.2543 151.468 81.3264L147.837 79.3401C139.869 72.169 138.725 63.6136 141.064 53.5962C141.17 53.144 141.312 52.7862 140.67 52.9055C135.655 61.0642 140.36 79.6065 150.251 82.2336C150.159 82.5637 149.891 82.6636 149.642 82.8383C143.02 87.5266 136.35 92.176 129.864 97.0502L121.649 102.795C121.556 102.812 120.786 103.07 120.736 103.098C118.715 102.407 116.207 103.642 114.044 102.948C116.109 101.425 118.623 99.927 120.44 98.1155C120.739 97.8159 122.528 95.8102 122.257 95.5383L114.44 101.222C110.257 103.963 104.684 103.02 99.8974 102.487C96.7913 102.143 93.6908 101.489 90.6154 100.978C90.3029 100.626 91.7931 99.3999 92.0806 98.9588C95.703 93.4272 92.4545 91.7738 91.3131 86.8275C90.5038 83.3183 90.914 79.6619 90.007 76.186C97.0983 75.9779 100.562 82.547 104.765 87.0689C105.164 86.8775 104.79 86.2422 104.672 85.9509C103.417 82.7856 100.659 79.9976 98.5244 77.3983C101.265 77.7672 104.413 77.8699 107.192 77.6951C110.996 77.4537 113.848 76.0445 117.702 76.9322C120.778 77.6396 124.085 79.4761 126.817 81.024C127.308 80.3832 125.251 78.6938 124.791 78.3553C122.821 76.9072 120.409 76.3053 118.302 75.1262C128.519 71.0427 132.488 60.5676 128.983 50.3588L127.735 50.1813L128.042 53.0525L127.437 53.2051L124.693 50.184C127.749 49.607 130.783 49.0134 133.822 48.3698C133.864 49.2214 133.76 50.0953 133.822 50.9469C133.855 51.3963 133.585 51.8208 134.274 51.6959C135.812 50.7444 136.892 48.0757 138.385 47.4654C138.586 47.3822 138.792 47.2185 138.993 47.163C141.979 46.353 145.908 45.9341 149.034 45.3487V45.3404Z" fill="#A1C5D8"/>
<path d="M30.9744 150.569L37.061 145.889C40.8034 142.984 45.7905 136.554 41.0267 132.265C40.2927 131.605 38.7075 131.277 38.6238 131.178C38.515 131.047 38.3029 128.775 37.8368 127.876C35.6042 123.557 30.9214 124.303 27.3241 126.384C26.992 126.034 31.3093 120.27 30.9549 119.007L30.0618 118.378C30.7902 116.666 32.0879 115.027 31.887 113.079C28.4711 113.329 24.2124 114.475 21.3184 116.339C20.0514 117.154 19.0746 118.425 18.0449 119.132C17.7881 119.31 17.7435 119.554 17.283 119.429L7.84747 78.003C11.1406 77.8449 14.4476 77.6424 17.7351 77.3982C23.6375 76.9572 28.4292 76.222 34.3819 77.7922C35.3447 78.0446 36.8908 78.2333 37.2843 79.1404C40.7671 91.6018 43.2899 104.307 46.5133 116.838C48.8463 125.909 52.2036 135.333 54.0064 144.468C54.6427 147.695 54.6315 149.994 51.5031 151.781L30.9716 150.574L30.9744 150.569ZM13.549 78.9684C8.80749 79.3512 9.46332 88.3477 14.3862 87.9954C19.3007 87.6459 18.1146 78.5994 13.549 78.9684ZM15.3713 89.8485C12.2317 90.5365 12.6029 96.3483 15.469 97.4857C20.9026 99.6412 20.5342 88.7167 15.3713 89.8485Z" fill="#4F96FD"/>
<path d="M103.391 161.457C103.506 161.338 103.464 160.375 104.148 160.55C106.129 163.302 108.337 165.607 111.208 167.447C112.757 168.44 114.557 169.128 116.087 170.157C120.683 173.244 122.846 178.549 125.899 183.084C129.064 187.781 133.052 194.314 137.148 197.901C137.743 198.42 139.635 200.595 140.366 199.563L140.358 198.048C142.113 200.123 146.76 202.032 149.489 202.276C152.096 202.509 154.727 201.596 157.247 201.075C156.82 202.029 154.392 203.241 155.246 204.42C158.319 205.263 161.685 204.035 164.548 202.886C166.317 210.321 164.997 217.472 162.876 224.657C159.672 235.501 154.236 243.788 146.606 252.033C140.575 258.549 131.466 264.33 131.69 274.251H132.599C133.099 270.974 134.249 267.348 136.557 264.874C135.884 266.53 135.34 269.188 134.983 271.027C134.902 271.438 134.489 272.184 135.036 272.433C134.796 273.324 134.623 274.253 134.427 275.155C132.488 284.14 132.535 292.515 134.729 301.462C131.611 301.026 128.369 300.924 125.19 300.51C93.9587 296.471 65.0801 280.348 62.9201 246.124C63.7601 245.943 63.4922 246.556 63.6708 247.025C73.2068 271.904 95.7058 288.82 121.894 293.201C124.537 293.642 127.169 294.072 129.862 293.9C128.69 286.279 128.528 279.355 130.314 271.823C134.793 252.926 154.272 240.653 158.673 221.686C159.084 219.925 161.244 208.063 160.593 207.416C159.234 207.938 157.864 207.422 156.759 207.447C147.711 207.63 147.792 207.003 139.9 203.643C136.984 202.403 134.84 202.306 132.153 200.154C124.266 193.84 122.667 184.932 117.211 177.508C113.887 172.984 108.984 171.549 105.702 167.175L103.394 161.457L103.391 161.457Z" fill="#D29D83"/>
<path d="M63.5312 272.131C64.1982 272.098 64.335 272.564 64.6392 272.997C69.2216 279.532 72.3193 285.552 78.7771 290.698C86.6358 296.962 97.3997 301.848 107.045 304.489C101.851 310.875 94.3997 315.66 86.6581 318.395C64.8485 315.699 61.6475 289.752 63.534 272.131L63.5312 272.131Z" fill="#C08F4B"/>
<path d="M223.888 294.205C221.549 295.722 219.403 297.523 217.109 299.11C208.753 304.894 199.739 309.107 190.413 313.099C190.097 313.235 189.394 313.882 189.199 313.255C190.781 309.357 192.293 303.515 192.849 299.345L196.195 286.645C198.093 291.47 198.609 297.07 198.93 302.222C199.011 303.518 198.687 305.62 198.975 306.713C199.407 308.364 200.401 305.152 200.456 304.638C201.073 298.993 199.876 287.705 196.499 283.017L197.755 278.218C198.344 278.095 198.947 278.204 199.541 278.179C204.291 277.979 207.319 277.333 211.924 279.33C217.329 281.674 223.43 288.143 223.885 294.205H223.888Z" fill="#FCB38C"/>
<path d="M126.516 132.426C127.668 133.042 128.963 132.506 130.18 132.864C131.224 133.172 133.501 134.984 134.723 135.605C146.665 141.694 156.823 140.779 169.111 136.054L162.578 150.272C159.912 155.057 156.829 158.93 151.398 160.63C150.019 161.063 148.479 160.955 147.206 161.757C144.817 160.151 140.695 154.605 138.39 152.225C134.79 148.505 130.241 143.539 126.37 140.279C124.397 138.618 121.688 138.188 120.87 135.744C122.782 134.695 124.587 133.438 126.516 132.423V132.426Z" fill="#EEB79B"/>
<path d="M63.5312 272.131C63.735 270.236 64.2178 266.802 64.7759 265.054C64.8847 264.719 64.8792 264.322 65.3536 264.269C73.1816 284.509 94.3606 296.33 114.954 300.255C115.141 300.96 114.786 300.76 114.568 300.946C109.844 304.982 109.411 308.472 105.817 312.489C101.586 317.219 92.6415 319.136 86.6554 318.395C94.3969 315.66 101.848 310.875 107.042 304.489C97.3969 301.845 86.633 296.962 78.7743 290.698C72.3193 285.552 69.2216 279.532 64.6364 272.997C64.3322 272.564 64.1954 272.098 63.5284 272.131H63.5312Z" fill="#77592F"/>
<path d="M77.831 190.788C76.9352 191.071 76.391 191.648 76.3101 192.602C75.8859 192.58 74.3454 192.278 73.8682 192.153C71.8839 191.634 67.8206 189.418 66.0596 189.348C65.5182 189.326 65.0996 189.859 64.3322 189.861C62.9647 189.867 54.1153 188.325 53.0018 187.792C52.0334 187.329 50.2724 185.273 48.7096 184.496C47.7272 184.008 46.717 183.941 46.0165 183.545C45.1542 183.057 39.9159 177.927 38.5736 176.729C37.2396 175.541 30.1483 168.617 29.2553 168.492C28.9399 168.448 28.3985 168.8 28.259 168.706C28.0301 168.551 26.805 164.437 26.2441 163.585C23.5231 159.465 19.083 157.202 16.0634 151.778C16.803 151.842 17.2802 152.486 17.7407 152.985C27.645 163.782 37.3764 178.451 52.2064 182.535C59.2642 184.48 66.7713 184.18 73.737 186.538C74.1779 186.544 74.3761 186.216 74.6496 185.958C77.6161 183.156 80.7083 178.571 83.4572 175.358C84.6544 173.96 86.0637 172.67 87.2582 171.272C91.7736 165.985 95.8592 160.325 100.802 155.398C101.491 154.011 100.297 154.117 99.4649 153.415C98.8314 152.88 98.329 152.211 97.6146 151.778C98.0695 151.362 98.8621 149.947 99.5402 150.008L103.869 152.985L103.241 158.73C93.3224 168.44 85.4805 179.311 77.8394 190.788H77.831Z" fill="#77592F"/>
<path d="M122.561 50.7832C125.397 52.7695 128.768 55.8876 128.625 59.6577C128.494 63.1087 125.039 68.9566 122.053 70.6876C115.911 74.2468 107.879 71.1065 105.591 64.4736C104.212 60.4816 105.351 57.8157 106.74 54.1067L107.349 53.8043L121.956 50.7805H122.564L122.561 50.7832ZM110.304 60.5177C107.792 61.2528 108.853 68.1465 112.607 67.0452C114.831 66.3933 114.052 59.4191 110.304 60.5177Z" fill="#AFE3FC"/>
<path d="M126.516 132.426C127.774 131.763 129.68 130.462 131.204 130.614C132.315 130.725 135.05 132.271 136.4 132.734C149.871 137.35 163.766 135.694 176.724 130.312C169.859 138.182 171.363 149.892 164.406 157.529C161.813 160.375 159.46 161.696 155.673 162.459C152.76 163.047 149.818 163.513 147.209 161.757C148.482 160.958 150.022 161.063 151.401 160.63C156.831 158.927 159.912 155.057 162.58 150.272L169.114 136.054C156.826 140.782 146.668 141.694 134.726 135.605C133.504 134.984 131.226 133.172 130.183 132.864C128.966 132.504 127.668 133.042 126.518 132.426L126.516 132.426Z" fill="#D29D83"/>
<path d="M98.5216 318.698C97.5393 321.544 98.7253 323.633 99.1049 326.141C99.3867 328.01 97.7737 327.933 96.1495 328.285C91.2294 329.353 86.0358 329.27 81.0292 329.589C77.2282 329.83 73.4468 330.457 69.6151 330.191C69.1323 330.083 68.496 330.385 68.0997 329.736C68.7555 329.073 69.3806 328.396 70.123 327.822C71.27 326.934 73.1872 326.307 73.991 325.675C74.3426 325.397 74.15 325.103 74.1807 324.748C70.8737 324.748 68.0467 327.27 65.8141 329.284L61.1451 329.228C59.9368 327.447 60.7963 326.085 62.0159 324.601C65.0634 320.884 72.3863 320.365 76.2319 317.227C76.7566 317.1 77.965 318.062 78.6655 318.32C85.7037 320.911 91.4052 320.953 98.5216 318.695V318.698Z" fill="#FCB38C"/>
<path d="M245.795 24.7758C243.077 36.0304 233.008 43.9839 222.06 47.0021C213.966 49.2325 210.461 46.8301 203.041 46.5527C201.123 46.4806 199.563 46.8468 197.719 47.0049C202.854 41.734 210.484 41.9643 217.192 40.3525C222.71 39.0265 228.378 36.7462 232.851 33.2369C234.375 32.0412 238.801 26.9313 239.705 26.5928C239.948 26.5041 240.509 26.6234 240.928 26.4597C242.51 25.8438 244.104 25.0282 245.792 24.7786L245.795 24.7758Z" fill="#EEB79B"/>
<path d="M238.491 281.202C234.132 285.106 230.144 289.675 225.104 292.693C224.51 288.171 219.087 281.436 215.038 279.261L210.5 276.972C214.988 276.145 219.375 274.8 223.659 273.263C225.166 272.722 230.284 270.209 231.316 270.314C232.723 270.458 236.398 273.518 237.227 274.75C238.056 275.982 238.779 278.409 238.81 279.863C238.824 280.498 238.508 280.936 238.497 281.2L238.491 281.202Z" fill="#FCB38C"/>
<path d="M160.596 327.467C160.649 327.461 160.939 327.186 161.333 327.15C166.577 326.662 171.901 327.328 177.025 325.955C177.006 327.037 178.627 327.902 179.47 328.82C181.535 331.067 183.33 334.285 186.394 335.245C189.511 336.225 194.596 335.992 195.285 340.167C193.189 341.254 187.585 337.653 186.43 337.897C184.7 338.261 186.542 340.508 184.331 341.379C180.999 341.393 177.991 337.609 174.595 338.657C174.335 338.311 172.356 332.873 171.084 334.715C170.107 336.127 174.717 339.481 172.465 341.681C169.864 340.96 160.552 336.951 159.365 334.896C158.006 332.535 161.068 329.95 160.599 327.469L160.596 327.467Z" fill="#FCB38C"/>
<path d="M238.491 281.202C238.399 283.361 238.349 285.98 237.596 288.024C236.585 290.762 226.659 298.885 223.86 300.982C212.903 309.193 199.946 315.815 186.461 318.695C187.164 316.806 188.442 315.116 189.199 313.255C189.394 313.882 190.094 313.235 190.413 313.099C199.736 309.107 208.753 304.894 217.109 299.11C219.403 297.523 221.549 295.722 223.888 294.205C224.038 296.219 223.246 297.703 223.282 299.648C225.582 299.093 225.35 294.56 225.107 292.693C230.15 289.675 234.135 285.106 238.494 281.202H238.491Z" fill="#DC804F"/>
<path d="M239.1 22.9615C233.884 24.4679 228.978 26.8286 223.821 28.4903C213.378 31.8554 199.552 32.8457 194.674 44.1281L193.761 47.4543C193.63 46.8745 192.388 45.5596 192.849 44.4305C199.435 25.952 221.13 19.4661 239.1 22.9615Z" fill="#EEB79B"/>
<path d="M202.89 158.131C203.984 158.375 204.486 158.481 204.698 159.812C204.91 161.144 204.294 165.094 204.065 166.706C202.918 174.815 198.963 187.273 192.037 192.25C190.859 193.096 189.653 193.315 188.607 193.984C184.619 196.536 180.592 199.976 176.425 202.137C174.302 203.238 172.557 204.162 170.029 203.796C170.939 207.666 169.956 211.533 168.963 215.284C167.461 220.948 165.433 225.981 162.67 231.121C162.441 231.546 162.55 232.078 161.813 231.917C165.109 223.983 168.008 212.87 166.605 204.326C166.476 203.555 166.231 202.792 165.809 202.126C167.456 200.919 169.496 200.303 170.794 198.655C171.338 199.801 169.25 201.984 171.447 202.204C172.541 202.312 177.148 199.102 178.345 198.295C181.814 195.953 185.077 193.271 188.448 190.794H188.897C188.931 192.472 190.287 192.494 191.49 191.698C194.398 189.773 198.274 180.563 199.326 177.112C201.168 171.07 202.187 164.406 202.896 158.131H202.89Z" fill="#77592F"/>
<path d="M53.1859 151.778C53.1385 151.34 53.6129 151.515 53.8976 151.11C54.919 149.65 55.2595 148.036 54.9302 146.263L37.9233 78.4968C37.1615 77.2318 35.6712 76.9239 34.3289 76.627C29.032 75.4536 21.4021 76.1194 15.9127 76.4883C13.2308 76.6687 10.5629 77.365 7.84747 77.0875L9.37401 75.4342L35.381 74.9792C36.9019 75.1984 38.5457 75.6284 39.4555 76.9794L57.1293 146.527C57.1879 148.888 55.6223 151.334 53.1887 151.781L53.1859 151.778Z" fill="#4F88A4"/>
<path d="M96.3923 3.91155C105.641 7.76204 112.821 13.3103 117.136 22.4566C118.922 26.2433 119.832 31.3949 123.775 33.5504C122.399 35.4201 120.34 33.8083 118.816 32.8818C112.163 28.8454 109.606 20.1763 105.044 14.2119C103.874 12.6806 101.77 11.9454 100.347 9.95915C100.224 9.78716 100.182 9.19349 99.8751 8.7746C98.7002 7.16838 97.4109 5.62596 96.3895 3.91155H96.3923Z" fill="#EEB79B"/>
<path d="M96.3923 3.91155C97.4137 5.62319 98.7002 7.1656 99.8779 8.7746C100.185 9.19349 100.227 9.78716 100.35 9.95915L97.1541 7.85081C95.7392 9.39323 99.3505 11.3629 100.506 12.6778C101.388 13.682 102.484 15.2439 103.14 16.409C107.075 23.4026 106.59 33.9332 115.866 36.2718C115.944 36.7961 115.157 36.5852 114.836 36.5381C111.607 36.0804 108.733 34.4242 106.129 32.6377C105.278 30.6431 103.777 28.937 102.819 27.0062C99.9895 21.3164 98.8258 14.6641 95.0667 9.31C94.7625 8.87724 94.6257 8.41119 93.9587 8.44448C93.2973 6.49981 92.4545 4.5385 91.5252 2.70203C93.2834 2.53003 94.835 3.25963 96.3951 3.90877L96.3923 3.91155Z" fill="#D29D83"/>
<path d="M239.1 22.9615C241.405 23.4109 243.772 24.4595 246.096 23.5663C246.32 24.1044 245.865 24.4873 245.795 24.7758C244.109 25.0282 242.513 25.8438 240.931 26.4569C240.512 26.6206 239.951 26.4985 239.708 26.5901C239.89 25.669 239.002 24.9617 238.176 25.1975C234.534 27.6442 230.027 29.403 225.869 30.8289C219.955 32.8568 213.765 33.5892 207.989 35.7364C203.13 37.5423 197.839 39.9364 194.677 44.1281C199.555 32.8457 213.378 31.8554 223.823 28.4903C228.981 26.8286 233.887 24.4679 239.103 22.9615L239.1 22.9615Z" fill="#D29D83"/>
<path d="M250.969 265.479C249.627 268.097 247.645 270.589 245.786 272.88C244.319 274.692 242.655 277.061 240.621 278.181C240.16 275.249 238.871 273.072 236.504 271.235C235.952 270.808 232.896 269.371 233.317 268.813C236.22 268.608 242.753 262.663 244.751 262.46C245.611 262.372 247.746 263.071 248.547 263.501C249.571 264.053 250.07 265.002 250.966 265.481L250.969 265.479Z" fill="#FCB38C"/>
<path d="M128.645 128.803C129.192 129.355 128.458 129.302 128.196 129.405C127.191 129.799 126.404 130.007 125.399 130.562C124.263 131.189 120.119 134.143 119.341 134.248C118.021 134.426 114.351 131.239 112.52 131.216C115.048 128.292 118.177 125.646 121.855 124.331C122.355 124.323 126.58 127.727 127.45 128.331C127.824 128.592 128.6 128.759 128.645 128.806V128.803Z" fill="#77592F"/>
<path d="M124.082 50.1785L122.556 49.1243L117.998 47.765C120.075 46.6276 122.07 45.6678 123.599 43.8035C124.515 42.6883 125.486 40.1778 126.747 39.6756C128.109 39.1319 130.478 39.29 131.991 38.9932L126.862 45.2405L127.25 45.9674C129.546 46.2753 132.184 47.0021 134.425 46.5499C134.43 46.647 134.43 46.7552 134.425 46.8523C134.399 47.3045 134.07 47.8538 134.12 48.3642C134.023 48.3836 133.914 48.3448 133.816 48.3642C130.777 49.0078 127.744 49.6015 124.688 50.1785C124.501 50.2146 124.263 50.1424 124.079 50.1785H124.082Z" fill="#EEB79B"/>
<path d="M254.923 259.431C254.485 260.993 254.187 262.494 253.629 264.042C250.846 271.782 245.764 279.333 240.319 285.436C240.629 282.92 241.014 280.686 240.621 278.179C242.655 277.061 244.316 274.689 245.787 272.877C247.645 270.586 249.624 268.097 250.969 265.476C251.279 265.642 251.457 265.875 251.881 265.776C251.965 265.332 251.773 264.641 251.881 264.264C252.169 263.301 254.321 260.524 254.923 259.426L254.923 259.431Z" fill="#DC804F"/>
<path d="M81.4841 121.238C80.1278 121.865 78.6292 122.051 77.231 122.603C75.1463 123.427 73.1258 125.21 70.8346 125.169C69.1769 125.138 67.2569 123.368 66.7769 121.787C66.2969 120.206 67.1369 119.676 68.5406 119.107C72.6207 117.462 77.7501 119.443 81.4841 121.235V121.238Z" fill="#C08F4B"/>
<path d="M98.5216 318.698C98.8956 318.578 100.16 317.913 100.347 318.096C99.4593 320.459 101.642 322.479 102.038 324.729C102.496 327.325 101.619 329.844 98.6835 330.196C95.0388 330.635 89.3233 330.427 85.4414 330.493C83.6693 329.958 81.392 330.166 79.5027 330.185C78.9892 330.191 78.1492 329.991 77.8338 330.493C75.1296 330.465 72.1937 330.762 69.6178 330.191C73.4495 330.457 77.231 329.833 81.032 329.589C86.0386 329.27 91.2322 329.356 96.1523 328.285C97.7737 327.933 99.3895 328.01 99.1077 326.141C98.7281 323.636 97.5421 321.544 98.5244 318.698H98.5216Z" fill="#DC804F"/>
<path d="M117.083 168.712L113.949 167.144C109.548 164.168 103.235 159.723 105.828 153.595C106.288 153.529 106.542 153.601 106.911 153.878C107.106 154.028 109.316 156.561 109.609 156.941C112.327 160.472 114.465 165.052 117.086 168.712H117.083Z" fill="#D29D83"/>
<path d="M91.221 140.593C94.3243 141.275 103.269 147.259 106.291 149.354C113.07 154.053 119.857 167.976 123.781 175.064C119.907 169.655 116.815 163.635 112.894 158.214C111.543 156.347 109.311 152.966 107.257 152.025C101.918 149.581 97.2546 145.822 92.6052 142.091C92.1336 141.714 91.1764 141.237 91.2238 140.593H91.221Z" fill="#77592F"/>
<path d="M106.129 32.6377C97.0313 26.4014 97.2072 17.9875 93.9587 8.44725C94.6257 8.41396 94.7625 8.88002 95.0667 9.31278C98.8286 14.6668 99.9923 21.3164 102.819 27.009C103.779 28.9397 105.281 30.6458 106.129 32.6404V32.6377Z" fill="#EEB79B"/>
<path d="M251.881 264.269C250.642 262.438 248.413 261.767 246.406 261.096C247.614 259.844 249.286 258.812 250.52 257.625C252.49 255.728 253.31 253.209 256.444 253.386C256.31 255.464 255.482 257.442 254.923 259.431C254.321 260.53 252.166 263.307 251.881 264.269Z" fill="#FCB38C"/>
<path d="M160.596 327.467C161.065 329.944 158.004 332.532 159.363 334.893C160.549 336.951 169.861 340.957 172.462 341.678C171.338 342.777 168.851 342.5 167.344 342.078C164.623 341.315 162.656 339.481 160.596 337.748C159.879 337.143 159.678 336.405 158.467 336.538C155.523 333.85 158.511 330.565 157.858 327.469C158.757 327.408 159.703 327.544 160.596 327.467Z" fill="#DC804F"/>
<path d="M117.387 105.514C117.301 105.575 116.857 106.255 116.779 106.421C115.729 106.643 114.909 107.761 114.041 108.235C113.645 108.452 113.229 108.638 112.824 108.84L107.092 109.093L104.611 104.607C108.379 105.256 112.241 104.673 116.036 104.89C116.603 104.923 117.178 104.821 117.39 105.511L117.387 105.514Z" fill="#AFE3FC"/>
<path d="M28.8423 117.307C29.2497 117.809 29.8106 118.147 29.7102 118.896C29.5232 120.303 26.1073 124.259 25.4264 126.159C25.1752 126.861 25.3036 127.815 25.125 128.132C25.0496 128.267 23.0291 129.613 22.6356 130.04C21.4579 131.322 21.0254 132.895 20.0179 134.243C20.0151 134.165 19.6356 133.96 19.7584 133.278C20.0458 131.652 26.4478 119.634 27.6729 118.111C28.0134 117.69 28.1864 117.299 28.8423 117.307Z" fill="#77592F"/>
<path d="M121.953 50.7833L107.346 53.8071C110.566 49.3962 117.261 48.2366 121.953 50.7833Z" fill="white"/>
<path d="M25.8003 139.081C26.9836 134.975 31.0497 130.487 35.3838 129.693C35.9335 129.594 36.6229 130.098 36.4498 129.102C36.6926 129.607 37.3094 130.745 36.9326 131.236C35.1186 131.646 33.62 132.348 32.0879 133.389C30.5558 134.429 26.9111 137.705 25.7976 139.084L25.8003 139.081Z" fill="#77592F"/>
<path d="M81.4841 121.238C82.1288 121.549 83.206 121.898 83.6134 122.445C79.9157 121.931 76.6422 124.489 74.5965 127.31C74.3091 127.355 70.709 126.023 70.8346 125.169C73.1258 125.213 75.1463 123.427 77.231 122.603C78.6292 122.051 80.1306 121.865 81.4841 121.238Z" fill="#77592F"/>
<path d="M196.198 286.645L192.852 299.345C193.51 294.41 193.368 289.381 194.68 284.529C195.74 284.504 195.913 285.913 196.201 286.643L196.198 286.645Z" fill="#EEB79B"/>
<path d="M193.761 47.4571C193.996 48.489 193.36 50.4781 193.485 50.8998C193.521 51.0163 194.286 51.6848 194.674 52.8999C192.695 51.8818 190.549 50.6418 190.424 48.1506C190.39 47.5209 190.717 47.2074 190.719 47.1547C192.5 47.4987 192.38 45.751 192.849 44.4333C192.391 45.5623 193.63 46.8773 193.761 47.4571Z" fill="#77592F"/>
<path d="M184.329 341.379C182.361 342.153 175.859 340.35 174.592 338.657C177.988 337.609 180.997 341.393 184.329 341.379Z" fill="#DC804F"/>
<path d="M135.644 270.619C135.463 271.191 135.172 271.929 135.036 272.433C134.492 272.184 134.905 271.438 134.983 271.027C135.34 269.188 135.884 266.53 136.557 264.874C137.193 263.304 138.787 262.405 139.903 261.245C138.086 264.222 136.702 267.301 135.644 270.619Z" fill="#EEB79B"/>
<path d="M138.385 47.4571C136.892 48.0674 135.812 50.7361 134.274 51.6876C133.585 51.8152 133.855 51.3908 133.822 50.9386C133.76 50.0869 133.864 49.2131 133.822 48.3614C133.919 48.342 134.028 48.3809 134.126 48.3614C135.538 48.0646 136.936 47.593 138.385 47.4543V47.4571Z" fill="#4F88A4"/>
<path d="M199.544 278.179C198.949 278.204 198.347 278.098 197.758 278.218L196.502 283.017C196.298 282.734 195.467 282.484 195.358 281.924L195.894 277.574L199.544 278.179Z" fill="#EEB79B"/>
<path d="M135.036 295.414C134.416 292.612 134.151 291.078 134.123 288.157C134.129 288.188 134.377 288.335 134.416 288.618C134.723 290.854 134.916 293.162 135.036 295.414Z" fill="#D29D83"/>
<path d="M85.4386 330.49C82.913 330.532 80.3594 330.515 77.831 330.49C78.1464 329.988 78.9864 330.188 79.4999 330.183C81.3864 330.163 83.6665 329.955 85.4386 330.49Z" fill="#EEB79B"/>
<path d="M135.036 275.155H134.427C134.623 274.253 134.796 273.324 135.036 272.433C135.172 271.929 135.463 271.191 135.644 270.619C136.066 271.954 135.273 273.773 135.036 275.155Z" fill="#77592F"/>
<path d="M116.779 106.421C116.067 107.922 116.807 108.308 114.041 108.235C114.909 107.761 115.729 106.643 116.779 106.421Z" fill="white"/>
<path d="M53.7943 125.774C52.971 123.635 52.5273 121.338 51.9692 119.121C52.5329 119.826 52.9348 121.138 53.1692 122.012C53.5208 123.338 53.5404 124.617 53.7971 125.774H53.7943Z" fill="#A1C5D8"/>
<path d="M195.589 208.024C196.014 206.412 195.801 204.478 197.11 203.186C196.675 204.686 196.566 206.628 195.589 208.024Z" fill="#EEB79B"/>
<path d="M30.6674 114.588L30.3604 116.097L28.845 115.185L28.9957 114.585L30.6674 114.588Z" fill="#77592F"/>
<path d="M56.2278 135.755C57.3804 135.602 57.0009 137.727 57.1404 138.476C56.7106 137.697 56.4623 136.629 56.2278 135.755Z" fill="#A1C5D8"/>
<path d="M77.831 190.788C76.9352 191.071 76.391 191.648 76.3101 192.602C77.298 192.652 77.4096 191.423 77.831 190.788Z" fill="#C08F4B"/>
<path d="M90.3084 140.593L88.4833 141.198C88.7819 140.912 88.821 140.596 89.3987 140.404C90.0768 140.18 90.208 140.585 90.3084 140.593Z" fill="#77592F"/>
<path d="M158.467 336.541C159.678 336.408 159.879 337.146 160.596 337.75C159.586 337.653 159.123 337.14 158.467 336.541Z" fill="#EEB79B"/>
<path d="M134.123 288.157C134.048 287.619 133.858 287.2 133.819 286.343C134.327 286.67 134.118 287.586 134.123 288.157Z" fill="#77592F"/>
<path d="M124.082 175.669H124.69V176.576C124.587 176.39 124.325 176.11 124.082 175.669Z" fill="#77592F"/>
<path d="M117.387 36.5714L117.384 37.1734L116.173 36.8682V36.5742L117.387 36.5714Z" fill="#D29D83"/>
<path d="M127.124 180.507L127.724 180.518L127.732 181.112C127.459 180.857 127.685 181.362 127.124 180.507Z" fill="#77592F"/>
<path d="M74.7054 62.0407C80.0636 60.931 86.0861 69.8831 87.5791 74.2052C89.1698 78.8131 88.0731 83.984 89.4796 88.6446C90.381 91.6295 92.4936 93.3134 91.1373 96.8144C89.2982 101.566 86.9819 100.817 82.6953 99.9214C79.0171 99.153 72.883 97.3609 71.3537 93.6547C68.6606 87.1382 66.8773 67.8719 72.9556 63.0199C73.4384 62.6343 74.0998 62.1627 74.7054 62.0379L74.7054 62.0407ZM72.5732 74.4133C69.1741 75.3537 71.803 84.7192 72.0458 87.2242C72.1295 88.0731 72.2523 89.1273 72.2942 89.9401C72.3305 90.6558 71.8811 91.2661 72.1128 92.2953C72.7128 94.9835 75.9863 94.4148 76.5445 91.6878C77.0105 89.4102 76.0422 79.379 75.2384 77.0987C74.9007 76.1471 73.804 74.0332 72.5732 74.4133ZM80.0525 75.1789C79.7538 74.9792 79.8655 74.1636 78.9501 74.405C78.3696 74.7656 77.7445 75.4231 77.591 76.0972C76.8515 79.3651 79.3185 89.9984 82.2934 91.857C84.967 93.5298 86.4516 90.6198 85.966 88.2063C83.8786 83.7538 84.3279 78.0419 80.0525 75.1817V75.1789Z" fill="#A1C5D8"/>
<path d="M128.19 53.8071C128.388 53.7072 128.388 53.6045 128.19 53.5047V53.8071Z" fill="#A1C5D8"/>
<path d="M186.151 208.631C186.369 208.767 186.787 212.937 186.782 213.63C186.748 218.735 183.776 229.731 181.451 234.345C181.242 234.761 180.812 235.682 180.377 235.843C182.37 229.984 184.53 223.781 184.934 217.547C185.024 216.163 184.641 209.189 185.225 208.764L186.148 208.631L186.151 208.631Z" fill="#0B0908"/>
<path d="M172.158 273.64C170.875 273.918 170.554 272.27 170.414 271.296C169.993 268.355 170.428 259.162 172.021 256.724C172.239 256.391 172.688 255.95 173.068 255.803C171.687 261.57 171.561 267.734 172.155 273.643L172.158 273.64Z" fill="#0B0908"/>
<path d="M178.242 170.529C179.13 171.433 175.156 175.064 174.43 175.658C172.831 176.97 170.601 178.535 168.508 178.687L173.685 174.612C174.497 174.26 177.466 169.738 178.242 170.526V170.529Z" fill="#0B0908"/>
<path d="M160.292 278.783C161.043 276.861 161.573 272.888 162.022 270.675C162.382 268.905 162.045 264.988 164.246 264.874C162.622 268.888 162.639 275.441 160.596 279.086L160.292 278.783Z" fill="#0B0908"/>
<path d="M170.939 239.474C170.208 239.571 170.249 239.424 170.392 238.78C170.766 237.097 171.394 234.356 172.46 233.124L170.939 239.474Z" fill="#0B0908"/>
<path d="M160.596 279.086C160.334 279.557 159.89 280.079 159.382 280.295C159.184 279.654 160.127 279.202 160.292 278.783L160.596 279.086Z" fill="#77592F"/>
<path d="M72.964 232.519C74.0775 232.356 73.3407 233.643 74.4682 233.909C75.0431 234.045 75.6347 233.99 76.0282 233.524C77.3398 231.496 73.3184 228.341 75.2803 227.701C78.0543 226.793 79.5697 234.569 76.151 235.23C73.9156 235.66 72.4672 234.924 72.964 232.519Z" fill="#0B0908"/>
<path d="M150.555 44.7356C159.326 43.1516 164.718 41.9255 170.341 50.0204C173.554 54.6448 174.123 61.9158 171.687 66.79C169.909 70.3492 164.606 75.8115 160.616 76.6548C158.964 77.0043 157.306 76.3663 156.338 78.2998C156.137 78.2832 155.927 78.322 155.729 78.2998C151.002 77.7672 146.037 74.2746 143.55 70.2937C138.133 61.6218 140.827 51.0856 149.037 45.3376C149.654 45.2211 150.192 44.7995 150.558 44.7329L150.555 44.7356ZM155.057 45.1268C137.185 46.4501 139.749 77.3206 157.094 75.5756C174.07 73.8696 174.075 43.7175 155.057 45.1268Z" fill="#4F88A4"/>
<path d="M190.415 83.4403C189.363 83.2572 188.54 82.5276 187.541 82.2141C179.272 79.6203 175.46 85.7595 169.395 89.6127C161.654 94.5285 151.551 97.8991 142.59 99.8659C141.781 100.043 140.704 100.426 139.908 100.224C141.753 98.576 145.041 96.4121 146.296 94.326C146.592 94.8947 147.362 94.5701 147.829 94.4924C154.417 93.3828 162.851 89.4574 168.714 86.2144C174.974 82.7523 180.782 76.3358 188.261 81.1988C189.556 82.0421 189.72 82.7412 190.418 83.4403H190.415Z" fill="#D29D83"/>
<path d="M188.59 84.3475C187.672 84.1782 188.001 84.8107 187.982 85.3933C187.535 98.6481 184.117 108.224 173.989 117.163C169.719 120.93 159.438 127.685 153.901 127.591C172.666 121.654 184.376 102.138 184.94 83.1407C186.327 83.1463 187.435 83.7732 188.59 84.3502L188.59 84.3475Z" fill="#D29D83"/>
<path d="M155.422 78.9046C155.531 78.8242 155.612 78.4496 155.726 78.2998C155.924 78.322 156.134 78.2832 156.335 78.2998C163.758 78.8935 170.81 75.8558 174.416 69.2035C180.218 58.4898 174.304 45.9479 162.726 42.9214C173.763 43.9006 181.845 53.8847 179.986 65.0645C178.139 76.1749 165.873 82.4472 155.422 78.9074V78.9046Z" fill="#D29D83"/>
<path d="M162.726 42.9214C174.304 45.9507 180.218 58.4898 174.416 69.2035C170.813 75.8558 163.761 78.8935 156.335 78.2998C157.303 76.3663 158.961 77.0043 160.613 76.6548C164.604 75.8087 169.909 70.3492 171.684 66.79C174.117 61.9158 173.551 54.6448 170.339 50.0204C164.715 41.9254 159.324 43.1544 150.552 44.7356C154.384 42.3055 158.419 42.5385 162.723 42.9214L162.726 42.9214Z" fill="#0B0908"/>
<path d="M146.905 92.2093C145.32 94.412 138.354 100.154 135.856 101.037C131.589 102.54 126.024 102.035 121.651 102.795L129.867 97.0502L141.731 95.3829C144.312 93.1442 146.176 90.4145 147.672 87.374C149.5 88.123 147.695 91.1163 146.908 92.2121L146.905 92.2093Z" fill="#D29D83"/>
<path d="M149.642 82.8355C149.891 82.6608 150.159 82.5609 150.251 82.2308C150.343 82.2558 150.455 82.2114 150.555 82.2308C151.197 82.3556 152.16 82.7523 152.076 81.626C154.828 82.0172 157.669 82.0172 160.459 81.9423C161.191 81.9228 163.147 81.2682 163.334 82.0838C163.571 83.1102 159.631 83.6206 158.885 83.7038C156.07 84.0284 152.204 84.0728 149.642 82.8328V82.8355Z" fill="#D29D83"/>
<path d="M192.849 88.5808C191.9 88.1591 190.976 86.9496 190.256 86.1673C189.913 85.7928 189.494 85.5459 189.503 84.9522C191.632 86.4031 191.537 86.4669 192.849 88.5808Z" fill="#D29D83"/>
<path d="M152.076 81.3236L152.076 81.626C152.157 82.7523 151.197 82.3556 150.555 82.2308C150.77 81.8923 151.136 81.5373 151.468 81.3236C151.579 81.2515 151.973 81.3958 152.076 81.3236Z" fill="#0B0908"/>
<path d="M153.293 127.588V128.19C152.841 128.387 152.486 127.904 152.38 127.89C152.525 127.51 152.958 127.585 153.293 127.588Z" fill="#D29D83"/>
<path d="M151.772 127.89L150.859 128.193C150.907 128.19 151.085 127.899 151.772 127.89Z" fill="#D29D83"/>
<path d="M150.251 82.2308C140.36 79.6037 135.655 61.0586 140.67 52.9027C141.309 52.7834 141.167 53.144 141.064 53.5934C138.728 63.6108 139.869 72.1662 147.837 79.3374L151.468 81.3236C151.136 81.5373 150.77 81.8923 150.555 82.2308C150.455 82.2114 150.343 82.2558 150.251 82.2308Z" fill="#4F88A4"/>
<path d="M13.549 78.9684C18.1146 78.5994 19.2979 87.6459 14.3862 87.9954C9.46332 88.3477 8.81028 79.3512 13.549 78.9684ZM11.4978 82.2308C11.1601 84.439 12.3657 87.7901 15.0699 86.5362C15.4913 86.3393 15.8625 86.0896 15.7537 85.5597C13.5071 86.5168 13.0438 86.0757 12.1034 84.0451C12.0475 83.923 11.908 83.8259 11.7992 83.7427C11.7657 83.4459 11.7406 82.7828 11.7992 82.5332C11.8466 82.3223 12.8038 80.816 12.7117 80.7217C11.9862 80.5441 11.5703 81.7425 11.495 82.2308H11.4978Z" fill="#0B0908"/>
<path d="M15.3713 89.8485C20.5342 88.7167 20.8998 99.6412 15.469 97.4857C12.6029 96.3483 12.2345 90.5365 15.3713 89.8485ZM15.455 91.0026C13.5155 91.2855 14.0848 95.1499 15.1676 95.9711C15.8485 96.4843 17.3611 96.7839 17.2774 95.5383C14.4197 95.9211 14.2913 92.8973 15.4523 91.0026H15.455Z" fill="#0B0908"/>
<path d="M112.607 67.0452C114.831 66.3933 114.052 59.4191 110.304 60.5177C107.792 61.2528 108.853 68.1465 112.607 67.0452Z" fill="#4F88A4"/>
<path d="M145.677 126.67L140.252 125.732C140.009 124.079 140.042 121.973 139.314 120.467C138.915 119.645 137.818 118.974 137.762 118.35C137.712 117.787 139.342 115.212 139.783 114.613C142.476 110.96 147.103 108.374 151.775 108.843C150.65 109.792 145.138 115.071 145.384 116.242C145.56 117.077 146.508 116.569 146.922 116.261C150.181 113.825 151.92 110.566 156.07 108.419C160.881 105.93 166.596 106.896 171.243 109.292C170.093 110.183 169.8 111.781 170.099 113.154C170.328 114.205 171.251 114.269 170.478 115.465C170.247 115.826 168.276 117.79 167.986 117.864C167.47 118 166.038 117.573 165.053 117.64C163.175 117.765 161.054 118.722 160.501 120.68C160.242 121.593 160.496 122.936 159.996 123.504C159.776 123.757 157.78 124.561 157.448 124.495C157.144 124.434 155.182 122.8 154.074 122.428C150.226 121.13 146.023 122.112 145.682 126.664L145.677 126.67Z" fill="#DC804F"/>
<path d="M144.468 101.284L142.878 106.957L134.55 110.053C134.056 110.169 133.752 110.003 133.347 109.767C131.72 108.818 129.851 105.309 128.042 104.155L144.471 101.286L144.468 101.284Z" fill="white"/>
<path d="M155.422 125.468C152.645 126.217 149.813 126.897 146.905 126.681C147.429 123.418 150.541 122.7 153.382 123.723C153.762 123.859 155.83 124.93 155.422 125.471V125.468Z" fill="white"/>
<path d="M137.386 120.719C137.885 121.207 138.686 124.761 138.379 125.172C137.14 124.75 132.393 122.578 132.281 121.379C132.069 119.141 136.244 119.604 137.386 120.722V120.719Z" fill="white"/>
<path d="M171.553 113.678C171.41 112.338 170.967 111.42 171.851 110.197C172.831 108.84 175.622 108.566 174.544 110.455C174.315 110.857 172.019 114.172 171.553 113.678Z" fill="white"/>
<path d="M161.512 122.447C161.687 121.307 162.078 120.242 163.164 119.709C163.605 119.493 166.116 118.761 166.069 119.579L161.512 122.45L161.512 122.447Z" fill="white"/>
<path d="M80.0525 75.1789C84.3279 78.0391 83.8786 83.751 85.966 88.2035C86.4516 90.617 84.967 93.5243 82.2934 91.8542C79.3185 89.9956 76.8515 79.3623 77.591 76.0944C77.7445 75.4203 78.3668 74.7628 78.9501 74.4022C79.8683 74.1608 79.7566 74.9792 80.0525 75.1762V75.1789Z" fill="#4F88A4"/>
<path d="M72.5732 74.4133C73.804 74.0332 74.9007 76.1444 75.2384 77.0987C76.0449 79.379 77.0133 89.4102 76.5445 91.6878C75.9835 94.4175 72.7128 94.9863 72.1128 92.2953C71.8839 91.2661 72.3332 90.6558 72.2942 89.9401C72.2523 89.1273 72.1295 88.0703 72.0458 87.2242C71.8002 84.7192 69.1713 75.3537 72.5732 74.4133Z" fill="#4F88A4"/>
<path d="M155.057 45.1268C174.078 43.7175 174.07 73.8696 157.094 75.5756C139.747 77.3178 137.185 46.4501 155.057 45.1268ZM152.31 50.5558C142.227 51.7348 142.035 69.5003 150.781 70.9706C163.948 73.1843 164.651 49.1132 152.31 50.5558Z" fill="#4F96FD"/>
<path d="M11.802 82.5332C11.7434 82.7828 11.7685 83.4486 11.802 83.7427C11.8159 83.8814 11.9638 84.0118 12.1062 84.0451C13.0438 86.0757 13.5099 86.5168 15.7564 85.5597C15.8653 86.0896 15.4941 86.3393 15.0727 86.5362C12.3657 87.7929 11.1629 84.4418 11.5006 82.2308L11.8048 82.5332H11.802Z" fill="#A1C5D8"/>
<path d="M11.4978 82.2308C11.5731 81.7425 11.9889 80.5441 12.7145 80.7217C12.8066 80.816 11.8494 82.3223 11.802 82.5332L11.4978 82.2308Z" fill="#4F88A4"/>
<path d="M11.802 83.7427C11.8159 83.8814 11.9638 84.0118 12.1062 84.0451C12.0503 83.923 11.9108 83.8259 11.802 83.7427Z" fill="#4F88A4"/>
<path d="M15.455 91.0026C14.2941 92.8945 14.4225 95.9183 17.2802 95.5383C17.3639 96.7839 15.8513 96.4843 15.1704 95.9711C14.0848 95.1527 13.5183 91.2855 15.4578 91.0026L15.455 91.0026Z" fill="#A1C5D8"/>
<path d="M150.781 70.9706C163.948 73.1843 164.651 49.1132 152.31 50.5558C142.227 51.732 142.038 69.5003 150.781 70.9706ZM152.62 52.0566C145.286 52.7723 143.031 64.6483 149.235 68.5737C156.524 73.1871 163.337 61.1779 157.85 54.5699C156.7 53.1856 154.454 51.8763 152.62 52.0566Z" fill="#AFE3FC"/>
<path d="M152.62 52.0566C154.454 51.879 156.7 53.1856 157.85 54.5699C163.337 61.1807 156.524 73.1871 149.235 68.5737C143.031 64.6483 145.286 52.7695 152.62 52.0566ZM150.17 57.1776C146.771 57.7907 147.128 65.8246 150.706 65.6304C154.283 65.4362 154.11 56.4674 150.17 57.1776Z" fill="#4F96FD"/>
<path d="M150.17 57.1776C154.11 56.4674 154.406 65.4279 150.706 65.6304C147.005 65.8329 146.774 57.7907 150.17 57.1776Z" fill="#AFE3FC"/>
</svg>
