<svg width="14" height="11" viewBox="0 0 14 11" fill="none" xmlns="http://www.w3.org/2000/svg">
<g clip-path="url(#clip0_181_2263)">
<path d="M9.33721 10.3274C9.29449 10.3786 9.24156 10.4204 9.18179 10.45C9.12203 10.4796 9.05675 10.4965 8.99011 10.4995C8.92346 10.5025 8.85692 10.4916 8.79473 10.4675C8.73254 10.4434 8.67606 10.4065 8.62889 10.3594C8.58172 10.3122 8.54489 10.2557 8.52076 10.1935C8.49663 10.1313 8.48572 10.0648 8.48873 9.99814C8.49174 9.9315 8.50861 9.86621 8.53825 9.80645C8.56789 9.74669 8.60966 9.69376 8.66089 9.65103L12.1115 6.1964L0.706001 6.1964C0.582901 6.18986 0.467 6.13635 0.3821 6.04689C0.297301 5.95743 0.25 5.83883 0.25 5.71553C0.25 5.59224 0.297301 5.47364 0.382101 5.38418C0.467001 5.29471 0.582901 5.2412 0.706001 5.23467L12.1115 5.23467L8.65548 1.78409C8.5685 1.693 8.51996 1.57189 8.51996 1.44593C8.51996 1.31998 8.5685 1.19887 8.65548 1.10777C8.69984 1.06328 8.75254 1.02797 8.81057 1.00388C8.8686 0.979799 8.93081 0.967399 8.99364 0.967399C9.05647 0.967399 9.11868 0.979799 9.17671 1.00388C9.23474 1.02797 9.28744 1.06328 9.3318 1.10777L13.6061 5.38211C13.6516 5.4259 13.6878 5.47842 13.7125 5.53652C13.7373 5.59463 13.75 5.65712 13.75 5.72027C13.75 5.78341 13.7373 5.84591 13.7125 5.90401C13.6878 5.96212 13.6516 6.01464 13.6061 6.05843L9.33721 10.3274Z" fill="black"/>
</g>
<defs>
<clipPath id="clip0_181_2263">
<rect width="14" height="11" fill="white" transform="translate(14 11) rotate(-180)"/>
</clipPath>
</defs>
</svg>
