<svg width="465" height="64" viewBox="0 0 465 64" fill="none" xmlns="http://www.w3.org/2000/svg">
<path d="M462.449 13.4359C460.776 13.4261 458.341 13.6171 455.597 14.5768C451.581 15.9822 448.949 18.3277 447.604 19.7184C447.526 18.0241 447.208 15.6982 446.176 13.147C444.122 8.07405 440.487 5.19969 438.756 4" stroke="black" stroke-width="3.62845" stroke-linecap="round" stroke-linejoin="round"/>
<path d="M436.689 35.7277C434.19 35.4143 430.605 35.2478 426.413 36.0117C421.59 36.8931 417.897 38.6608 415.564 40.0123C415.613 38.1418 415.471 35.6591 414.708 32.868C413.334 27.8293 410.653 24.387 409 22.5801" stroke="black" stroke-width="3.62845" stroke-linecap="round" stroke-linejoin="round"/>
<path d="M69.5859 4.86329C68.6477 3.92518 67.4875 3.68325 66.3519 4.3103C62.9302 6.20626 60.3974 8.80828 59.8543 12.8372C59.0791 12.7434 58.378 12.615 57.6768 12.5953C57.1387 12.5804 56.7585 12.3583 56.4919 11.9485C55.3464 10.2006 53.722 8.98602 51.9988 7.88004C51.6878 7.68255 51.2977 7.51467 51.278 6.97649C52.3049 6.19638 53.332 5.35703 54.4231 4.61642C55.1292 4.13749 55.5044 3.47095 55.7661 2.7254C56.0821 1.81198 55.4353 0.320888 54.586 0.182641C53.1887 -0.0444795 51.7421 -0.123474 50.3744 0.32583C49.2635 0.68626 48.2168 1.24417 47.1454 1.71816C45.2593 2.56246 43.6497 3.84126 42.0006 5.04598C40.9094 5.84584 41.0921 7.34681 42.0796 8.06767C43.0474 8.77372 44.0595 9.36126 45.1852 9.72663C47.333 10.4179 49.0018 11.8942 50.8484 13.0841C51.2928 13.3704 51.7174 13.7654 51.8951 14.3974C49.7178 15.9083 48.4637 18.1202 47.5848 20.6136C46.7553 19.8483 46.9775 18.7571 46.39 17.977C45.7185 17.0932 45.4716 16.0761 45.3926 14.9109C45.3037 13.6222 45.0815 12.1706 44.0348 11.2325C42.7758 10.1019 41.2551 9.55382 39.4825 9.71182C38.0359 9.83525 37.2261 10.6252 36.609 11.8152C36.4362 12.1509 36.0708 12.378 35.819 12.6841C34.4414 14.3579 34.6636 16.4711 36.367 17.8881C36.609 18.0856 36.999 18.1844 37.1274 18.4313C38.0112 20.0952 39.443 20.3865 41.1267 20.1445C41.3538 20.11 41.5908 20.1149 41.7291 20.3717C41.8821 20.6728 41.9512 20.9938 41.7142 21.2505C40.5046 22.554 39.5122 24.0253 38.5148 25.6497C37.6804 24.9042 36.9101 24.2376 36.1646 23.5563C35.3549 22.8107 34.2588 22.1837 33.844 21.2604C33.4342 20.3322 33.6959 19.0978 33.6959 17.9968C33.6959 16.713 33.3454 15.5231 32.6887 14.4468C29.8151 9.7365 23.2434 9.77107 20.044 13.1729C18.6763 14.6295 18.1925 16.1057 18.8442 18.1054C19.175 19.1274 19.4515 20.184 19.8416 21.2012C20.0934 21.8578 19.9008 22.3219 19.2935 22.5342C17.2889 23.2452 15.4917 24.3562 13.6501 25.3831C13.1119 25.6843 12.6971 25.788 12.1688 25.3634C9.76927 23.4378 6.94507 22.9638 3.97769 23.0872C2.4471 23.1465 1.41024 24.1981 0.398074 25.1758C-0.248725 25.7979 0.101845 26.6718 0.0425961 27.4371C0.0228466 27.6741 0.067288 27.9111 0.0475384 28.1481C-0.00183562 28.7504 0.264768 29.2145 0.67951 29.6046C1.64724 30.523 2.5409 31.4956 3.84931 32.0239C4.67879 32.3547 5.50828 32.8633 6.04152 33.6829C5.7354 33.9495 5.46387 34.1273 5.26637 34.3692C4.56032 35.248 3.88882 36.3047 4.44181 37.3514C4.93061 38.2747 4.95532 39.0202 4.77263 39.983C4.59982 40.8915 4.76274 41.8691 4.81705 42.8171C4.82693 43.0195 4.96024 43.2466 5.09849 43.4145C6.29334 44.8957 7.54744 46.3078 9.57177 46.6386C9.87295 46.688 10.2038 46.7127 10.3223 47.004C10.189 47.7446 10.0013 48.4358 9.94208 49.132C9.84827 50.2972 10.3519 50.9095 11.5319 51.0033C12.628 51.0872 13.7192 51.1317 14.7857 50.6478C15.63 50.2627 16.4693 50.4059 17.1655 51.1119C17.6642 51.6155 17.679 52.0105 17.1556 52.4944C16.8149 52.8104 16.4496 53.1066 16.1287 53.4473C15.393 54.2225 15.3386 55.1458 15.6991 56.0888C16.0249 56.9331 17.2247 57.6638 18.2468 57.417C19.3873 57.1454 20.36 57.3627 21.4166 57.7132C22.4633 58.0588 23.6384 58.2514 24.6555 57.7972C25.7417 57.3182 26.9021 57.1553 27.9784 56.7159C28.3981 56.7554 28.6647 56.5085 28.9116 56.232H28.9214C29.3461 56.2666 29.7262 56.1777 29.9928 55.8074L30.2002 55.8173L30.3385 55.6593C30.61 55.6839 30.8075 55.5753 30.926 55.3285H31.1383L31.2864 55.1754C31.5531 55.1951 31.7358 55.0816 31.8543 54.8446C32.0271 54.894 32.1554 54.8396 32.2344 54.6767C32.4961 54.7063 32.6393 54.5681 32.7084 54.336H32.7134C33.0195 54.3508 33.2269 54.2077 33.3404 53.9262L33.5182 53.9509L33.6515 53.8423C33.9527 53.9164 34.1551 53.8077 34.2439 53.5115C34.5352 53.4522 34.6933 53.2547 34.7772 52.9782L34.95 52.998L35.0735 52.8795C35.3944 52.9338 35.6166 52.8104 35.74 52.5141C35.898 52.5388 35.9918 52.4746 36.0264 52.3166C36.288 52.3364 36.4164 52.1932 36.4559 51.9513L36.4855 51.9266C36.762 51.9266 36.9299 51.7883 37.004 51.5267C37.2755 51.5217 37.4829 51.423 37.5619 51.1415C37.8581 51.0922 38.0309 50.8996 38.1099 50.6182C38.2679 50.6429 38.3617 50.5737 38.3963 50.4207C38.658 50.4404 38.7814 50.2923 38.8357 50.0602L38.8604 50.0454C39.1517 50.0454 39.3295 49.9022 39.3838 49.6159C40.4206 49.2061 40.7218 47.9026 41.8179 47.5175C42.0994 47.8829 42.3314 48.189 42.5734 48.4951C42.8647 48.8703 43.0029 49.3295 43.2202 49.7393C43.8275 50.8848 43.151 51.8624 42.9288 52.8894C42.7659 53.63 42.3215 54.0842 41.4871 54.2175C41.0674 54.2867 40.6725 54.6816 40.317 54.9927C38.9691 56.1727 38.6926 58.4193 39.6652 59.9054C40.0553 60.4979 40.4009 61.1101 40.7416 61.7273C41.6056 63.2875 44.3064 64.5713 45.916 62.8481C46.2863 62.458 46.8195 62.2211 47.2639 61.8952C48.4044 61.0608 49.1845 59.9647 49.0809 58.518C49.0068 57.5305 49.071 56.4542 48.3254 55.5951C47.9995 55.2149 48.0094 54.7903 48.202 54.2817C48.4192 53.7041 48.3896 53.0375 48.5624 52.4401C49.2438 50.1195 48.5871 48.1544 47.2392 46.2387C46.6763 45.4388 45.7135 44.8513 45.5753 43.7601C47.1799 43.1429 48.6908 42.5258 49.6486 41.0791C49.9054 40.694 50.2658 40.6199 50.6756 40.6742C51.0657 40.7236 51.4458 40.8273 51.8359 40.8668C54.1861 41.1137 56.4129 40.5261 58.373 39.3757C60.2493 38.2796 61.9823 36.912 63.1623 34.9419C65.0434 31.8017 66.8012 28.6418 66.2778 24.7956C66.1494 23.813 66.4358 23.1761 67.1616 22.5441C68.4305 21.4381 68.865 19.9915 68.7712 18.3078C68.6922 16.8562 68.3663 15.533 67.5467 14.3233C67.1567 13.7407 66.8555 13.0939 66.4802 12.4126C67.7294 10.9807 68.8255 9.46001 69.6254 7.7418C70.1191 6.68026 70.1438 5.42615 69.5859 4.86329ZM60.9997 13.8395C61.0392 13.7852 61.1232 13.7654 61.1923 13.721C61.686 13.8247 61.9921 14.1653 62.2242 14.585C62.2489 14.6344 62.2341 14.7282 62.1995 14.7776C62.16 14.8319 62.0761 14.8912 62.0168 14.8862C61.5033 14.8072 61.2219 14.4419 60.9849 14.0271C60.9553 13.9827 60.9701 13.8839 60.9997 13.8395ZM46.938 22.8601C47.1997 22.8552 47.2639 23.1267 47.2688 23.3736V25.2646H47.2836C47.2836 25.9707 47.3231 26.6817 47.2639 27.3828C47.2343 27.6938 46.9133 27.9753 46.5825 27.8963C45.7481 27.6988 44.9285 27.4568 44.1237 27.1705C43.7781 27.047 43.7386 26.6915 43.9558 26.3953C44.7409 25.314 45.5259 24.2376 46.3406 23.181C46.4689 23.0132 46.7306 22.865 46.938 22.8601Z" fill="#FEFEFE"/>
<path d="M37.3644 49.4826C37.2163 49.5813 37.0731 49.685 36.9299 49.8035C36.7916 49.9121 36.6633 50.0207 36.5398 50.1442C36.4806 50.2084 36.4214 50.2627 36.3621 50.3219C36.2436 50.4355 36.13 50.5392 36.0115 50.6527C35.893 50.7465 35.7696 50.8354 35.6462 50.9243C35.6116 50.944 35.5721 50.9638 35.5376 50.9885C35.6067 50.9589 35.6758 50.9391 35.7548 50.9243C35.8042 50.9095 35.8536 50.9045 35.9079 50.8947H35.9177C35.972 50.7367 36.0658 50.633 36.1893 50.5688C36.2288 50.549 36.2683 50.5342 36.3127 50.5244C36.3571 50.5095 36.4016 50.4997 36.446 50.4947C36.451 50.475 36.4559 50.4602 36.4609 50.4454L36.4757 50.4009C36.4954 50.3417 36.5201 50.2923 36.5497 50.2479C36.5744 50.2133 36.5991 50.1886 36.6287 50.1639C36.688 50.1096 36.762 50.0701 36.8509 50.0504C36.8707 50.0454 36.8904 50.0405 36.9151 50.0356C36.925 50.0356 36.9348 50.0306 36.9447 50.0306H36.9497C37.0287 49.9171 37.1175 49.8084 37.2064 49.6998C37.2656 49.6208 37.3298 49.5418 37.3989 49.4628C37.3841 49.4628 37.3792 49.4727 37.3644 49.4826ZM8.21893 33.2484C8.17449 33.1398 8.12017 33.041 8.05599 32.9423C8.04611 33.1151 8.05598 33.2928 8.08067 33.4755C8.13498 33.4459 8.19424 33.4113 8.24855 33.3768C8.24361 33.3323 8.2288 33.2928 8.21893 33.2484ZM37.3644 49.4826C37.2163 49.5813 37.0731 49.685 36.9299 49.8035C36.7916 49.9121 36.6633 50.0207 36.5398 50.1442C36.4806 50.2084 36.4214 50.2627 36.3621 50.3219C36.2436 50.4355 36.13 50.5392 36.0115 50.6527C35.893 50.7465 35.7696 50.8354 35.6462 50.9243C35.6116 50.944 35.5721 50.9638 35.5376 50.9885C35.6067 50.9589 35.6758 50.9391 35.7548 50.9243C35.8042 50.9095 35.8536 50.9045 35.9079 50.8947H35.9177C35.972 50.7367 36.0658 50.633 36.1893 50.5688C36.2288 50.549 36.2683 50.5342 36.3127 50.5244C36.3571 50.5095 36.4016 50.4997 36.446 50.4947C36.451 50.475 36.4559 50.4602 36.4609 50.4454C36.4658 50.4256 36.4658 50.4108 36.4757 50.4009C36.4954 50.3417 36.5201 50.2923 36.5497 50.2479C36.5744 50.2133 36.5991 50.1886 36.6287 50.1639C36.688 50.1096 36.762 50.0701 36.8509 50.0504C36.8707 50.0454 36.8904 50.0405 36.9151 50.0356C36.925 50.0356 36.9348 50.0306 36.9447 50.0306H36.9497C37.0287 49.9171 37.1175 49.8084 37.2064 49.6998C37.2656 49.6208 37.3298 49.5418 37.3989 49.4628C37.3841 49.4628 37.3792 49.4727 37.3644 49.4826ZM8.05599 32.9423C8.04611 33.1151 8.05598 33.2928 8.08067 33.4755C8.13498 33.4459 8.19424 33.4113 8.24855 33.3768C8.24361 33.3323 8.2288 33.2928 8.21893 33.2484C8.17449 33.1398 8.12017 33.041 8.05599 32.9423ZM69.5859 4.86329C68.6477 3.92518 67.4875 3.68325 66.3519 4.3103C62.9302 6.20626 60.3974 8.80828 59.8543 12.8372C59.0791 12.7434 58.378 12.615 57.6768 12.5953C57.1387 12.5804 56.7585 12.3583 56.4919 11.9485C55.3464 10.2006 53.722 8.98602 51.9988 7.88004C51.6878 7.68255 51.2977 7.51467 51.278 6.97649C52.3049 6.19638 53.332 5.35703 54.4231 4.61642C55.1292 4.13749 55.5044 3.47095 55.7661 2.7254C56.0821 1.81198 55.4353 0.320888 54.586 0.182641C53.1887 -0.0444795 51.7421 -0.123474 50.3744 0.32583C49.2635 0.68626 48.2168 1.24417 47.1454 1.71816C45.2593 2.56246 43.6497 3.84126 42.0006 5.04598C40.9094 5.84584 41.0921 7.34681 42.0796 8.06767C43.0474 8.77372 44.0595 9.36126 45.1852 9.72663C47.333 10.4179 49.0018 11.8942 50.8484 13.0841C51.2928 13.3704 51.7174 13.7654 51.8951 14.3974C49.7178 15.9083 48.4637 18.1202 47.5848 20.6136C46.7553 19.8483 46.9775 18.7571 46.39 17.977C45.7185 17.0932 45.4716 16.0761 45.3926 14.9109C45.3037 13.6222 45.0815 12.1706 44.0348 11.2325C42.7758 10.1019 41.2551 9.55382 39.4825 9.71182C38.0359 9.83525 37.2261 10.6252 36.609 11.8152C36.4362 12.1509 36.0708 12.378 35.819 12.6841C34.4414 14.3579 34.6636 16.4711 36.367 17.8881C36.609 18.0856 36.999 18.1844 37.1274 18.4313C38.0112 20.0952 39.443 20.3865 41.1267 20.1445C41.3538 20.11 41.5908 20.1149 41.7291 20.3717C41.8821 20.6728 41.9512 20.9938 41.7142 21.2505C40.5046 22.554 39.5122 24.0253 38.5148 25.6497C37.6804 24.9042 36.9101 24.2376 36.1646 23.5563C35.3549 22.8107 34.2588 22.1837 33.844 21.2604C33.4342 20.3322 33.6959 19.0978 33.6959 17.9968C33.6959 16.713 33.3454 15.5231 32.6887 14.4468C29.8151 9.7365 23.2434 9.77107 20.044 13.1729C18.6763 14.6295 18.1925 16.1057 18.8442 18.1054C19.175 19.1274 19.4515 20.184 19.8416 21.2012C20.0934 21.8578 19.9008 22.3219 19.2935 22.5342C17.2889 23.2452 15.4917 24.3562 13.6501 25.3831C13.1119 25.6843 12.6971 25.788 12.1688 25.3634C9.76927 23.4378 6.94507 22.9638 3.97769 23.0872C2.4471 23.1465 1.41024 24.1981 0.398074 25.1758C-0.248725 25.7979 0.101845 26.6718 0.0425961 27.4371C0.0228466 27.6741 0.067288 27.9111 0.0475384 28.1481C-0.00183562 28.7504 0.264768 29.2145 0.67951 29.6046C1.64724 30.523 2.5409 31.4956 3.84931 32.0239C4.67879 32.3547 5.50828 32.8633 6.04152 33.6829C5.7354 33.9495 5.46387 34.1273 5.26637 34.3692C4.56032 35.248 3.88882 36.3047 4.44181 37.3514C4.93061 38.2747 4.95532 39.0202 4.77263 39.983C4.59982 40.8915 4.76274 41.8691 4.81705 42.8171C4.82693 43.0195 4.96024 43.2466 5.09849 43.4145C6.29334 44.8957 7.54744 46.3078 9.57177 46.6386C9.87295 46.688 10.2038 46.7127 10.3223 47.004C10.189 47.7446 10.0013 48.4358 9.94208 49.132C9.84827 50.2972 10.3519 50.9095 11.5319 51.0033C12.628 51.0872 13.7192 51.1317 14.7857 50.6478C15.63 50.2627 16.4693 50.4059 17.1655 51.1119C17.6642 51.6155 17.679 52.0105 17.1556 52.4944C16.8149 52.8104 16.4496 53.1066 16.1287 53.4473C15.393 54.2225 15.3386 55.1458 15.6991 56.0888C16.0249 56.9331 17.2247 57.6638 18.2468 57.417C19.3873 57.1454 20.36 57.3627 21.4166 57.7132C22.4633 58.0588 23.6384 58.2514 24.6555 57.7972C25.7417 57.3182 26.9021 57.1553 27.9784 56.7159C28.2154 56.4097 28.6548 56.4937 28.9116 56.232H28.9214C29.0153 56.074 29.035 55.9357 28.9708 55.8123C28.9906 55.8321 29.0103 55.8469 29.03 55.8617C29.3609 56.0098 29.6818 55.9555 29.9928 55.8074L30.2002 55.8173L30.3385 55.6593C30.536 55.5556 30.6989 55.3877 30.926 55.3285H31.1383L31.2864 55.1754C31.4741 55.0569 31.6617 54.9483 31.8543 54.8446C32.0271 54.894 32.1554 54.8396 32.2344 54.6767C32.4122 54.5928 32.5751 54.4792 32.7084 54.336H32.7134C32.8812 54.1336 33.0689 53.9608 33.3404 53.9262L33.5182 53.9509L33.6515 53.8423C33.8144 53.6942 33.9428 53.4967 34.1847 53.4917H34.2143L34.2341 53.5164C34.2341 53.5164 34.2341 53.5016 34.239 53.4967H34.2489L34.239 53.4868C34.2588 53.2449 34.3822 53.1066 34.5649 53.0326C34.6291 53.0079 34.6982 52.9881 34.7772 52.9782L34.95 52.998L35.0735 52.8795C35.266 52.7017 35.4536 52.524 35.74 52.5141C35.898 52.5388 35.9918 52.4746 36.0264 52.3166C36.2041 52.2327 36.3473 52.1093 36.4559 51.9513L36.4855 51.9266C36.6633 51.8031 36.8015 51.6254 36.9941 51.5267C36.9941 51.5217 36.9941 51.5217 36.9941 51.5168C37.0879 51.3736 37.1866 51.2304 37.3348 51.1613C37.3496 51.1564 37.3644 51.1514 37.3792 51.1465C37.394 51.1415 37.4088 51.1415 37.4286 51.1366C37.4631 51.1317 37.5027 51.1317 37.5422 51.1317V51.1465L37.5619 51.1317H37.5471C37.5717 50.791 37.789 50.6478 38.105 50.6182C38.263 50.6429 38.3568 50.5737 38.3914 50.4207C38.5642 50.3367 38.7123 50.2182 38.8308 50.0602L38.8555 50.0454C39.0234 49.8924 39.1912 49.7393 39.3788 49.6159C40.4157 49.2061 40.7169 47.9026 41.813 47.5175C42.0944 47.8829 42.3265 48.189 42.5684 48.4951C42.8597 48.8703 42.998 49.3295 43.2152 49.7393C43.8225 50.8848 43.1461 51.8624 42.9239 52.8894C42.761 53.63 42.3166 54.0842 41.4822 54.2175C41.0625 54.2867 40.6675 54.6816 40.312 54.9927C38.9641 56.1727 38.6876 58.4193 39.6603 59.9054C40.0503 60.4979 40.396 61.1101 40.7366 61.7273C41.6007 63.2875 44.3014 64.5713 45.911 62.8481C46.2813 62.458 46.8146 62.2211 47.2589 61.8952C48.3995 61.0608 49.1796 59.9647 49.0759 58.518C49.0018 57.5305 49.066 56.4542 48.3205 55.5951C47.9946 55.2149 48.0045 54.7903 48.197 54.2817C48.4143 53.7041 48.3847 53.0375 48.5575 52.4401C49.2388 50.1195 48.5822 48.1544 47.2343 46.2387C46.6714 45.4388 45.7086 44.8513 45.5703 43.7601C47.175 43.1429 48.6858 42.5258 49.6437 41.0791C49.9004 40.694 50.2609 40.6199 50.6707 40.6742C51.0607 40.7236 51.4409 40.8273 51.831 40.8668C54.1812 41.1137 56.4079 40.5261 58.3681 39.3757C60.2443 38.2796 61.9773 36.912 63.1574 34.9419C65.0385 31.8017 66.7962 28.6418 66.2729 24.7956C66.1445 23.813 66.4309 23.1761 67.1567 22.5441C68.4256 21.4381 68.8601 19.9915 68.7663 18.3078C68.6873 16.8562 68.3614 15.533 67.5418 14.3233C67.1517 13.7407 66.8505 13.0939 66.4753 12.4126C67.7245 10.9807 68.8206 9.46001 69.6204 7.7418C70.1142 6.68026 70.1388 5.42615 69.5809 4.86329H69.5859ZM60.9997 13.8395C61.0392 13.7852 61.1232 13.7654 61.1923 13.721C61.686 13.8247 61.9921 14.1653 62.2242 14.585C62.2489 14.6344 62.2341 14.7282 62.1995 14.7776C62.16 14.8319 62.0761 14.8912 62.0168 14.8862C61.5033 14.8072 61.2219 14.4419 60.9849 14.0271C60.9553 13.9827 60.9701 13.8839 60.9997 13.8395ZM46.938 22.8601C47.1997 22.8552 47.2639 23.1267 47.2688 23.3736V25.2646H47.2836C47.2836 25.9707 47.3231 26.6817 47.2639 27.3828C47.2343 27.6938 46.9133 27.9753 46.5825 27.8963C45.7481 27.6988 44.9285 27.4568 44.1237 27.1705C43.7781 27.047 43.7386 26.6915 43.9558 26.3953C44.7409 25.314 45.5259 24.2376 46.3406 23.181C46.4689 23.0132 46.7306 22.865 46.938 22.8601ZM37.3496 13.4099C37.3496 13.4099 37.3446 13.4198 37.3397 13.4247C37.3298 13.4494 37.32 13.4791 37.32 13.5136C37.32 13.5383 37.3199 13.5581 37.3298 13.5877C37.3298 13.6074 37.3397 13.6272 37.3496 13.6469C37.3792 13.6617 37.4138 13.6716 37.4434 13.6765C37.473 13.6864 37.5026 13.6914 37.5323 13.6914C37.6705 13.716 37.8038 13.6963 37.9371 13.6371C37.9717 13.6124 38.0013 13.5877 38.0309 13.5581C38.0853 13.5186 38.1346 13.4692 38.1791 13.4198C38.3272 13.2717 38.4506 13.1038 38.5593 12.931C39.2159 11.9534 40.1639 11.593 41.2008 12.0719C42.2228 12.5409 42.993 13.3606 42.9437 14.6245C42.8992 15.7404 42.993 16.7822 43.7188 17.7203C45.2247 19.6755 45.0964 21.5023 43.4868 23.4378C42.2672 24.9042 40.791 26.3311 40.8156 28.4937C40.8403 28.6171 40.8749 28.7307 40.9243 28.8393C40.9489 28.8986 40.9835 28.9578 41.0181 29.0121C41.0971 29.1306 41.1958 29.2343 41.3192 29.3232C41.4131 29.3577 41.5118 29.3874 41.6056 29.4022C41.6402 29.412 41.6698 29.417 41.7044 29.417C41.7883 29.4318 41.8772 29.4367 41.966 29.4318C42.1783 29.417 42.3907 29.4071 42.6079 29.3775C43.9015 29.2985 45.0174 30.1033 46.2961 30.0934C46.4295 30.0835 46.5578 30.0638 46.6813 30.0342H46.6862C46.7504 30.0193 46.8047 30.0045 46.864 29.9798C46.9775 29.9502 47.0861 29.9107 47.1948 29.8712C47.3034 29.8219 47.412 29.7725 47.5206 29.7231H47.5256C47.807 29.5848 48.0835 29.4515 48.36 29.3084C48.4587 29.259 48.5575 29.2096 48.6562 29.1602C48.6809 29.1504 48.7007 29.1355 48.7253 29.1257C49.1598 28.8986 49.6141 28.7011 49.8609 28.2369C49.8708 28.2221 49.8807 28.2123 49.8856 28.1974V28.1876C49.8906 28.0296 49.8609 27.8814 49.8116 27.7333C49.7622 27.5803 49.6931 27.4272 49.6338 27.2791C49.5548 27.0816 49.4857 26.8841 49.4857 26.6668C49.387 25.6744 49.4511 24.6721 49.4363 23.6748C49.4363 23.5316 49.4363 23.3835 49.4314 23.2403C49.4314 23.0922 49.4314 22.949 49.4363 22.8058C49.4314 22.8058 49.4314 22.8009 49.4363 22.8009C49.4314 22.6429 49.4413 22.4898 49.4512 22.3367C49.466 22.1886 49.4857 22.0454 49.5153 21.9023C49.5499 21.7344 49.5943 21.5714 49.6635 21.4085C50.0881 19.5422 51.4755 18.3819 52.7888 17.1722C52.8432 17.0784 52.9024 16.9895 52.9616 16.9007C53.016 16.8167 53.0752 16.7328 53.1344 16.6538C53.1739 16.5945 53.2184 16.5402 53.2628 16.4859C54.4873 14.9504 56.166 14.5554 58.1903 14.9948C58.4026 15.0393 58.6001 15.0936 58.7878 15.1627H58.7927C59.2766 15.3405 59.6913 15.5972 60.0567 15.9033C60.5159 16.2786 60.8911 16.7279 61.2515 17.2216L61.2614 17.2315C61.4836 17.5327 61.691 17.8388 61.9033 18.1548C61.9378 18.2091 61.9773 18.2683 62.0168 18.3276C62.2143 18.6238 62.2538 18.9645 62.2982 19.3003C62.318 19.4385 62.3328 19.5718 62.3624 19.7051C62.3723 19.7496 62.3822 19.794 62.3921 19.8384C62.5056 20.0853 62.6587 20.3025 62.8562 20.4803C62.8907 20.5198 62.9302 20.5543 62.9747 20.5889C62.9845 20.5988 62.9944 20.6037 63.0043 20.6136C63.2512 20.7963 63.5079 20.9246 63.7795 20.974C63.8733 20.9888 63.9671 20.9938 64.0609 20.9888C64.2436 20.9888 64.4263 20.9444 64.6139 20.8605C66.4852 19.399 66.1642 17.5672 65.3693 15.7552C64.8361 14.5307 63.9967 13.4642 63.1277 12.4471C62.5797 11.8102 62.1205 11.0795 62.7673 10.3438C64.0362 8.91196 65.1669 7.27275 67.2801 6.47783C67.3937 7.98373 66.5987 8.84283 65.8236 9.68219C63.7548 11.9287 63.6363 11.988 65.315 14.6295C67.048 17.3401 67.0233 19.7545 64.7719 22.0948C64.6238 22.2627 64.4806 22.4256 64.3473 22.6034C64.2782 22.6922 64.209 22.7811 64.1449 22.87C64.0165 23.0527 63.9079 23.2452 63.8289 23.4575C63.814 23.5217 63.8091 23.5908 63.8091 23.66C63.8042 23.7143 63.8091 23.7637 63.819 23.818C63.8239 23.9217 63.8437 24.0155 63.8733 24.1093C63.977 24.3166 64.0609 24.5289 64.13 24.7363C64.4757 25.7584 64.446 26.7903 64.0905 27.8271C64.0658 27.9111 64.0362 27.995 64.0017 28.0789C63.8338 28.4098 63.6807 28.7554 63.5869 29.1059C63.5869 29.1059 63.5919 29.1109 63.5869 29.1158C63.4981 29.4664 63.4783 29.8317 63.5721 30.2218C63.6017 30.2711 63.6215 30.3008 63.6264 30.3156C63.6462 30.3452 63.6313 30.3304 63.6264 30.3255C63.6215 30.3255 63.6166 30.3205 63.6166 30.3205C63.6166 30.3205 63.6182 30.3255 63.6215 30.3353C63.6215 30.3353 63.6511 30.3798 63.6807 30.4242C63.6067 30.4637 63.9128 30.5575 63.8091 30.597C63.7893 30.602 63.7647 30.6069 63.74 30.6069C63.7153 30.6069 63.6857 30.6069 63.6511 30.6069C63.6116 30.5871 63.577 30.5723 63.5375 30.5625C63.5227 30.5526 63.503 30.5476 63.4832 30.5427C63.3549 30.5081 63.2265 30.5131 63.0932 30.5625C62.8759 30.7106 62.7476 30.9081 62.6686 31.1303C62.634 31.2241 62.6093 31.3228 62.5896 31.4216C62.5797 31.4759 62.5698 31.5203 62.5649 31.5697C62.5303 31.8462 62.5056 32.1276 62.4809 32.4041C62.4167 32.7843 62.2143 33.0904 61.9625 33.3669C61.2713 34.1371 60.6245 34.9469 59.8444 35.6332C59.6123 35.8405 59.3605 36.038 59.0988 36.2158C59.0939 36.2158 59.0939 36.2207 59.0889 36.2207C58.926 36.3343 58.7631 36.4478 58.61 36.5713C58.457 36.6898 58.3138 36.8132 58.1755 36.9515C57.9731 37.1341 57.7559 37.2921 57.509 37.4156C57.4942 37.4205 57.4794 37.4254 57.4645 37.4254C57.3312 37.4649 57.1979 37.4847 57.0597 37.4995C56.9362 37.5094 56.8177 37.5143 56.6943 37.5291C56.6252 37.539 56.5561 37.5538 56.4919 37.5785C56.4672 37.5834 56.4425 37.5933 56.4178 37.5983C56.3339 37.6378 56.2549 37.6772 56.1759 37.7316C55.8698 37.9686 55.5439 38.1611 55.1785 38.2845C54.0429 38.5956 52.9073 38.9659 51.6977 38.7042H51.6828C51.5446 38.6845 51.4113 38.6647 51.2731 38.645C50.9867 38.6055 50.7003 38.5709 50.4139 38.5413C50.3645 38.5364 50.3102 38.5265 50.2609 38.5166C50.1473 38.5067 50.0337 38.4919 49.9202 38.4821C49.7424 38.4722 49.5647 38.4722 49.3919 38.5117C49.3623 38.5117 49.3376 38.5215 49.3129 38.5314C49.2487 38.5462 49.1895 38.566 49.1253 38.5956C47.6885 40.2595 46.148 41.7605 43.8472 42.032C43.7633 42.0419 43.6793 42.0518 43.5905 42.0567C43.5806 42.0617 43.5707 42.0617 43.5608 42.0617C43.4522 42.0913 43.3436 42.1308 43.2448 42.1752C43.1263 42.2246 43.0128 42.2838 42.9042 42.353C42.7313 42.4567 42.5684 42.585 42.4154 42.7282C41.1711 44.6094 39.5714 46.2288 38.3815 48.1544C38.2827 48.4161 38.1544 48.6531 37.9964 48.8703C37.8334 49.0925 37.6409 49.2851 37.4088 49.448C37.4039 49.4529 37.3989 49.4529 37.3989 49.4579C37.3841 49.4579 37.3792 49.4678 37.3644 49.4776C37.2163 49.5764 37.0731 49.6801 36.9299 49.7986C36.7916 49.9072 36.6633 50.0158 36.5398 50.1392C36.4806 50.2034 36.4214 50.2577 36.3621 50.317C36.2436 50.4306 36.13 50.5342 36.0115 50.6478C35.893 50.7416 35.7696 50.8305 35.6462 50.9193C35.6116 50.9391 35.5721 50.9588 35.5376 50.9835C35.4536 51.028 35.3796 51.0724 35.3006 51.1169C35.2857 51.1267 35.2709 51.1366 35.2611 51.1465C35.1278 51.2107 34.9994 51.2847 34.8858 51.3835C34.7673 51.4674 34.6488 51.5563 34.5402 51.655C34.4217 51.734 34.2983 51.813 34.1748 51.897C34.0465 51.9661 33.9131 52.0303 33.7848 52.1043C33.6515 52.1685 33.5182 52.2376 33.3898 52.3216C33.1824 52.4302 32.9701 52.5289 32.7627 52.6376C32.6195 52.7116 32.4764 52.7956 32.348 52.8992C32.2147 52.998 32.0814 53.1017 31.953 53.2103C31.8592 53.2745 31.7604 53.3436 31.6666 53.4078C31.6173 53.4424 31.5728 53.472 31.5235 53.5066C31.2963 53.6448 31.0544 53.7386 30.8075 53.8225C30.8026 53.8225 30.7976 53.8275 30.7927 53.8275C30.694 53.867 30.5952 53.9015 30.4965 53.9361C30.3089 53.9954 30.1163 54.0595 29.9385 54.1385C29.6423 54.2472 29.351 54.3607 29.0745 54.5138C28.9313 54.6076 28.8178 54.7261 28.7388 54.8742C28.719 54.9137 28.6993 54.9581 28.6845 55.0026C28.6845 55.0174 28.6795 55.0322 28.6795 55.0421C28.645 55.2741 28.6894 55.4667 28.8029 55.6346C28.7931 55.6247 28.7832 55.6148 28.7733 55.6099C28.5956 55.4618 28.4079 55.363 28.2055 55.2988C28.0179 55.2297 27.8204 55.2001 27.618 55.1803C27.4353 55.1606 27.2526 55.1556 27.065 55.1507C25.1838 55.126 23.3866 56.074 21.4758 55.6148C21.3376 55.5901 21.2092 55.5408 21.0858 55.4766C20.9772 55.4272 20.8735 55.363 20.7698 55.2988C20.7056 55.2593 20.6414 55.2198 20.5723 55.1754C20.5526 55.1655 20.5279 55.1556 20.5081 55.1408C20.4538 55.1112 20.3995 55.0816 20.3402 55.0569C19.886 54.8989 19.4564 55.0668 19.0121 55.1359C17.521 55.3581 17.8765 54.7063 18.4739 53.9509C18.6862 53.7386 18.9232 53.5559 19.1651 53.388C19.3281 53.2844 19.491 53.1757 19.6441 53.0572C19.7873 52.9239 19.9156 52.7808 20.0193 52.6129C20.039 52.5586 20.0588 52.4993 20.0786 52.4401C20.0884 52.4104 20.0983 52.3759 20.1131 52.3413V52.3018C20.1082 52.2278 20.1032 52.1537 20.0983 52.0846V52.055C20.0884 52.0303 20.0786 52.0056 20.0687 51.9858C19.9996 51.8328 19.9058 51.6995 19.7971 51.576C19.6243 51.3588 19.4811 51.1119 19.3528 50.865C18.9874 49.9516 18.1234 49.5714 17.3926 49.053C17.3581 49.0283 17.3235 49.0036 17.2889 48.974C17.1704 48.8901 17.0569 48.8012 16.9384 48.7173C16.8841 48.6728 16.8298 48.6333 16.7705 48.5938C16.6816 48.5346 16.5928 48.4803 16.494 48.4358C16.3459 48.3568 16.1928 48.3025 16.02 48.2778C14.8597 48.0853 13.8772 49.2801 12.5885 48.7173C12.5885 48.0902 13.1909 47.8285 13.3834 47.3496C13.3982 47.2805 13.4032 47.2212 13.4032 47.162C13.4032 47.1324 13.4032 47.1077 13.3983 47.083C13.3785 46.6781 13.0872 46.4806 12.7761 46.3029C12.6231 46.214 12.47 46.1301 12.3367 46.0264C12.3219 46.0116 12.3022 45.9968 12.2873 45.9819C12.1688 45.8832 12.0602 45.7795 11.9565 45.666C11.8973 45.6116 11.8479 45.5524 11.7985 45.4981C11.7689 45.4685 11.7393 45.4388 11.7146 45.4092C11.6257 45.3105 11.527 45.2216 11.4184 45.1475C11.4134 45.1426 11.4085 45.1327 11.4036 45.1327C11.3986 45.1278 11.3937 45.1278 11.3887 45.1278C11.3887 45.1278 11.3871 45.1278 11.3838 45.1278C11.3443 45.0932 11.3048 45.0685 11.2653 45.0438C11.2554 45.0389 11.2406 45.034 11.2307 45.029C11.0826 44.9648 10.9444 44.9253 10.7913 44.8908H10.7716C10.2877 44.792 9.78408 44.7871 9.3249 44.5995C9.15209 44.5254 8.98421 44.4415 8.81633 44.3625C8.67315 44.2687 8.53491 44.1749 8.39667 44.0811C8.37692 44.0662 8.36211 44.0564 8.34236 44.0416C8.2683 43.9774 8.19424 43.9082 8.12017 43.8391C8.04611 43.7749 7.97699 43.7108 7.90293 43.6466C7.44869 43.2664 7.14749 42.8467 6.96481 42.3974C6.90062 42.2443 6.85125 42.0814 6.81175 41.9185C6.64882 41.2075 6.71797 40.4372 6.87103 39.6423C6.93028 39.4399 6.97964 39.2325 7.0142 39.0252C7.02901 38.9462 7.04383 38.8672 7.04877 38.7882C7.06852 38.64 7.07839 38.4919 7.07345 38.3438C7.07345 38.329 7.07344 38.3142 7.06851 38.2944C7.06851 38.2204 7.06358 38.1463 7.05371 38.0722C7.05371 38.0624 7.0537 38.0574 7.04877 38.0525C7.04383 38.0475 7.04877 38.0476 7.04877 38.0476C7.01914 37.8501 6.97964 37.6476 6.92039 37.46C6.91545 37.4452 6.9105 37.4304 6.90556 37.4156C6.88581 37.3613 6.87102 37.3069 6.86114 37.2576C6.51059 35.9294 7.53262 35.1345 8.17448 34.1914C8.20904 34.1125 8.23869 34.0285 8.25844 33.9396C8.27325 33.8903 8.28312 33.8409 8.28806 33.7915C8.29793 33.7175 8.30286 33.6385 8.30286 33.5644C8.28804 33.4953 8.27324 33.436 8.25349 33.3718C8.24856 33.3274 8.23375 33.2879 8.22387 33.2435C8.17943 33.1348 8.12511 33.0361 8.06093 32.9373V32.9275C8.06093 32.9275 8.04611 32.883 8.02636 32.8633C8.02636 32.8583 8.02636 32.8534 8.02636 32.8534C7.85355 32.572 7.65113 32.335 7.42401 32.098C7.34995 32.019 7.27094 31.94 7.19688 31.861C7.06357 31.7326 6.93521 31.6042 6.80684 31.4709C5.91317 30.6711 4.76768 30.286 3.80489 29.5997C2.79766 28.8837 1.84966 28.0839 2.27428 26.7014C2.69396 25.3486 3.92338 25.1659 5.14785 25.077C7.5573 24.9091 9.6557 25.6102 11.4184 27.2791C11.5418 27.368 11.6603 27.4716 11.7837 27.5655C11.843 27.6099 11.8973 27.6543 11.9615 27.7037C12.08 27.7778 12.2034 27.8518 12.3466 27.8963C12.3466 27.8963 12.3565 27.9061 12.3663 27.9061C12.4404 27.9308 12.5243 27.9506 12.6083 27.9604C15.4325 26.9532 17.9407 25.2646 20.7352 24.1784C21.9251 23.7192 22.3251 22.7515 21.9795 21.4776C21.6092 20.11 21.145 18.7571 21.0611 17.3302C20.9278 15.1084 21.7326 13.9185 23.8063 13.2075C27.6427 11.8843 31.1927 14.2147 31.5876 18.298C31.7308 19.7545 31.1877 21.4678 32.427 22.5836C34.4217 24.366 36.0807 26.5039 38.3222 28.0098C38.5 28.0592 38.6679 28.0789 38.816 28.0641C38.8752 28.0641 38.9295 28.0543 38.9789 28.0444C39.1962 27.9999 39.3838 27.9012 39.5566 27.7728C39.6504 27.6988 39.7343 27.6198 39.8183 27.5358C39.9368 27.4124 40.0503 27.2741 40.1639 27.1359C41.4081 25.4325 42.4697 23.6106 43.5164 21.7936C44.6668 19.7989 43.5016 17.8141 41.2156 17.6808C40.6725 17.6512 40.1244 17.7252 39.5813 17.5919C39.2999 17.4882 39.0579 17.3253 38.8456 17.1179C38.7518 17.0044 38.6481 16.8908 38.5395 16.7871C38.5099 16.7575 38.4802 16.7328 38.4506 16.7032H38.4457C38.263 16.5452 38.0704 16.402 37.8927 16.2391C37.8088 16.165 37.7298 16.0909 37.6606 16.007C37.636 15.9872 37.6113 15.9626 37.5915 15.9379C37.1076 15.3454 37.1768 14.6591 37.2558 13.9679C37.2558 13.8543 37.2163 13.7111 37.2163 13.6025C37.2163 13.563 37.2261 13.5235 37.2459 13.4939H37.2508C37.2607 13.4692 37.2706 13.4593 37.2903 13.4494C37.3101 13.4346 37.3298 13.4247 37.3446 13.4149C37.3496 13.4099 37.3545 13.405 37.3595 13.405L37.3496 13.4099ZM8.21893 33.2484C8.17449 33.1398 8.12017 33.041 8.05599 32.9423C8.04611 33.1151 8.05598 33.2928 8.08067 33.4755C8.13498 33.4459 8.19424 33.4113 8.24855 33.3768C8.24361 33.3323 8.2288 33.2928 8.21893 33.2484ZM37.3644 49.4826C37.2163 49.5813 37.0731 49.685 36.9299 49.8035C36.7916 49.9121 36.6633 50.0207 36.5398 50.1442C36.4806 50.2084 36.4214 50.2627 36.3621 50.3219C36.2436 50.4355 36.13 50.5392 36.0115 50.6527C35.893 50.7465 35.7696 50.8354 35.6462 50.9243C35.6116 50.944 35.5721 50.9638 35.5376 50.9885C35.6067 50.9589 35.6758 50.9391 35.7548 50.9243C35.7993 50.9095 35.8536 50.8996 35.9079 50.8947H35.9177C35.972 50.7367 36.0658 50.633 36.1893 50.5688C36.2288 50.549 36.2683 50.5342 36.3127 50.5244C36.3571 50.5095 36.4016 50.4997 36.446 50.4947C36.451 50.475 36.4559 50.4602 36.4609 50.4454C36.4658 50.4256 36.4658 50.4108 36.4757 50.4009C36.4954 50.3417 36.5201 50.2923 36.5497 50.2479C36.5744 50.2133 36.5991 50.1886 36.6287 50.1639C36.688 50.1096 36.762 50.0701 36.8509 50.0504C36.8707 50.0454 36.8904 50.0405 36.9151 50.0356C36.925 50.0356 36.9348 50.0306 36.9447 50.0306H36.9497C37.0287 49.9171 37.1175 49.8084 37.2064 49.6998C37.2656 49.6208 37.3298 49.5418 37.3989 49.4628C37.3841 49.4628 37.3792 49.4727 37.3644 49.4826ZM8.21893 33.2484C8.17449 33.1398 8.12017 33.041 8.05599 32.9423C8.04611 33.1151 8.05598 33.2928 8.08067 33.4755C8.13498 33.4459 8.19424 33.4113 8.24855 33.3768C8.24361 33.3323 8.2288 33.2928 8.21893 33.2484ZM37.3644 49.4826C37.2163 49.5813 37.0731 49.685 36.9299 49.8035C36.7916 49.9121 36.6633 50.0207 36.5398 50.1442C36.4806 50.2084 36.4214 50.2627 36.3621 50.3219C36.2436 50.4355 36.13 50.5392 36.0115 50.6527C35.893 50.7465 35.7696 50.8354 35.6462 50.9243C35.6116 50.944 35.5721 50.9638 35.5376 50.9885C35.6067 50.9589 35.6758 50.9391 35.7548 50.9243C35.8042 50.9095 35.8536 50.9045 35.9079 50.8947H35.9177C35.972 50.7367 36.0658 50.633 36.1893 50.5688C36.2288 50.549 36.2683 50.5342 36.3127 50.5244C36.3571 50.5095 36.4016 50.4997 36.446 50.4947C36.451 50.475 36.4559 50.4602 36.4609 50.4454L36.4757 50.4009C36.4954 50.3417 36.5201 50.2923 36.5497 50.2479C36.5744 50.2133 36.5991 50.1886 36.6287 50.1639C36.688 50.1096 36.762 50.0701 36.8509 50.0504C36.8707 50.0454 36.8904 50.0405 36.9151 50.0356C36.925 50.0356 36.9348 50.0306 36.9447 50.0306H36.9497C37.0287 49.9171 37.1175 49.8084 37.2064 49.6998C37.2656 49.6208 37.3298 49.5418 37.3989 49.4628C37.3841 49.4628 37.3792 49.4727 37.3644 49.4826Z" fill="#050606"/>
<path d="M28.9117 56.2312C28.6648 56.5077 28.3982 56.7546 27.9785 56.7151C28.1661 56.3102 28.4969 56.1868 28.9117 56.2312Z" fill="#131515"/>
<path d="M29.9924 55.8082C29.7257 56.1785 29.3456 56.2674 28.921 56.2328C28.916 56.0748 28.916 55.9169 28.916 55.7638V55.7539H28.9308C29.2863 55.7737 29.6369 55.7934 29.9924 55.8082Z" fill="#131515"/>
<path d="M39.3847 49.6152C39.3304 49.9016 39.1526 50.0448 38.8613 50.0448C38.9551 49.8029 39.1279 49.6547 39.3847 49.6152Z" fill="#131515"/>
<path d="M38.8359 50.0605C38.7816 50.2926 38.6582 50.4407 38.3965 50.421C38.4508 50.1889 38.6039 50.0754 38.8359 50.0605Z" fill="#131515"/>
<path d="M38.1097 50.6172C38.0307 50.8986 37.8579 51.0912 37.5617 51.1406C37.5568 51.1455 37.5518 51.1455 37.5469 51.1455C37.5469 51.1406 37.5469 51.1356 37.5518 51.1307C37.6012 50.8147 37.7938 50.6468 38.1097 50.6172Z" fill="#131515"/>
<path d="M37.5669 51.1309C37.5669 51.1309 37.5669 51.1358 37.562 51.1407C37.483 51.4222 37.2756 51.5209 37.004 51.5258H36.9941C36.9941 51.5258 36.9941 51.5209 36.9941 51.516C37.0633 51.3333 37.1768 51.2099 37.3348 51.1605C37.3496 51.1555 37.3645 51.1506 37.3793 51.1457C37.3941 51.1407 37.4089 51.1407 37.4286 51.1358C37.4632 51.1308 37.5027 51.1309 37.5422 51.1309H37.562H37.5669Z" fill="#131515"/>
<path d="M37.0097 51.5176C37.0097 51.5176 37.0097 51.5225 37.0047 51.5274C36.9307 51.7891 36.7628 51.9274 36.4863 51.9274C36.5801 51.6953 36.7431 51.5521 36.9998 51.5176H37.0097Z" fill="#131515"/>
<path d="M36.4569 51.9512C36.4174 52.1931 36.289 52.3363 36.0273 52.3165C36.0767 52.0845 36.2298 51.9709 36.4569 51.9512Z" fill="#131515"/>
<path d="M35.7408 52.5136C35.6173 52.8098 35.3951 52.9333 35.0742 52.8789C35.2273 52.6321 35.4396 52.4938 35.7408 52.5136Z" fill="#131515"/>
<path d="M34.7775 52.9785C34.6935 53.255 34.5355 53.4525 34.2442 53.5117C34.2442 53.5117 34.241 53.5134 34.2344 53.5167C34.2344 53.5167 34.2344 53.5019 34.2393 53.4969V53.4871C34.2739 53.2599 34.3825 53.1118 34.5652 53.0328C34.6294 53.0081 34.6985 52.9884 34.7775 52.9785Z" fill="#131515"/>
<path d="M34.2497 53.4971C34.2497 53.4971 34.2448 53.507 34.2448 53.5119C34.1559 53.8082 33.9535 53.9168 33.6523 53.8427C33.7758 53.6304 33.9387 53.4922 34.1856 53.4922H34.2152C34.2152 53.4922 34.23 53.4971 34.2399 53.4971H34.2497Z" fill="#131515"/>
<path d="M33.34 53.9258C33.2264 54.2072 33.019 54.3504 32.7129 54.3356C32.8413 54.0739 33.0437 53.9258 33.34 53.9258Z" fill="#131515"/>
<path d="M32.7083 54.3361C32.6392 54.5681 32.4961 54.7064 32.2344 54.6768C32.3084 54.4447 32.4664 54.3312 32.7083 54.3361Z" fill="#131515"/>
<path d="M31.8549 54.8451C31.7364 55.0821 31.5537 55.1957 31.2871 55.1759C31.4007 54.934 31.5883 54.8204 31.8549 54.8451Z" fill="#131515"/>
<path d="M30.9254 55.3283C30.8069 55.5752 30.6094 55.6838 30.3379 55.6591C30.4613 55.427 30.6588 55.3085 30.9254 55.3283Z" fill="#131515"/>
<path d="M26.8229 55.6741C26.2995 55.7728 25.7515 55.8025 25.2577 55.9802C23.8407 56.474 22.4187 56.5184 20.977 56.1432C20.2611 54.9483 21.3917 54.7508 21.999 54.3509C23.4358 53.4078 25.1886 53.0573 26.5365 51.9365C26.7142 51.8032 26.9118 51.6946 27.1142 51.5958C29.7014 50.6231 32.1503 49.3839 34.4067 47.7841C34.5647 47.6607 34.7375 47.5471 34.9103 47.4336C35.2411 47.2114 35.5374 46.9398 35.8139 46.6485C35.9571 46.5004 36.1151 46.3671 36.278 46.2387C37.621 45.3204 38.5245 44.0317 39.3145 42.6492C39.9119 41.3507 40.5094 40.062 39.6108 38.6549C39.4972 38.4722 39.3935 38.2846 39.2898 38.1019C38.0851 36.1171 36.5594 34.8877 34.0809 35.8406C33.6957 35.9196 33.3155 35.9986 32.9551 36.1714C32.6194 36.3541 32.2836 36.5516 31.8985 36.6157C31.7059 36.6256 31.5233 36.5861 31.3455 36.5121C31.2023 36.3886 31.1135 36.2306 31.0888 36.0381C31.1085 35.7665 31.2024 35.5098 31.3011 35.258C31.3505 35.0901 31.4048 34.9222 31.4443 34.7494C31.1925 34.2162 30.7185 33.7471 30.9456 33.0756C31.9429 28.7801 29.2718 25.9954 24.8924 26.7163C23.2087 26.9927 21.7917 27.7975 20.3598 28.6517C19.7574 29.0121 18.9576 29.8466 18.3207 28.8739C17.6541 27.8568 18.375 27.0619 19.239 26.5434C21.0066 25.477 22.9371 24.845 24.9565 24.4796C22.9717 24.7709 21.1103 25.4276 19.3625 26.4299C18.5725 26.8841 17.7775 27.5359 18.0738 28.474C18.6416 30.286 18.0392 32.0635 18.1874 33.8508C18.1775 34.5272 18.5478 35.2382 17.9899 35.8554C16.6469 36.2899 15.6248 35.2431 14.4053 35.0456C11.3194 34.547 8.95936 35.964 6.63384 37.6131C6.28329 37.5687 6.11047 37.3465 6.04135 37.0157C5.92779 36.4577 6.04137 35.9443 6.33761 35.4653C6.75729 34.784 7.45839 34.4186 8.05582 33.9347C8.60387 33.6237 9.11242 33.2287 9.72466 33.0411C9.95178 33.0065 10.1641 32.9226 10.3863 32.8682C9.96661 32.8831 9.58641 33.0608 9.19636 33.1941C8.83593 33.3472 8.54461 33.7619 8.07556 33.4854C7.66081 31.071 9.19637 29.0665 12.3316 27.9358C14.3461 26.2373 16.7654 25.2795 19.1304 24.2229C19.7031 23.9661 20.3055 23.7736 20.8684 23.4921C21.5547 23.1514 21.7374 22.7021 21.5201 21.9319C21.2189 20.8753 20.8881 19.8236 20.5326 18.7818C20.271 18.0165 20.2364 17.2364 20.2956 16.4514C20.4191 14.8319 21.1498 13.7111 22.6853 12.9705C24.9467 11.8843 27.1438 12.1213 29.3064 13.0298C30.6543 13.5976 31.5776 14.7332 31.8985 16.1897C32.1997 17.5672 32.4861 18.9695 32.1799 20.3964C31.9775 21.3493 32.3429 21.9467 33.1082 22.5935C35.0189 24.213 36.9199 25.872 38.5541 27.7877C43.1114 30.6217 44.8345 34.7642 44.1729 39.9979C44.1532 41.2174 43.3039 42.0222 42.6917 42.9504C41.9264 44.4958 40.9685 45.903 39.7786 47.1571C39.4083 47.5471 39.1121 48.0113 38.7862 48.4457C38.3319 49.1715 37.6111 49.5912 36.9297 50.0504L36.9445 50.0356C36.8112 50.2331 36.6532 50.4059 36.436 50.5194L36.4607 50.4948C36.3274 50.712 36.1743 50.9046 35.8978 50.9391L35.9472 50.8996C35.7991 51.3391 35.2955 51.2206 35.0338 51.4773L35.0535 51.4674C34.9054 51.6649 34.7523 51.8575 34.4857 51.897L34.5301 51.8526C34.3771 52.2821 33.8784 52.1685 33.6167 52.4253L33.6365 52.4154C33.4044 52.7265 32.9452 52.6327 32.7033 52.924C32.5256 53.082 32.3774 53.2844 32.1158 53.3091L32.1553 53.2696C31.7158 53.9855 30.9357 54.0349 30.2395 54.2521L30.2791 54.2274C30.047 54.6669 29.5681 54.5879 29.1978 54.7409H29.0299L28.9114 54.8545C28.3288 55.4272 27.5487 55.4964 26.813 55.684L26.8229 55.6741Z" fill="#48C9F9"/>
<path d="M19.0525 52.9773C19.2006 52.9773 19.324 52.9229 19.4228 52.8193C19.6104 52.7156 19.7832 52.5971 19.9412 52.4588H19.9363C20.9435 51.4516 22.3161 51.185 23.5702 50.6666C24.849 50.3604 25.9747 49.6643 27.1844 49.1903C28.0138 48.9631 28.636 48.3904 29.3173 47.9066C30.1468 47.4326 30.9763 46.9536 31.7613 46.4006C33.3907 45.581 34.7336 44.3812 35.9779 43.0876C37.0641 41.9619 37.7899 40.6486 36.6494 39.1229C35.5385 37.6318 34.1658 38.1107 32.8722 38.7921C30.7245 39.9228 28.71 41.2657 26.9523 42.9593C26.7943 43.1222 26.6264 43.2654 26.4437 43.3987C24.2762 44.8059 22.0346 46.1044 19.8029 47.4079C18.6624 48.0744 17.4774 48.6669 16.095 48.6323C14.8902 49.1212 13.7003 49.684 12.3574 49.6198C11.9871 49.6001 11.5575 49.6198 11.4094 49.1508C11.2514 48.6521 11.4242 48.2275 11.8438 47.951C12.2932 47.6597 12.782 47.4326 13.251 47.1808C14.9248 45.9267 16.9985 45.4329 18.7414 44.2973C22.3753 42.5692 25.7377 40.3671 29.1643 38.2737C30.1715 37.6565 31.1639 37.0492 32.2402 36.5456C36.3284 34.6398 37.0542 34.778 39.8192 38.2391L39.7945 38.1947C40.461 39.5377 40.3376 40.8757 39.7846 42.2088C38.8021 43.9517 37.7356 45.6255 36.0174 46.766L36.0371 46.7463C35.6964 47.0474 35.3804 47.3832 35.0496 47.6942L35.0793 47.6745C32.5513 49.4174 29.7567 50.6567 27.0066 51.9799L27.0461 51.9602C24.923 53.2439 22.6666 54.261 20.3954 55.2485C19.8029 55.4558 19.2253 55.7126 18.618 55.8558C18.2526 55.9397 17.8379 55.9002 17.4626 55.8212C16.8948 55.7076 16.6479 54.9177 17.0577 54.5029C17.5021 54.0585 18.0057 53.6734 18.4797 53.2587C18.6723 53.1649 18.8599 53.0661 19.0475 52.9624L19.0525 52.9773Z" fill="#DA94AC"/>
<path d="M48.8889 27.2005C48.8839 26.0008 48.8741 24.801 48.8691 23.6012C50.1183 21.3744 52.2512 21.4337 54.3496 21.5719C55.8309 21.6657 57.1985 22.2385 58.4625 23.0186C58.6551 23.1568 58.813 23.3296 58.9365 23.5321C59.0747 23.9073 59.0797 24.2924 58.9167 24.6528C58.3391 25.8971 58.8723 26.3661 60.0869 26.376C61.7952 26.3859 62.6939 27.1462 62.5062 28.9484C62.1754 32.0096 60.946 34.6461 58.7933 36.8532V36.8433C58.5859 36.9371 58.4575 37.1346 58.2847 37.2778C58.1267 37.4457 57.9737 37.6086 57.8157 37.7764C56.532 37.7073 56.9023 36.7396 56.9418 36.0484C57.2133 31.5158 55.1297 28.7608 50.7848 27.9165C50.1281 27.7881 49.3925 27.7782 48.8839 27.2055L48.8889 27.2005Z" fill="#88573D"/>
<path d="M19.9006 52.0357C19.7376 52.0012 19.5698 51.9715 19.4068 51.937C19.2686 51.7987 19.1402 51.6457 19.0267 51.4877C18.844 50.3965 17.9799 49.967 17.1258 49.5226C16.4049 48.4067 17.5109 48.4462 18.0145 48.1747C20.9473 46.5799 23.9196 45.0493 26.5315 42.9312L26.5118 42.941C28.9656 41.287 31.0542 39.0454 33.987 38.1518C35.6311 37.6481 37.0136 38.4282 37.379 40.0428C37.6505 41.2475 37.4629 42.2498 35.9471 42.4078C35.5966 42.3831 35.2559 42.309 34.9152 42.2251C34.6881 42.2054 34.4659 42.1856 34.2388 42.1708C31.4195 42.5263 28.9163 43.7755 28.0226 46.4417C27.1487 49.0535 25.6428 50.4656 23.179 51.1717C21.9891 51.0877 21.1843 52.4603 19.9006 52.0308V52.0357Z" fill="#A32122"/>
<path d="M42.1988 28.7809C43.7195 28.5834 45.0131 29.3833 46.4104 29.7338C49.8517 31.4521 51.0416 35.1403 49.3086 38.715C48.5236 40.5418 47.0572 41.5935 45.2748 42.3143C44.7415 42.5266 44.228 42.5513 43.6898 42.423C43.3393 41.628 43.9565 40.9269 43.8972 40.1616C44.0602 39.7271 44.075 39.2729 44.075 38.8187C44.075 37.7621 44.0898 36.7054 44.0602 35.6538C43.8478 33.9849 42.9443 32.6272 42.0507 31.2743C41.626 30.6275 40.9644 30.0844 41.7248 29.2697V29.25C41.868 29.0772 42.021 28.9241 42.1938 28.7908L42.1988 28.7809Z" fill="#88563D"/>
<path d="M8.93969 44.9013H8.71753L8.54965 44.7531C8.37684 44.6544 8.21392 44.531 8.07073 44.3927C7.85842 43.7854 8.30277 43.7212 8.7027 43.6175C8.90514 43.6175 9.10264 43.6422 9.30014 43.6867C9.863 43.8397 10.4259 43.8842 10.9887 43.6669C11.1566 43.583 11.3294 43.5089 11.4923 43.4201C11.917 43.1682 12.1737 42.8127 12.1638 42.2993C12.1885 41.2328 11.7096 40.3984 10.9887 39.6726C10.4703 39.2233 9.86795 39.2035 9.24584 39.3368C9.06809 39.4109 8.89526 39.4849 8.72738 39.5738C8.57926 39.6973 8.43114 39.8158 8.29783 39.9491C8.23858 40.0281 8.17934 40.1021 8.12009 40.1811C8.02628 40.3638 7.93247 40.5465 7.8436 40.7341C7.81891 40.8427 7.78436 40.9464 7.75967 41.055C7.54736 41.6031 7.60166 42.3289 6.59937 42.5017C6.36731 41.3612 6.28832 40.2601 6.63887 39.1344V39.1492C6.87587 38.9517 6.90551 38.6752 6.93019 38.3938C6.98451 38.2061 7.05362 38.0235 7.13756 37.8457C7.23137 37.663 7.33997 37.4952 7.45847 37.3273C7.51772 37.2384 7.57699 37.1545 7.63624 37.0656C7.76461 36.8829 7.91271 36.7249 8.07564 36.5768C10.2234 34.5377 12.8402 34.4044 15.4669 35.061C17.9455 35.6831 18.8046 37.5742 18.2418 40.3539C17.9356 41.0452 17.4567 41.6327 17.0716 42.2795C16.9679 42.4572 16.8396 42.6251 16.7112 42.7831C16.2964 43.2472 15.8224 43.6324 15.2744 43.9286C14.5436 44.3137 13.803 44.6791 13.013 44.9408C12.702 45.0593 12.3909 45.158 12.0601 45.2024C11.7096 45.2419 11.3886 45.0691 11.043 45.0741C10.3419 45.0099 9.62106 45.2222 8.94957 44.8865L8.93969 44.9013Z" fill="#FBFBFB"/>
<path d="M62.555 19.7441C62.713 19.9021 62.871 20.065 63.029 20.223C62.8611 22.3708 60.8121 23.9508 58.7532 23.5311L58.7729 23.5508C56.3042 21.724 53.6528 21.0673 50.6756 22.2177C49.7819 22.5634 48.9129 22.6177 49.2437 21.1661C49.461 20.6032 49.6634 20.0354 49.9053 19.4824C50.3152 18.5443 50.9323 17.8086 51.9346 17.4581C52.2259 17.3544 52.4876 17.2162 52.611 16.9051C52.695 16.8212 52.7789 16.7422 52.8579 16.6582C53.2825 16.4212 53.7516 16.3719 54.2206 16.3373C54.4626 16.3077 54.6996 16.3027 54.9415 16.3027C57.9434 16.4262 60.9158 16.6237 62.5599 19.7441H62.555Z" fill="#87563C"/>
<path d="M55.8836 38.6836C54.911 38.9354 53.9383 39.1873 52.9706 39.4391C52.4867 39.5674 52.0572 39.3946 51.6325 39.2021C51.4449 38.9503 51.1882 38.6787 51.2425 38.3677C51.8152 35.0102 50.5266 32.2453 48.5417 29.6877C48.3442 29.431 48.285 29.1248 48.3936 28.8039C48.838 28.6114 49.2823 28.4188 49.7218 28.2262C52.1707 27.4856 53.8346 27.9695 55.4393 30.1518C57.1427 32.4675 58.224 34.946 56.3873 37.7455C56.1009 37.9924 56.1947 38.4467 55.8836 38.6787V38.6836Z" fill="#88563C"/>
<path d="M64.3968 20.6734C65.8731 18.9897 65.725 17.2122 64.5795 15.4743C63.8932 14.4325 63.3205 13.3068 62.2984 12.4921C61.3504 11.7367 61.2862 10.9961 62.1157 10.0876C63.281 8.80878 64.5499 7.61887 65.7941 6.41414C66.0163 6.20184 66.3175 6.06358 66.594 5.91546C67.0136 5.69328 67.4975 5.39704 67.9122 5.74759C68.3862 6.15246 68.3072 6.75483 68.0752 7.27819C67.3691 8.88778 66.4754 10.3542 64.9202 11.3022C64.4067 11.6132 64.3771 12.0378 64.6585 12.5069C65.1819 13.3808 65.6904 14.2745 66.278 15.104C66.7519 15.7705 66.9544 16.5358 67.1667 17.2764C67.458 18.2837 67.4234 19.3403 66.8211 20.2438C66.2632 21.0881 65.804 22.0262 64.9251 22.6187C64.7523 22.752 64.5993 22.9051 64.4511 23.068C64.2783 23.2112 64.1302 23.379 63.9771 23.542C63.1427 25.0825 61.8491 26.0156 60.1605 26.4156C59.6421 26.539 59.0545 26.8747 58.6694 26.2526C58.2498 25.5712 58.6842 24.9936 59.1632 24.5986C60.8468 23.2112 62.3379 21.5621 64.3968 20.6684V20.6734Z" fill="#623725"/>
<path d="M6.66368 32.0489C5.43427 31.2096 3.99255 30.7306 2.86682 29.7135C2.39283 29.284 1.94355 28.8791 1.6868 28.2817C1.09432 26.9289 1.59297 25.5859 2.89644 24.9292C3.6963 24.5243 4.53567 24.391 5.40959 24.4009C7.8536 24.4355 10.031 25.1909 11.843 26.8696C12.0751 27.1263 12.2035 27.4868 11.9516 27.709C10.3124 29.1408 8.76702 30.6566 7.2858 32.2415C7.15249 32.3847 6.84637 32.2119 6.66862 32.0489H6.66368Z" fill="#47C9F7"/>
<path d="M46.8254 7.22909C48.6719 7.45127 50.1581 8.46344 51.6195 9.51511C52.8983 10.4335 54.1673 11.3814 55.1251 12.6602C55.3868 13.0108 55.4065 13.386 55.0214 13.6971C54.5771 14.0526 53.9994 14.1266 53.7377 13.7958C51.2345 10.6705 47.7536 9.01642 44.2332 7.41177C44.09 7.34758 43.937 7.30315 43.7987 7.23403C43.1964 6.92791 43.0828 6.31074 43.6111 5.91081C45.3738 4.57771 47.1611 3.28904 49.3088 2.62743C50.2815 2.32625 51.1999 1.81769 52.2417 1.76338C52.6317 1.74363 53.0415 1.72882 53.4168 1.81276C53.7426 1.88682 53.9451 2.16825 53.7871 2.53362C53.6636 2.81998 53.56 3.16068 53.3378 3.3483C51.6097 4.82458 50.01 6.53786 47.482 6.58723C47.166 6.59217 46.8895 6.78472 46.8204 7.22909H46.8254Z" fill="#613625"/>
<path d="M37.9328 13.1041C38.0365 12.1216 38.6191 11.5044 39.5276 11.2773C40.5644 11.0205 41.5371 11.1785 42.3666 11.9784C43.3442 12.9115 43.9712 13.9928 43.5713 15.3309C43.3541 16.0616 43.5466 16.4763 43.9515 17.0244C44.46 17.7156 44.86 18.4957 45.2155 19.2758C45.7783 20.5102 45.7438 21.6409 44.7316 22.7468C43.675 23.9022 42.7023 25.1415 41.9321 26.5289C41.542 27.23 41.2408 27.941 41.1668 28.7408C40.9989 29.1605 40.6336 29.4568 40.2781 29.1655C39.5523 28.5631 39.3054 27.7632 39.7893 26.8548C40.8212 25.176 41.8383 23.4924 42.885 21.8235C43.6898 20.5398 43.512 19.2709 42.3616 18.3032C42.0802 18.0662 41.8037 18.1205 41.4828 18.1896C40.5595 18.3871 39.6165 18.6439 38.8067 17.8687C38.6833 17.6811 38.5253 17.5181 38.4364 17.3058C38.4512 17.1725 38.4463 17.0392 38.4265 16.9059C38.4265 15.7654 39.0042 15.1778 40.1299 15.1926C41.2507 15.2074 41.2507 15.2321 41.6408 14.1953C41.8827 13.9879 41.5025 13.9731 41.4877 14.0323C41.3248 14.7483 40.7619 14.9507 40.0904 14.9852C38.7573 15.0544 38.1155 14.3384 37.918 13.1041H37.9328Z" fill="#85553B"/>
<path d="M44.964 45.8388C47.1266 48.2927 47.6252 51.0626 46.4403 54.0942C46.0601 55.0718 46.1737 55.7828 46.8649 56.6122C47.724 57.6491 47.8573 58.8736 46.9241 60.0289C46.7563 60.1474 46.6032 60.1277 46.4649 59.9746C46.4501 59.8364 46.4255 59.6981 46.3958 59.5648C46.1243 59.2686 45.6355 59.2537 45.4281 58.9131C44.5492 57.4467 43.9518 56.5431 43.705 59.234C43.6111 60.2363 42.436 59.7228 41.7004 59.6142C40.9844 59.2537 40.7178 58.6514 40.7129 57.8762C40.7129 57.1949 41.0289 56.6666 41.493 56.2222C41.7152 56.0099 41.9966 55.8519 42.2435 55.6643C42.8261 55.215 43.8136 55.526 44.1296 54.504C44.6628 52.7759 45.4084 51.0972 44.9344 49.2308C44.8406 48.8704 44.5789 48.5396 44.3567 48.2236C44.0407 47.7743 43.6408 47.3842 43.5173 46.8214C43.2655 45.4241 43.9024 45.3253 44.959 45.8339L44.964 45.8388Z" fill="#85543B"/>
<path d="M64.3968 20.6719C63.4439 21.6001 62.4416 22.4691 61.3504 23.2442C60.4518 23.8812 59.6569 24.6563 59.0052 25.55C58.9311 25.6537 58.9163 25.8709 58.9755 25.9845C59.0298 26.0931 59.2372 26.2166 59.3409 26.1919C60.1013 26.0092 60.8517 25.8462 61.4985 25.3229C62.2836 24.681 63.1526 24.1379 63.9821 23.5504C64.6239 24.1231 65.1127 24.7502 64.9399 25.7031C64.7869 26.5671 65.2263 27.5348 64.4709 28.2952C63.6315 27.6879 64.145 26.5325 63.4093 25.5895C62.2342 27.4608 64.2981 29.0407 63.513 30.6454C63.1328 30.8577 63.0538 31.2231 63.0193 31.6131C61.3011 31.1095 62.5009 29.6727 62.1059 28.7445C62.0614 28.4433 62.0713 28.1125 61.9627 27.836C61.6121 26.9621 61.3109 26.7547 60.3827 26.9029C59.7704 27.0016 59.1928 27.1596 58.5904 26.8584C57.8795 26.5029 57.6029 25.8216 58.0078 25.16C58.3238 24.6415 58.8323 24.2317 58.7533 23.5355C59.0545 23.5059 59.415 23.5701 59.647 23.4269C60.9851 22.5925 62.1947 21.605 63.0292 20.2324C63.4785 20.4003 63.8784 20.7311 64.4017 20.6817L64.3968 20.6719Z" fill="#1F1611"/>
<path d="M48.3947 28.8086C50.1376 30.3787 51.0905 32.3981 51.7817 34.5952C52.078 35.5333 52.1866 36.3974 51.8854 37.3503C51.6978 37.9379 51.7077 38.5847 51.6336 39.2068C51.1794 39.187 50.7202 39.1722 50.266 39.1525C49.7228 38.4908 49.8364 37.7305 49.8413 36.9454C49.8562 34.5212 49.7376 32.1167 47.5751 30.433C47.1653 30.1121 47.0418 29.6924 47.422 29.2382C47.7479 29.095 48.0738 28.9518 48.3996 28.8086H48.3947Z" fill="#603625"/>
<path d="M17.6847 40.5908C17.8624 39.6675 18.1735 38.7591 17.818 37.8012C17.2304 36.2064 15.8183 35.1893 14.0014 35.1498C12.4905 35.1153 11.034 35.4559 9.59226 35.8657C8.85659 36.0731 8.46654 36.6705 8.05674 37.2433C7.91355 37.421 7.7605 37.5938 7.59756 37.7518C7.43463 37.8999 7.29639 38.0629 7.17296 38.2456L7.15319 38.2851L6.97051 38.4332L6.76809 38.3147C6.72365 38.0826 6.6792 37.8456 6.63477 37.6136C7.90368 35.4954 9.8885 34.5474 12.2436 34.3351C14.342 34.1475 16.2874 34.6906 18.0402 35.8805C18.134 35.9447 18.2278 36.004 18.3216 36.0632C19.2054 37.4408 19.8522 38.8529 18.8499 40.4575C18.7018 40.6353 18.5141 40.7538 18.292 40.8179C18.055 40.8278 17.8575 40.7488 17.6847 40.5908Z" fill="#3A616B"/>
<path d="M56.3886 37.7514C56.4577 37.4453 56.5071 37.1342 56.5959 36.833C57.5884 33.3225 55.6628 30.3403 52.9768 28.5925C52.6658 28.3901 52.2362 28.3308 51.8561 28.3012C51.15 28.2419 50.439 28.2518 49.728 28.237C49.5355 27.8223 48.9084 27.7581 48.8887 27.2051C49.4318 27.2495 49.97 27.3384 50.5131 27.3285C53.3027 27.2841 55.2332 28.6912 56.5515 30.9921C57.5341 32.7053 58.2006 34.5174 57.4353 36.5516C57.2773 36.9713 57.3119 37.4897 57.8204 37.781C57.3316 38.5167 56.8675 37.8797 56.3935 37.7563L56.3886 37.7514Z" fill="#2A1D16"/>
<path d="M54.5275 16.8951C54.3152 16.8803 54.1078 16.8655 53.8955 16.8556C53.4413 16.5643 53.0018 16.5692 52.5821 16.9247L52.6019 16.9099C52.4982 16.7223 52.2563 16.431 52.3106 16.3569C53.0314 15.399 54.0535 14.8806 55.1545 14.5054C56.1963 14.1499 57.248 13.8931 58.2898 14.5301C59.1143 15.1966 60.398 15.483 60.2647 16.9346C60.003 17.1814 59.6969 17.2456 59.3563 17.1666C59.06 17.0481 58.7588 16.9346 58.4379 16.9C57.1344 16.8358 55.8309 15.9866 54.5225 16.9L54.5275 16.8951Z" fill="#7C4E37"/>
<path d="M39.7931 26.8535C39.7486 27.4756 39.8375 28.0533 40.2028 28.5964C40.504 29.0457 40.82 28.8927 41.1755 28.7396C41.3582 28.9124 41.5458 29.0852 41.7285 29.258C41.5458 30.1122 42.0346 30.7096 42.4938 31.3317C43.4122 32.571 44.1577 33.8943 44.4737 35.4248C44.1923 36.6543 44.2219 37.8886 44.454 39.118C44.5132 39.5179 44.454 39.8784 44.0985 40.1351C43.9553 40.3524 43.8121 40.3524 43.6788 40.1252C43.6887 39.1921 43.6294 38.249 43.7183 37.3208C43.9256 35.1533 43.0764 33.3413 41.8371 31.6922C40.8151 30.3344 39.6499 29.0803 38.5488 27.7817C39.245 27.8509 39.3092 27.0806 39.7832 26.8535H39.7931Z" fill="#383733"/>
<path d="M62.101 28.7363C62.5701 29.1165 62.5306 29.6547 62.5553 30.1731C62.575 30.6915 62.5355 31.2297 63.0194 31.605C63.0194 31.9111 63.0095 32.2123 63.0046 32.5184C62.7379 32.785 62.8416 33.2392 62.5059 33.4713C61.7406 34.3501 60.995 35.2438 60.2001 36.0931C59.8298 36.488 59.3855 36.8337 58.793 36.8534C59.267 35.8709 59.7311 34.8834 60.2199 33.9058C60.9062 32.5332 61.8394 31.2544 61.7307 29.5856C61.711 29.314 61.9727 29.0227 62.101 28.7363Z" fill="#643827"/>
<path d="M37.9326 13.103C38.5547 13.9324 39.1719 14.7372 40.4161 14.5545C40.9987 14.4657 41.2357 14.2534 41.1469 13.6214C41.1123 13.3943 40.974 13.182 40.9345 12.9499C40.9148 12.8265 40.979 12.6043 41.0678 12.5648C41.1715 12.5203 41.3641 12.5895 41.4826 12.6635C41.9023 12.9351 42.2331 13.335 42.159 13.8287C41.9961 14.9002 41.8233 15.9864 41.3197 16.964C41.2407 17.122 40.9197 17.2553 40.7222 17.2356C40.4655 17.2109 40.426 16.9344 40.4655 16.6925C40.4803 16.6184 40.5247 16.5443 40.5445 16.4703C40.6333 16.1691 40.7617 15.8284 40.4062 15.6358C40.0261 15.4285 39.6261 15.5173 39.3348 15.8235C39.009 16.1592 38.7325 16.5394 38.4362 16.9048C38.0511 16.8949 37.666 16.8899 37.4043 16.5345C38.1202 15.5618 37.2759 14.5595 37.4586 13.5819C37.6166 13.4239 37.7746 13.2659 37.9326 13.103Z" fill="#2B1F17"/>
<path d="M63.5071 30.6366C63.1319 29.1257 62.6776 27.6445 61.8926 26.2028C62.3369 25.8177 62.7961 25.4177 63.2553 25.0277C63.4923 24.8253 63.7293 24.6129 64.0749 24.7166C64.465 24.8351 64.4502 25.1906 64.4551 25.4819C64.4748 26.42 64.465 27.3581 64.465 28.2913C64.0206 28.9924 64.0009 29.7972 63.9317 30.5872C63.8083 30.7649 63.6651 30.7798 63.5022 30.6366H63.5071Z" fill="#603625"/>
<path d="M26.5314 42.9301C26.3981 43.6114 25.8501 43.9324 25.3514 44.2977C22.9765 46.0456 20.3942 47.4429 17.7132 48.6575C17.2836 48.85 17.1256 49.1018 17.1207 49.5265C16.5924 49.4425 16.5381 48.8155 16.0938 48.6377C19.0364 47.1664 21.9446 45.6358 24.7293 43.8781C25.2921 43.5226 25.6624 42.7326 26.5265 42.935L26.5314 42.9301Z" fill="#492023"/>
<path d="M49.2381 21.166C49.3368 21.6351 49.4257 22.1683 50.0774 22.0301C50.7637 21.8869 51.4155 21.6054 52.0968 21.4376C54.368 20.8846 56.4121 21.4376 58.2636 22.7904C58.4957 22.9583 58.6043 23.294 58.7673 23.5508C58.1106 23.5705 57.5922 23.1805 57.0293 22.9385C56.027 22.509 55 22.2226 53.8941 22.1337C52.008 21.9757 50.3836 22.5682 48.8628 23.6051C48.8727 22.7756 48.5172 21.8918 49.2332 21.1709L49.2381 21.166Z" fill="#312119"/>
<path d="M47.4174 29.2383C47.447 29.5543 47.5211 29.8554 47.7877 30.0628C49.5997 31.4848 50.1428 33.4696 50.2366 35.6322C50.286 36.8024 50.2564 37.9775 50.2663 39.1526C49.9453 39.0045 49.6293 38.8563 49.3084 38.7082C49.4072 37.3257 49.3923 35.9482 49.3084 34.5608C49.2343 33.3264 48.8048 32.3192 47.9802 31.4404C47.4519 30.8775 46.9335 30.2998 46.4102 29.7271C46.7459 29.5641 47.0816 29.4012 47.4223 29.2383H47.4174Z" fill="#231913"/>
<path d="M18.9636 44.7762C18.1637 45.2452 17.3589 45.7143 16.5591 46.1883C15.542 46.7906 14.4212 47.0523 13.2609 47.1807C12.9794 46.5684 12.1648 46.8844 11.834 46.3611C12.7079 45.4773 13.9027 45.3686 14.9988 45.028C15.1865 45.028 15.3692 45.0823 15.5271 45.181C15.6654 45.2551 15.6703 45.3686 15.695 45.497C15.7493 45.8081 15.542 45.418 15.7098 45.6846C15.8086 45.8377 15.8135 45.8031 15.7395 45.5711C15.7197 45.3094 15.4728 45.0971 15.5617 44.8107C16.0011 44.0207 16.4258 43.211 17.5663 43.4776C17.6897 43.6257 17.7589 43.7985 17.7786 43.9911C17.7045 44.2676 17.4774 44.4355 17.2997 44.633C17.0627 44.8354 17.4083 44.5392 17.1713 44.7416C17.1219 44.7811 17.1713 44.7416 17.2997 44.633C17.4922 44.4454 17.6749 44.2429 17.9119 44.1047C18.302 43.9812 18.6673 44.0257 19.008 44.2676C19.1314 44.4503 19.1265 44.6182 18.9685 44.7762H18.9636Z" fill="#2B3740"/>
<path d="M17.6797 43.9276C17.5464 43.8684 17.3489 43.7153 17.2896 43.7597C16.6725 44.209 15.9862 44.5941 15.6455 45.3347L15.6702 45.315C14.3815 45.631 13.241 46.495 11.8289 46.3617C11.6166 46.2432 11.4339 46.1001 11.4437 45.8236C12.4164 44.7571 14.0211 44.8509 15.0332 43.8585C15.7442 43.6116 16.2577 43.1426 16.5786 42.4612L16.5589 42.476C17.1267 42.1798 17.2699 41.1626 18.2129 41.5083C19.1066 42.5599 19.3436 43.4635 17.6698 43.9325L17.6797 43.9276Z" fill="#379FB8"/>
<path d="M54.5273 16.8961C54.7742 16.195 55.3223 15.9284 55.9839 16.1061C56.8874 16.3481 57.8008 16.4122 58.7241 16.4666C58.8871 16.6048 59.0648 16.7184 59.2623 16.8023C59.5684 16.8418 59.8746 16.8764 60.1807 16.9159C61.336 16.7826 61.731 17.9379 62.5753 18.3329C63.3208 18.8168 62.679 19.2759 62.5556 19.745C62.3334 19.6857 62.0026 19.6956 61.9088 19.5524C60.5855 17.5824 58.4822 17.2812 56.3986 16.9554C55.7864 16.8616 55.1544 16.9109 54.5273 16.8961Z" fill="#231913"/>
<path d="M45.4474 61.4106C44.2279 62.1956 43.1367 62.0278 42.1641 60.9662C42.0604 60.8527 42.0357 60.744 42.085 60.6502C42.1344 60.5564 42.1789 60.512 42.2184 60.512C42.4949 60.4774 42.7763 60.4478 43.0528 60.4132C43.986 60.0429 44.06 56.8534 45.9165 59.5442C45.9313 59.8602 45.9511 60.1713 45.9659 60.4873C45.6696 60.7292 45.7832 61.1983 45.4474 61.4106Z" fill="#794E36"/>
<path d="M45.9157 59.545C45.8466 59.5104 45.7726 59.4808 45.7034 59.4413C44.6715 58.7896 44.6419 58.7698 44.0889 59.5648C43.8124 59.9647 43.5705 60.3399 43.0471 60.414C42.7509 59.8857 41.9757 60.177 41.6992 59.6191C42.0893 59.5895 42.4892 59.5944 42.8694 59.5253C43.4668 59.4166 43.5804 59.0315 43.2101 58.5032C43.1656 58.439 43.1014 58.3897 43.0521 58.3304C42.8694 58.0835 42.4843 57.7626 42.5435 57.6046C42.746 57.0516 43.1656 57.491 43.5014 57.5256C44.1778 57.5997 44.3901 56.9677 44.8246 56.6665C44.9332 56.5924 45.1406 56.5332 45.2294 56.5875C45.3331 56.6517 45.4467 56.8838 45.4072 56.9776C45.0616 57.7527 45.3085 58.2909 45.9651 58.7698C46.1873 58.9278 46.2564 59.2932 46.3947 59.5697C46.2367 59.5648 46.0787 59.5549 45.9157 59.5499V59.545Z" fill="#291D16"/>
<path d="M6.66406 32.0485C6.94056 31.925 7.33556 31.8806 7.4738 31.6683C8.50078 30.0735 9.82894 28.8095 11.478 27.8764C11.8878 27.6443 11.8829 27.2641 11.8434 26.8691C12.4112 27.037 12.4458 27.4518 12.3322 27.9307C11.952 28.849 10.9547 29.0663 10.3079 29.6884C9.69563 30.2759 9.16239 30.9178 8.61434 31.5498C8.12554 32.1077 7.99222 32.7644 8.08109 33.4853C7.40961 33.1989 7.22693 32.4435 6.66406 32.0485Z" fill="#1F4F5D"/>
<path d="M6.62947 39.1484V42.0269C7.3059 41.7307 6.99486 41.2172 7.11336 40.8716C7.22198 40.5507 7.37998 40.3334 7.70091 40.2396C8.16503 41.4542 8.82664 42.6046 8.96983 43.9328C8.62421 43.997 8.26377 44.0365 8.06627 44.387C5.81482 42.5948 5.64693 41.9726 6.62947 39.1484Z" fill="#E1E2E1"/>
<path d="M62.5756 18.3328C61.5684 18.2143 60.8969 17.528 60.181 16.9158C59.554 16.1208 58.922 15.3259 58.2949 14.531C59.1392 14.4421 59.791 14.8026 60.3736 15.3753C61.2574 16.2492 62.0918 17.1626 62.5806 18.3328H62.5756Z" fill="#5E3625"/>
<path d="M20.4004 55.259C21.4767 54.0296 23.0863 53.7185 24.4392 52.973C25.239 52.5336 26.0834 52.0497 27.0511 51.9707C26.9474 52.6866 26.3894 52.9335 25.8216 53.1952C24.2911 53.9012 22.7802 54.6369 21.2546 55.3528C20.8842 55.5256 21.0176 55.8614 20.9781 56.1428C20.4646 56.0589 20.4004 55.6787 20.4004 55.259Z" fill="#363D47"/>
<path d="M37.4591 13.5818C37.6319 13.8385 37.785 14.1101 37.9776 14.352C38.8811 15.4827 38.8268 15.6999 37.4048 16.5343C36.2988 15.7048 36.2692 14.7272 36.9999 13.6361C37.1333 13.4731 37.2814 13.4534 37.4542 13.5719H37.4641L37.4591 13.5818Z" fill="#774C35"/>
<path d="M44.9623 45.8387C44.2283 45.8551 43.7477 46.1843 43.5206 46.8261C43.2935 46.6089 43.0417 46.4114 42.8491 46.1695C42.1727 45.3153 42.1727 45.3054 42.8491 44.3476C43.017 44.1106 43.1058 43.7649 43.6638 43.7798C44.0637 44.4117 44.5179 45.1277 44.9672 45.8436L44.9623 45.8387Z" fill="#5C3625"/>
<path d="M15.2057 44.0164C14.238 45.2211 12.7815 45.3939 11.4435 45.8185C11.4237 45.6704 11.404 45.5173 11.3891 45.3692C11.1077 45.1766 11.1275 45.0187 11.4435 44.8952C11.7397 44.8409 12.036 44.7817 12.3322 44.7274C12.5544 44.6879 12.7074 44.4854 12.9395 44.4558C13.8233 44.4657 14.3812 43.6856 15.186 43.5078C15.3539 43.6115 15.4131 43.725 15.3637 43.8386C15.3144 43.9571 15.2601 44.0164 15.2057 44.0164Z" fill="#4D636D"/>
<path d="M19.9004 52.0351C21.0557 51.7635 22.0235 50.8896 23.2924 50.9883C23.4899 50.8254 23.6627 50.8353 23.8059 51.0575C22.5765 51.6944 21.3372 52.2918 19.9399 52.4646C19.9103 52.3214 19.9004 52.1782 19.9053 52.0351H19.9004Z" fill="#3F282D"/>
<path d="M43.6847 40.127C43.823 40.1319 43.9662 40.1368 44.1044 40.1368C44.1488 40.9317 44.0353 41.697 43.6897 42.4228C43.3589 42.6006 43.0281 42.7734 42.6973 42.9511C43.0281 42.013 43.3539 41.07 43.6847 40.1319V40.127Z" fill="#30261F"/>
<path d="M36.9355 50.0461C37.4441 49.3795 37.9625 48.7327 38.792 48.4414C38.5501 49.4091 37.9971 50.0263 36.9355 50.0461Z" fill="#131515"/>
<path d="M26.8224 55.6732C27.4149 55.1252 28.1703 54.9919 28.9208 54.8438C28.9208 55.1449 28.9158 55.451 28.9109 55.7522C28.2147 55.7275 27.5136 55.7029 26.8125 55.6732H26.8224Z" fill="#131515"/>
<path d="M8.07503 33.4846C8.37621 33.3068 8.68234 33.1291 8.98352 32.9514C9.47726 32.7983 10.0154 32.5662 9.93644 33.4698C9.2847 33.534 8.74652 34.0475 8.05035 33.9339C8.0306 33.7808 8.03553 33.6327 8.07503 33.4846Z" fill="#1F4F5D"/>
<path d="M30.2441 54.2462C30.7971 53.7525 31.4489 53.4513 32.1599 53.2637C31.9031 54.3351 31.1378 54.4092 30.2441 54.2462Z" fill="#131515"/>
<path d="M11.4437 44.8965C11.424 45.0545 11.4092 45.2125 11.3894 45.3705C10.5698 45.2273 9.63666 45.6815 8.93555 44.9014C9.76997 44.9014 10.6093 44.9014 11.4437 44.9014V44.8965Z" fill="#E1E2E1"/>
<path d="M45.4473 61.4116C45.5016 61.0363 45.63 60.7006 45.9657 60.4883C45.9855 60.903 45.862 61.2437 45.4473 61.4116Z" fill="#291D16"/>
<path d="M55.8848 38.6851C55.9193 38.3049 56.028 37.9593 56.3884 37.752C56.4032 38.1618 56.3044 38.5123 55.8848 38.6851Z" fill="#2A1D16"/>
<path d="M6.76817 38.3089C6.90148 38.3287 7.02984 38.3188 7.15328 38.2793C7.15821 38.6842 7.01505 38.9952 6.625 39.1582C6.67437 38.8767 6.7188 38.5904 6.76817 38.3089Z" fill="#E1E2E1"/>
<path d="M62.5 33.4646C62.5395 33.0795 62.6531 32.7339 62.9987 32.5117C63.0184 32.9265 62.9296 33.282 62.5 33.4646Z" fill="#1F1611"/>
<path d="M29.207 54.7315C29.4539 54.3168 29.839 54.2032 30.2883 54.218C30.1056 54.7612 29.681 54.7957 29.207 54.7315Z" fill="#131515"/>
<path d="M32.709 52.9144C32.9164 52.554 33.2274 52.3861 33.6422 52.4059C33.4644 52.8157 33.1188 52.9292 32.709 52.9144Z" fill="#131515"/>
<path d="M33.6211 52.4145C33.8334 52.0739 34.1494 51.906 34.5345 51.8418C34.4308 52.3553 34.0605 52.4442 33.6211 52.4145Z" fill="#131515"/>
<path d="M35.0391 51.4664C35.2168 51.0714 35.5575 50.938 35.9525 50.8887C35.8488 51.3972 35.4785 51.4861 35.0391 51.4664Z" fill="#131515"/>
<path d="M38.4453 17.3105C38.5687 17.4982 38.6922 17.6858 38.8156 17.8734C38.5836 17.7598 38.4502 17.5772 38.4453 17.3105Z" fill="#2B1F17"/>
<path d="M64.4512 23.0724C64.5203 22.8304 64.6783 22.6774 64.9251 22.623C64.7671 22.7712 64.6092 22.9242 64.4512 23.0724Z" fill="#1F1611"/>
<path d="M37.4484 13.5727C37.3003 13.5973 37.1472 13.6171 36.9941 13.6368C37.0978 13.2863 37.246 13.2468 37.4484 13.5727Z" fill="#2B1F17"/>
<path d="M8.07031 44.388C8.33199 44.3731 8.49491 44.4916 8.54923 44.7484C8.25298 44.8076 8.11969 44.6546 8.07031 44.388Z" fill="#E1E2E1"/>
<path d="M58.2832 37.2763C58.3721 37.0344 58.535 36.8813 58.7967 36.8418C58.7128 37.0887 58.535 37.2269 58.2832 37.2763Z" fill="#643827"/>
<path d="M42.1985 28.7793C42.0454 28.9324 41.8874 29.0854 41.7344 29.2385C41.7689 28.9669 41.9269 28.8139 42.1985 28.7793Z" fill="#383733"/>
<path d="M36.4414 50.5151C36.5007 50.2386 36.6587 50.0658 36.95 50.0312C36.8759 50.2929 36.708 50.4559 36.4414 50.5151Z" fill="#131515"/>
<path d="M35.9023 50.9287C35.9863 50.6473 36.1887 50.5239 36.4652 50.4844C36.3812 50.7609 36.1986 50.9189 35.9023 50.9287Z" fill="#131515"/>
<path d="M19.0312 51.4863C19.1596 51.6345 19.2831 51.7875 19.4114 51.9356C19.1744 51.8764 19.051 51.7283 19.0312 51.4863Z" fill="#3F282D"/>
<path d="M34.4863 51.8827C34.5653 51.5914 34.7628 51.463 35.0541 51.4531C34.9603 51.7197 34.7727 51.8728 34.4863 51.8827Z" fill="#131515"/>
<path d="M63.5039 30.6314C63.6471 30.6215 63.7903 30.6067 63.9335 30.582C63.8298 30.9622 63.6915 30.9968 63.5039 30.6314Z" fill="#1F1611"/>
<path d="M19.9462 52.4591C19.8672 52.7159 19.7092 52.8591 19.4277 52.8196C19.5067 52.5628 19.6697 52.4295 19.9462 52.4591Z" fill="#3F282D"/>
<path d="M19.0513 52.9786C18.9377 53.2304 18.7402 53.3094 18.4785 53.2748C18.5921 53.0329 18.7797 52.9243 19.0513 52.9786Z" fill="#3F282D"/>
<path d="M32.1211 53.2998C32.2149 53.0183 32.4223 52.9048 32.7086 52.9147C32.5901 53.1665 32.4025 53.3047 32.1211 53.2998Z" fill="#131515"/>
<path d="M46.4648 59.9746C46.6179 59.9944 46.771 60.0141 46.924 60.0289C46.7266 60.3745 46.5735 60.3449 46.4648 59.9746Z" fill="#291D16"/>
<path d="M42.2184 60.5117C42.2036 60.6648 42.1888 60.8178 42.1641 60.9709C41.8284 60.7783 41.8481 60.6253 42.2184 60.5117Z" fill="#291D16"/>
<path d="M17.6101 33.9339C17.3632 33.2476 17.2546 32.4971 17.5261 31.8454C17.9804 30.7592 17.9508 29.7618 17.5459 28.6805C17.3139 28.0683 17.5657 27.4363 18.0397 26.9475C18.1483 26.8339 18.2618 26.7253 18.3803 26.6216C19.9899 25.1305 24.5521 23.7333 26.769 24.0542C26.843 24.0641 26.9368 24.0887 26.9813 24.1381C27.0751 24.2467 27.164 24.3652 27.2232 24.4986C27.2973 24.6664 27.2034 24.7899 26.9961 24.8096C26.448 24.854 25.9 24.8689 25.3519 24.9232C23.2042 25.1305 21.2292 25.881 19.353 26.908C18.8543 27.1845 18.4494 27.5597 18.4494 28.1868C18.4494 28.4139 18.4741 28.6953 18.6025 28.8583C18.7654 29.0656 18.9926 28.9126 19.1802 28.7694C19.6196 28.4337 20.064 28.1127 20.5084 27.7869C22.4339 26.3698 24.6557 25.9304 26.9664 25.9847C29.4351 26.0439 31.7804 28.3497 32.0223 30.8036C32.1162 31.7812 31.7212 32.6502 31.2916 33.4994C31.0744 33.6377 30.867 33.6278 30.6695 33.4698C30.5411 33.2772 30.4572 33.0649 30.4177 32.8378C30.7979 28.6657 28.5168 26.6908 24.4089 27.6782C23.1893 27.9695 21.9797 28.3349 21.0119 29.2088C20.8688 29.352 20.7108 29.4804 20.5577 29.6137C20.4886 29.6779 20.4096 29.7421 20.3405 29.8063C20.2072 29.9396 20.059 30.063 19.9159 30.1815C19.8517 30.2457 19.7776 30.3049 19.7134 30.3691C19.5949 30.4975 19.4665 30.6259 19.348 30.7542C19.2987 30.8283 19.2444 30.8974 19.195 30.9665C19.0172 31.2776 18.9284 31.6183 18.8346 31.959C18.7901 32.1416 18.7309 32.3194 18.6716 32.4971C18.3655 33.0106 18.6223 33.9487 17.6052 33.9339H17.6101Z" fill="#25454D"/>
<path d="M18.9624 44.7768C18.9476 44.5744 18.9328 44.3719 18.918 44.1695C19.0167 43.103 19.9252 42.8315 20.6707 42.4464C22.8383 41.3157 24.9219 40.0468 27.04 38.8322C27.6819 38.4915 28.3237 38.1557 28.9063 37.7163C29.0643 37.5929 29.2371 37.4843 29.4099 37.3806C29.8395 37.1337 30.2444 36.8473 30.6789 36.6103C31.0294 36.4375 31.4738 36.6597 31.7898 36.3487C32.091 36.1709 32.3971 35.9932 32.6983 35.8105C32.9846 35.5784 33.4093 35.6673 33.6857 35.4007C36.7124 34.4033 37.2061 34.586 39.7044 37.3608C39.9365 37.6176 39.9118 37.9286 39.8279 38.2397C39.1317 37.6472 38.4256 37.0646 37.7393 36.4672C36.9592 35.7907 36.0656 35.6722 35.0978 35.8845C33.8635 36.1512 32.718 36.6153 31.6762 37.351C28.0374 39.9233 24.1022 42.0069 20.2659 44.2584C19.8659 44.4904 19.4018 44.604 18.9624 44.7719V44.7768Z" fill="#36424D"/>
<path d="M27.8159 19.8581C26.4433 19.7347 25.2139 19.7149 23.9894 20.1395C23.2933 20.3815 22.7995 20.021 22.5132 19.3397C22.1083 18.3769 22.0244 17.3647 22.207 16.3476C22.37 15.4539 22.8933 14.8466 23.7722 14.4615C26.8976 13.1037 29.8452 14.9405 30.6796 17.6955C30.8771 18.3473 30.7586 18.9249 30.4722 19.5026C30.2797 19.8877 29.9785 20.1543 29.5539 20.0605C28.9367 19.9223 28.3294 19.8038 27.8209 19.8581H27.8159Z" fill="#313842"/>
<path d="M17.6095 33.9339C17.8909 33.7364 17.9946 33.45 18.0094 33.1242C18.0292 32.7242 18.0538 32.3342 18.3896 32.0527C18.9475 32.3292 18.9426 32.8674 19.0117 33.376C19.0364 33.7512 19.0463 34.1264 19.145 34.4968C19.2141 34.6646 19.2734 34.8374 19.3425 35.0004C19.4709 35.2423 19.619 35.4744 19.8017 35.6817C19.9498 35.815 20.088 35.9483 20.2362 36.0767C21.7618 37.4147 23.5837 37.1037 25.3612 37.0099C25.5735 37.0889 25.7513 37.2123 25.8944 37.3851C26.0919 37.6616 26.2252 37.9628 26.2697 38.2985C26.2647 38.5207 26.1759 38.7133 26.0278 38.8762C25.7759 39.0293 25.4945 39.1675 25.2081 39.1083C24.7045 38.9997 24.5712 39.2021 24.6453 39.6563C22.1667 40.1797 20.6558 38.4467 18.9771 37.1728C18.5624 36.8568 18.3254 36.294 17.9995 35.8496L18.0292 35.8792C17.886 35.2324 17.7428 34.5856 17.5996 33.9438L17.6095 33.9339Z" fill="#3A616B"/>
<path d="M27.0108 51.9851C27.2774 51.4765 27.707 51.1507 28.2205 50.9384C30.2349 50.104 32.2247 49.23 33.9627 47.8723C34.2244 47.6698 34.7033 47.7389 35.0785 47.6797C34.6687 48.5092 33.8047 48.7906 33.1233 49.2942C31.5976 50.415 29.835 51.0865 28.1513 51.9061C27.8304 52.0592 27.391 51.9654 27.0059 51.9851H27.0108Z" fill="#4E4954"/>
<path d="M30.8523 33.575C31.0005 33.5552 31.1486 33.5305 31.2918 33.5059C31.3115 33.8811 31.4054 34.207 31.7362 34.444C31.9781 34.6168 31.8892 34.7995 31.6621 34.9328C30.7536 35.8215 30.0081 36.8781 28.9268 37.594C28.3294 37.8952 27.7418 38.2458 27.0703 37.7816C27.5443 35.6734 29.5489 34.9426 30.8474 33.5799L30.8523 33.575Z" fill="#3EB1CA"/>
<path d="M36.0215 46.7776C36.2091 46.4567 36.3325 46.0617 36.5992 45.8346C37.7101 44.8866 38.505 43.6918 39.3197 42.5117C39.5418 42.5808 39.6801 42.7339 39.7492 42.9512C39.1271 44.2151 38.2384 45.2816 37.2459 46.2641C36.9201 46.5851 36.5498 46.8961 36.0215 46.7826V46.7776Z" fill="#3E4C59"/>
<path d="M39.7499 42.946C39.6067 42.7979 39.4635 42.6547 39.3203 42.5066C40.0066 41.1291 39.8289 39.6577 39.7992 38.2012C41.2113 39.796 40.7127 41.3759 39.7499 42.946Z" fill="#322C32"/>
<path d="M28.8777 37.0547C29.7664 36.2944 30.4675 35.2871 31.6624 34.9316C31.6969 35.0699 31.7216 35.2081 31.7364 35.3513C31.5834 35.4945 31.4945 35.6723 31.46 35.8747C31.3958 36.0228 31.3266 36.1759 31.2624 36.324C31.1242 36.4721 30.9613 36.5758 30.7638 36.6252C30.3293 37.035 29.875 37.4201 29.3813 37.7608L29.401 37.7459C29.1887 37.9533 28.9814 37.9435 28.7839 37.7262C28.6604 37.4793 28.695 37.2571 28.8777 37.0498V37.0547Z" fill="#1E4855"/>
<path d="M9.93729 33.4657C9.7941 32.972 9.35468 33.0263 8.98438 32.9473C9.49293 32.4042 10.2385 32.419 10.8754 32.2018C11.0235 32.1524 11.3198 32.3301 11.4531 32.4881C11.6456 32.7152 11.458 32.9078 11.2358 32.9967C10.8112 33.1695 10.3718 33.3127 9.93729 33.4657Z" fill="#358FAD"/>
<path d="M35.0527 47.7058C35.1367 46.7973 35.1416 46.7924 36.0402 46.7578C36.0945 47.4737 35.6897 47.7107 35.0527 47.7058Z" fill="#4E4954"/>
<path d="M30.8464 36.4284C30.9699 36.3297 31.1081 36.2951 31.2612 36.3247C31.434 36.3346 31.6117 36.3395 31.7845 36.3494C31.4636 36.5666 31.1427 36.779 30.8217 36.9962C30.6983 36.8629 30.6588 36.7345 30.7082 36.6111C30.7576 36.4876 30.802 36.4284 30.8464 36.4284Z" fill="#3EB1CA"/>
<path d="M33.6867 35.4064C33.4596 35.7915 33.0991 35.8507 32.6992 35.8162C32.9412 35.4705 33.2818 35.3669 33.6867 35.4064Z" fill="#3EB1CA"/>
<path d="M31.4648 35.8749C31.5587 35.7021 31.6475 35.5244 31.7413 35.3516C31.7611 35.5886 31.6673 35.7564 31.4648 35.8749Z" fill="#3EB1CA"/>
<path d="M34.6002 41.6121C34.7681 41.6269 34.9409 41.6368 35.1088 41.6516C35.2668 41.7504 35.3952 41.8738 35.5087 42.0219C36.0222 41.9429 36.6048 42.1157 36.9554 41.5084C37.2664 40.9702 37.1578 40.4617 36.9702 39.9433C36.5011 38.6497 35.3606 38.1609 34.0028 38.5015C32.1957 38.9558 30.9021 40.2148 29.4456 41.2319C28.7494 41.7207 28.0977 42.2787 27.3916 42.7477C27.1596 42.9008 26.809 42.881 26.5078 42.9403C26.5819 42.728 26.5868 42.4219 26.7349 42.3083C28.3643 41.0789 29.9788 39.8198 31.6822 38.6941C32.4525 38.1856 33.4152 37.9535 34.2892 37.6029C35.1236 37.2672 35.8444 37.5684 36.4863 38.072C37.9083 39.1829 38.1798 40.363 37.4442 42.0466C37.3504 42.2639 37.2713 42.5008 37.1232 42.6737C35.642 44.4116 34.062 46.036 31.8402 46.8507C31.7711 46.7668 31.702 46.6828 31.6328 46.5989C31.776 45.4139 32.9166 45.088 33.5881 44.3672C34.1805 43.7303 34.936 43.2069 34.3731 42.175C34.3583 41.9528 34.4323 41.7652 34.5903 41.6072L34.6002 41.6121Z" fill="#4A2225"/>
<path d="M34.5996 41.6129C34.5996 41.7561 34.5996 41.8993 34.5996 42.0425C33.9281 42.7485 32.9851 42.9756 32.1556 43.3904C29.9091 44.5062 28.4427 46.1948 28.0131 48.7129C27.9242 49.0536 27.7317 49.3251 27.4898 49.5769C26.3245 50.2237 25.1593 50.8755 23.8065 51.0631C23.6337 51.0384 23.4658 51.0187 23.293 50.994C23.7916 50.2978 24.6014 50.1941 25.3272 49.9176C26.0085 49.6609 26.5665 49.3054 26.5961 48.4216C26.6158 47.8883 26.838 47.3551 27.0158 46.8367C27.4552 45.5431 28.2008 44.442 29.3265 43.6669C30.3535 42.9608 31.4298 42.314 32.521 41.7067C33.1678 41.3414 33.9035 41.5487 34.5996 41.6129Z" fill="#431B1C"/>
<path d="M27.4902 49.5709C27.51 49.25 27.5297 48.934 27.5495 48.613C27.9889 48.1539 28.453 47.7638 29.1591 47.9712C29.2381 48.0354 29.3171 48.1045 29.3961 48.1687C28.9665 48.9142 28.4975 49.6055 27.4902 49.5709Z" fill="#6A3D43"/>
<path d="M31.8494 46.8556C31.173 47.5617 30.462 48.1986 29.3906 48.1739L29.4153 48.1591C29.5536 46.6186 30.3978 46.2533 31.7606 46.7569L31.8494 46.8556Z" fill="#4A2225"/>
<path d="M35.5074 42.0168C35.3741 41.8934 35.2407 41.7699 35.1074 41.6465C35.3543 41.6465 35.4629 41.7946 35.5074 42.0168Z" fill="#431B1C"/>
<path d="M44.459 39.1189C43.9455 37.6624 43.9504 36.8231 44.4787 35.4258C44.6219 36.6601 44.6071 37.8895 44.459 39.1189Z" fill="#30261F"/>
<path d="M8.97028 43.9278C7.72112 42.9798 7.28168 41.7553 7.70136 40.2346C7.74086 39.968 7.89886 39.8001 8.13586 39.6915L8.12103 39.7113C8.21484 39.4792 8.37777 39.3163 8.60489 39.2175L8.5802 39.2323C9.50844 38.7682 10.4317 38.7781 11.36 39.2225C12.4413 39.9927 12.7227 41.1135 12.7424 42.3528C12.5844 43.1131 11.9475 43.4686 11.4242 43.9229L11.3896 43.9377C10.5947 44.2438 9.80468 44.2389 9.00976 43.9377L8.96534 43.9229L8.97028 43.9278Z" fill="#131515"/>
<path d="M17.9995 41.5131C17.5157 41.8193 17.3922 42.6784 16.5627 42.471C16.5479 41.6119 17.2885 41.2021 17.6835 40.5898C17.7823 40.6047 17.881 40.6096 17.9798 40.6047C18.1526 40.7034 18.2414 40.8515 18.2661 41.0441C18.2414 41.2366 18.1476 41.3897 17.9946 41.5131H17.9995Z" fill="#3C555F"/>
<path d="M11.3637 39.2276C10.4355 38.9264 9.50728 39.0844 8.58398 39.2375C9.70971 38.4277 10.2578 38.4277 11.3637 39.2276Z" fill="#E1E2E1"/>
<path d="M15.2044 44.0163C15.1945 43.8485 15.1896 43.6806 15.1797 43.5078C15.5697 43.0535 15.8956 42.5203 16.577 42.4512C16.5572 43.3597 15.9697 43.7645 15.1995 44.0114L15.2044 44.0163Z" fill="#3C555F"/>
<path d="M9.01367 43.9473C9.80859 43.9473 10.6035 43.9473 11.3935 43.9473C10.5986 44.6879 9.80859 44.6533 9.01367 43.9473Z" fill="#E1E2E1"/>
<path d="M11.4277 43.9275C11.8672 43.4042 12.3066 42.8808 12.746 42.3574C12.6423 43.5226 12.5633 43.6165 11.4277 43.9275Z" fill="#E1E2E1"/>
<path d="M12.9393 44.456C12.8011 44.6881 12.5987 44.772 12.332 44.7276C12.4802 44.5202 12.6776 44.4214 12.9393 44.456Z" fill="#E1E2E1"/>
<path d="M7.59766 37.7507C7.64209 37.4841 7.79515 37.3113 8.05683 37.2422C8.00252 37.4989 7.84453 37.6668 7.59766 37.7507Z" fill="#E1E2E1"/>
<path d="M8.13567 39.6914C8.13073 39.9827 7.99742 40.1753 7.70117 40.2345C7.70117 39.9333 7.85423 39.7605 8.13567 39.6914Z" fill="#E1E2E1"/>
<path d="M8.60495 39.2168C8.5457 39.4834 8.39265 39.6513 8.12109 39.7105C8.15072 39.4143 8.30871 39.2514 8.60495 39.2168Z" fill="#E1E2E1"/>
<path d="M7.17188 38.2457C7.17188 37.9593 7.32493 37.8063 7.59648 37.752C7.4533 37.9149 7.31506 38.0828 7.17188 38.2457Z" fill="#E1E2E1"/>
<path d="M52.582 16.9212C53.214 16.3534 53.3177 16.3485 53.8954 16.8521C53.456 16.8768 53.0165 16.8965 52.582 16.9212Z" fill="#050606"/>
<path d="M18.0002 41.5138C18.0298 41.3707 18.0644 41.2324 18.1039 41.0942C18.1977 40.8967 18.3112 40.7091 18.4445 40.5313C18.9482 39.2328 18.9432 37.9688 18.2322 36.7246C18.089 36.4728 18.0792 36.137 18.0051 35.8457C18.5186 35.9494 18.7408 36.3987 19.042 36.7493C19.4567 37.2331 19.9159 37.6281 20.5479 37.8355C21.5897 38.1762 22.6018 38.5415 23.3968 39.3957C23.7276 39.7512 24.2855 39.5438 24.6953 39.2525C24.9965 38.7835 25.4853 39.0155 25.8901 38.9365C26.3888 38.7637 26.8036 38.2255 27.4257 38.5563C27.5639 38.6748 27.6133 38.7933 27.5689 38.9118C27.5244 39.0303 27.48 39.0945 27.4356 39.0945C25.2088 40.7782 22.6956 41.973 20.2714 43.3259C19.8023 43.5876 19.2691 43.7406 18.9136 44.18C18.4544 44.2442 18.0002 44.3035 17.541 44.3677L17.5706 44.3973C17.6052 44.2442 17.6397 44.0912 17.6792 43.9381C18.3145 43.26 18.4232 42.4536 18.0051 41.5188L18.0002 41.5138Z" fill="#46BEE8"/>
<path d="M18.4485 40.5312C18.3349 40.7189 18.2214 40.9065 18.1078 41.0941C18.0683 40.9312 18.0239 40.7682 17.9844 40.6053C18.1424 40.6004 18.2954 40.5757 18.4485 40.5312Z" fill="#379FB8"/>
<path d="M59.2608 16.8026C59.0831 16.689 58.9053 16.5804 58.7227 16.4668C58.9004 16.5804 59.0782 16.689 59.2608 16.8026Z" fill="#5E3625"/>
<path d="M17.0823 44.861C17.1465 44.6043 17.2699 44.4019 17.5711 44.387L17.5414 44.3574C17.5414 44.6784 17.3538 44.8117 17.0625 44.8413L17.0823 44.861Z" fill="#379FB8"/>
<path d="M17.0627 44.8418C16.9985 44.9159 16.9294 44.9899 16.8652 45.064C16.88 45.0294 16.8899 44.98 16.9146 44.9554C16.964 44.9159 17.0282 44.8912 17.0825 44.8616L17.0627 44.8418Z" fill="#379FB8"/>
<path d="M15.6445 45.3352C15.8371 45.4044 15.9112 45.5179 15.8322 45.6463C15.7927 45.7105 15.7137 45.745 15.6544 45.7944L15.6742 45.8142C15.6742 45.6463 15.6742 45.4784 15.6742 45.3105L15.6495 45.3303L15.6445 45.3352Z" fill="#379FB8"/>
<path d="M15.6506 45.7949C15.616 45.8394 15.5814 45.8887 15.5469 45.9332C15.5864 45.8937 15.6308 45.8542 15.6753 45.8147L15.6555 45.7949H15.6506Z" fill="#379FB8"/>
<path d="M18.5239 33.9644C18.4795 33.3275 18.4351 32.6905 18.3906 32.0536L18.5486 32.0832C18.9041 31.6784 18.5486 31.0563 18.9782 30.6712V30.6563C19.1312 30.4737 19.3435 30.3354 19.3534 30.0638L19.3238 30.0984C19.6151 30.054 19.783 29.8812 19.8472 29.5997L19.8126 29.6392C20.1039 29.58 20.2471 29.3726 20.3458 29.1159C22.385 26.9829 24.9919 26.6225 27.6878 27.0471C30.349 27.4618 31.5488 29.5899 30.907 32.2412C30.8526 32.4684 30.8181 32.7004 30.7786 32.9325C30.27 34.547 29.2183 35.6678 27.6729 36.3344C26.7941 36.5911 25.9646 37.0206 25.0166 37.0453C24.3402 37.0651 23.9649 36.8626 24.1921 36.1072C24.2908 35.9097 24.4241 35.7369 24.5772 35.5839C25.1796 35.0605 25.935 34.6013 25.4264 33.599C24.8142 31.9252 23.8514 30.8785 21.8913 31.5747C21.5407 31.6784 21.1753 31.7475 20.8939 32.0092C20.7853 32.1425 20.6816 32.2758 20.5927 32.419C20.4989 32.656 20.4396 32.9029 20.4199 33.1596C20.4051 33.5102 20.4002 33.8558 20.4051 34.2063C20.4199 34.5668 20.4841 34.9173 20.5483 35.2728C20.568 35.4654 20.5384 35.6431 20.4545 35.8159C20.1434 36.1319 19.8225 36.206 19.4867 35.8505L19.4472 35.811C19.151 35.5937 19.2646 35.1247 18.9041 34.9469V34.9568C18.7215 34.6507 18.7856 34.2409 18.519 33.9644H18.5239Z" fill="#FBFBFB"/>
<path d="M27.6819 35.9395C29.1779 35.4112 29.7803 33.9695 30.7776 32.9277C30.8023 33.145 30.827 33.3573 30.8517 33.5745C30.4863 35.0656 29.2125 35.7815 28.1657 36.6801C27.7609 37.0258 27.203 37.1936 27.0055 37.7664C26.9215 37.8158 26.8376 37.8651 26.7537 37.9145C26.5512 37.9145 26.3735 37.8454 26.2204 37.717C26.0278 37.4899 25.8798 37.243 25.939 36.927C26.4476 36.4728 27.0153 36.1222 27.6769 35.9445L27.6819 35.9395Z" fill="#465055"/>
<path d="M18.9823 30.6719C19.002 31.1903 19.0514 31.7186 18.5527 32.084C18.4935 31.5507 18.533 31.0471 18.9823 30.6719Z" fill="#EDEDED"/>
<path d="M20.3457 29.1152C20.2865 29.4115 20.1137 29.5892 19.8125 29.6386C19.8767 29.3473 20.0495 29.1695 20.3457 29.1152Z" fill="#EDEDED"/>
<path d="M19.8456 29.5938C19.8012 29.8949 19.6284 30.0628 19.3223 30.0924C19.3865 29.811 19.5691 29.653 19.8456 29.5938Z" fill="#EDEDED"/>
<path d="M19.3586 30.0645C19.3586 30.3409 19.2252 30.5286 18.9883 30.6569C18.9537 30.3607 19.0722 30.1632 19.3586 30.0645Z" fill="#EDEDED"/>
<path d="M27.4355 39.0889C27.4405 38.9605 27.4602 38.8371 27.4899 38.7137C27.4207 37.6472 28.2897 37.8397 28.8871 37.6719C29.06 37.7015 29.2278 37.7262 29.4006 37.7558C28.9563 38.5112 28.2403 38.8667 27.4355 39.0938V39.0889Z" fill="#3698A9"/>
<path d="M30.8473 36.4277C30.8374 36.6154 30.8324 36.803 30.8226 36.9955C30.477 37.5041 30.0227 37.8151 29.3809 37.7658C29.6179 37.0449 30.2252 36.7289 30.8473 36.4277Z" fill="#3698A9"/>
<path d="M29.7019 19.2751C27.7121 19.2751 25.8359 19.2751 23.9547 19.2751C23.6289 19.2751 23.3227 19.2455 23.1401 18.9443C22.355 17.6458 22.6809 15.1129 24.8583 15.0141C25.3273 14.9944 25.8013 15.0141 26.2704 15.0042C27.3615 14.9894 28.2651 15.4733 28.9958 16.209C29.7513 16.9693 30.1018 17.9124 29.7019 19.2702V19.2751Z" fill="#D993AB"/>
<path d="M27.6824 35.9385C27.317 36.6149 26.5073 36.7137 26.0037 37.2222C25.9 37.4345 25.7469 37.4642 25.5544 37.3358C24.8928 37.1976 24.3595 37.6814 23.7275 37.711C22.0044 37.7851 20.4195 37.5728 19.4863 35.8496C19.906 35.8299 20.2664 35.6966 20.4985 35.3164C21.8513 35.7262 23.3029 35.3855 24.6459 35.8645C24.5175 36.7186 24.6755 36.9161 25.2976 36.6939C26.0827 36.4174 26.7542 35.7854 27.6775 35.9385H27.6824Z" fill="#EDEDED"/>
<path d="M28.8924 37.6669C28.4876 38.0965 27.7618 38.0965 27.4952 38.7087C27.0212 38.8173 26.5521 38.926 26.0781 39.0296C26.0781 38.9408 26.0831 38.8568 26.088 38.768C26.0979 38.6198 26.1078 38.4668 26.1176 38.3187C26.2509 37.8397 26.8188 38.0619 27.0508 37.741L27.0162 37.7607C27.6384 37.5237 28.2605 37.2917 28.8826 37.0547C28.8826 37.2571 28.8924 37.4645 28.8924 37.6669Z" fill="#16313B"/>
<path d="M26.0879 38.7724C26.0781 38.8564 26.0781 38.9452 26.0781 39.0341C25.6189 39.1032 25.1597 39.1773 24.7005 39.2464C24.5475 39.0588 24.4833 38.8119 24.7697 38.7724C25.2042 38.7132 25.6535 38.7724 26.0929 38.7724H26.0879Z" fill="#12313B"/>
<path d="M27.0453 37.7458C26.8181 38.0766 26.4923 38.2396 26.1121 38.3235C25.9442 38.1606 25.7763 38.0026 25.6035 37.8397C25.8405 37.4348 26.1812 37.5237 26.5268 37.657C26.6996 37.6866 26.8724 37.7162 27.0453 37.7409V37.7458Z" fill="#3EB1CA"/>
<path d="M26.5274 37.6576C26.2213 37.7168 25.9102 37.781 25.604 37.8403C25.5892 37.6724 25.5695 37.4996 25.5547 37.3317C25.688 37.2379 25.8411 37.2033 26.004 37.2181C26.1768 37.3663 26.3546 37.5095 26.5274 37.6576Z" fill="#182226"/>
<path d="M18.9082 34.9473C19.3279 35.0855 19.4415 35.4163 19.4513 35.8113C19.0168 35.6829 18.9378 35.3324 18.9082 34.9473Z" fill="#EDEDED"/>
<path d="M18.5237 33.9648C18.894 34.2018 18.978 34.5524 18.9138 34.9573C18.5237 34.7301 18.4398 34.3796 18.5237 33.9648Z" fill="#EDEDED"/>
<path d="M31.7604 46.7562C30.7582 46.85 29.8892 47.1759 29.4152 48.1584C28.7931 48.3115 28.1709 48.4646 27.5488 48.6176C27.5538 46.8649 28.3832 45.4873 29.6472 44.3764C31.0593 43.1322 32.6344 42.1496 34.5994 42.041C34.9895 42.2731 35.3796 42.5051 35.8733 42.8014C35.0142 44.0407 33.8786 44.9393 32.6887 45.7737C32.3036 46.0452 31.9086 46.2724 31.7654 46.7562H31.7604Z" fill="#D94C4E"/>
<path d="M8.64323 41.9288C8.62842 41.5585 8.86543 41.2918 9.24067 41.1388C9.57148 41.0055 10.006 41.3461 10.001 41.7461C10.001 42.1855 9.76897 42.4817 9.32954 42.4867C9.02836 42.4867 8.73211 42.3583 8.64323 41.9337V41.9288Z" fill="#BABBBA"/>
<path d="M24.6513 35.8593C24.4292 35.8939 24.1823 35.8692 23.9898 35.968C22.6567 36.6296 21.5211 36.3037 20.504 35.3113V35.3162C20.0596 35.099 20.1485 34.6201 19.9855 34.2646L19.9707 33.1388C20.1484 32.7932 20.1238 32.3735 20.3706 32.0576L20.3805 32.0427C20.6521 31.6823 20.9532 31.3515 21.3581 31.1293C21.5803 31.0701 21.8123 31.0256 22.0296 30.9516C23.8367 30.3443 24.8834 30.7738 25.5895 32.4328C25.7376 32.7883 25.8561 33.1537 25.9845 33.519C26.2708 34.7089 25.4216 35.257 24.6662 35.8544H24.6563L24.6513 35.8593Z" fill="#101212"/>
<path d="M24.6612 35.8549C25.2487 35.1588 25.7622 34.4231 25.9795 33.5195C26.1227 33.6825 26.409 33.88 26.3794 34.0034C26.1523 34.9218 25.856 35.8204 24.6562 35.8599L24.6612 35.8549Z" fill="#EDEDED"/>
<path d="M21.3526 31.1309C21.0267 31.437 20.7009 31.7382 20.375 32.0443C20.3849 31.4025 20.7107 31.1013 21.3526 31.1309Z" fill="#EDEDED"/>
<path d="M19.9855 34.2695C20.3262 34.5362 20.4496 34.9114 20.5039 35.3212C19.9657 35.1533 19.9065 34.7485 19.9855 34.2695Z" fill="#EDEDED"/>
<path d="M20.3692 32.0625C20.3791 32.4772 20.2211 32.8278 19.9693 33.1438C19.8705 32.6994 19.9397 32.3143 20.3692 32.0625Z" fill="#EDEDED"/>
<path d="M22.2803 33.1437C22.6506 33.1832 22.9172 33.598 22.8382 34.0028C22.7642 34.3633 22.4926 34.5065 22.1766 34.5262C21.831 34.546 21.4113 34.0917 21.4409 33.7757C21.4706 33.4499 21.9298 33.1042 22.2852 33.1437H22.2803Z" fill="#BABEBE"/>
</svg>
