<svg width="281" height="348" viewBox="0 0 281 348" fill="none" xmlns="http://www.w3.org/2000/svg">
<path d="M239.507 329.393C239.507 336.247 229.33 342.127 176.176 342.127C123.021 342.127 47.0176 336.247 47.0176 329.393C47.0176 322.538 118.446 312.217 159.496 323.187C212.651 323.187 239.507 322.538 239.507 329.393Z" fill="#007AB5"/>
<path d="M105.818 61.9019C106.971 59.5682 109.523 57.3881 112.025 56.3158C115.83 54.6799 118.271 53.9392 121.556 51.0987C122.027 50.6909 124.355 47.9735 123.895 47.6146C122.308 47.3328 117.764 50.8148 117.001 50.6626C115.751 50.4138 116.974 46.5842 117.792 45.9374C114.386 46.3744 110.947 45.5796 107.796 44.4529C94.3947 39.6611 93.5609 27.8376 88.5491 17.103C88.0124 15.9559 85.5784 12.1647 85.6525 11.4344C85.6867 11.0937 85.763 10.8256 86.1427 10.6868C86.4177 10.5866 91.2876 11.1943 91.988 11.3235C96.1401 12.0853 104.818 16.1099 108.223 18.5355C114.633 23.1021 118.11 28.7378 121.419 35.4643C122.381 35.599 122.296 34.7387 122.902 34.1802C125.708 31.5895 129.53 30.1433 133.374 29.4565C135.194 29.1328 141.312 28.8846 142.297 28.1739C142.814 27.8116 142.418 27.3978 142.231 27.0033C140.86 24.0582 135.187 20.0271 143.494 20.0857C149.717 20.1294 156.312 23.1554 162.205 24.7191L162.75 24.4385C163.037 23.9183 163.116 22.8088 163.504 22.4195C165.368 20.5422 169.828 26.2898 170.57 25.715C170.991 24.1679 172.365 22.5249 173.454 21.2837C175.501 18.949 179.151 15.2477 181.49 13.1774C182.609 12.187 184.518 10.6188 184.653 12.9784C183.261 17.6462 182.427 22.4734 182.677 27.3203C186.272 26.5089 189.854 26.3757 193.513 26.0819C194.727 25.9834 198.337 24.7168 198.753 26.4895C199.169 28.2622 194.735 29.571 194.924 31.6694C195.032 32.1089 200.609 33.3318 200.194 34.7441C210.375 24.7917 225.725 19.4443 240.422 20.9959C242.916 21.2599 246.752 22.5866 248.858 21.8207C250.692 21.1548 252.716 19.1495 252.448 22.8266C251.526 35.4457 237.614 47.0106 225.157 50.3587C219.901 51.7716 215.727 51.5514 210.352 51.1171C212.485 54.0693 214.648 57.0763 216.208 60.3513C217.245 62.532 219.249 67.3011 219.629 69.5275C219.782 70.4266 219.549 71.3923 218.384 71.3964C216.977 71.3993 215.747 69.5877 214.333 69.7737C216.622 75.6381 216.471 82.2565 218.078 88.211C219.46 93.3165 222.906 98.2553 224.247 103.455C224.509 107.078 217.381 101.628 215.966 101.459L222.672 123.451C222.316 125.927 218.487 123.431 216.988 123.372C216.298 125.865 221.451 142.322 220.717 143.065C218.298 143.549 218.428 140.182 216.694 139.21C217.802 145.187 220.333 151.746 220.006 157.867C219.922 159.426 219.84 161.06 217.72 160.845C217.34 166.43 215.987 171.963 215.605 177.548C215.449 179.836 215.338 182.561 215.364 184.838C215.414 188.875 216.493 194.622 215.758 198.468C215.499 199.817 214.649 200.377 213.204 199.855C212.424 199.575 212.691 198.723 211.823 198.983C210.89 204.278 208.999 209.364 208.14 214.682C206.963 221.96 207.138 228.983 208.093 236.267L206.905 237.542C209.758 248.225 212.489 259.038 213.012 270.104L218.852 270.034C235.086 267.527 252.065 260.158 264.369 249.957C266.748 247.984 269.688 244.264 272.644 243.425C277.659 242.002 275.186 251.029 274.62 253.37C268.619 278.158 241.019 301.793 216.323 311.212C211.945 312.88 207.767 313.681 203.344 314.928C203.042 315.013 202.934 315.708 202.573 316.018C200.826 317.525 199.058 318.278 197.074 319.418C196.965 319.482 196.636 319.408 196.448 319.459L196.465 319.746C196.77 319.762 197.115 319.663 197.406 319.691C201.462 320.064 203.023 324.406 206.125 325.616C208.164 326.413 211.08 326.237 213.335 327.067C215.653 327.92 219.233 330.506 217.641 333.09C215.965 335.811 210.164 333.472 207.691 332.831C206.885 338.277 198.39 335.72 194.824 334.205C194.454 337.544 190.229 337.902 187.363 337.516C184.389 337.117 179.363 334.334 176.748 332.801C172.886 330.537 174.321 325.996 175.149 322.529C163.734 319.33 155.55 310.107 151.653 299.931C149.981 300.734 147.231 300.387 145.207 300.322C141.181 300.195 137.113 299.81 133.12 299.337C126.572 302.689 126.02 309.823 120.787 314.409C118.962 316.01 117.637 315.384 118.381 318.502C118.666 319.697 120.088 321.118 120.429 322.567C120.852 324.369 120.767 326.328 119.706 327.941C117.583 331.173 114.718 330.421 111.36 330.804C103.948 331.644 91.6055 333.534 84.5171 332.562C83.2374 332.388 82.2058 331.58 81.389 331.491C79.6972 331.304 76.4572 332.333 75.2719 331.381C72.4591 329.118 75.073 325.386 77.1179 323.53C80.5024 320.461 86.3112 319.839 89.8135 316.754C86.68 314.836 84.1233 312.259 82.0487 309.37C73.7352 297.803 72.61 284.532 74.1619 270.929C74.3618 269.178 75.3952 265.755 75.253 264.331C75.0369 262.172 72.7782 257.602 72.1723 254.803C68.0179 235.638 74.5482 216.083 83.5547 198.927C80.6785 199.272 77.6955 197.541 75.0015 197.171C70.6597 196.577 64.4932 196.986 60.3609 195.745C54.6878 194.039 50.6467 190.547 46.2028 187.29C42.3685 184.48 38.2633 181.976 34.7699 178.771L34.311 178.799C34.2631 179.485 33.8778 180.006 33.0829 179.611C31.9982 179.072 30.1658 174.554 29.045 173.284C27.2611 171.262 23.3202 169.124 21.1019 167.01C15.6222 161.79 13.7928 156.707 13.5421 149.438C13.3456 143.72 13.996 138.157 17.4635 133.225L4.58152 90.8047C5.26806 88.1045 7.02732 87.4512 9.74013 87.1346C13.8685 86.6561 18.3151 86.6904 22.4992 86.3644C26.6833 86.0384 33.8097 84.4599 37.4424 85.5868C39.9264 86.3594 40.8731 88.3361 41.6947 90.4467C43.0497 93.9331 43.8323 97.6776 45.0567 101.21C48.1667 110.174 51.5493 119.049 54.5741 128.042C55.2824 130.146 55.877 132.336 56.8549 134.348C57.817 137.522 58.8514 140.695 59.9615 143.826C60.2556 144.654 60.5756 145.67 61.0662 146.395C61.82 149.243 63.1047 151.772 63.1574 154.763C63.2814 161.663 55.0942 161.39 49.6504 161.159C50.4061 162.238 51.9867 162.69 53.2507 163.129C57.9308 164.753 64.0209 165.367 69.0022 164.906C70.3938 164.778 72.8472 163.679 74.5943 163.443C83.0082 162.307 92.7506 163.232 99.9081 157.854C100.434 157.456 103.332 154.865 103.6 154.502C103.814 154.209 103.972 153.998 103.822 153.628L97.4231 149.443C97.6834 150.714 97.6666 154.841 96.3748 155.511C94.1369 156.675 86.3803 155.532 84.2593 153.92C82.682 152.718 82.1802 150.674 81.3273 149.85C80.9977 149.532 78.9272 148.696 78.2179 148.137C77.9257 147.908 75.9784 145.963 75.8744 145.779C75.819 145.677 75.1673 143.787 75.1274 143.61C74.5688 141.015 76.3892 137.622 77.7664 135.412C75.771 134.953 73.343 134.384 71.6606 133.264C69.6127 131.901 68.2818 129.327 65.5028 128.846L65.3316 127.706C70.8855 124.861 76.1809 124.231 82.2318 125.909C86.7766 127.168 91.4358 129.35 96.1177 130.767C100.091 131.97 104.221 133.172 108.318 133.974C109.904 134.286 113.848 135.141 115.222 135.159C116.846 135.178 117.048 133.749 118.029 132.786C120.237 130.616 122.725 128.703 125.609 127.347C121.953 123.803 118.367 120.216 115.441 116.106C115.23 116.118 115.022 116.131 114.812 116.144L116.907 114.258C117.313 114.037 117.732 113.831 118.13 113.597C120.994 113.492 120.207 113.166 120.854 111.673C120.925 111.507 121.344 110.823 121.43 110.759C121.618 110.618 122.219 110.592 122.644 110.235C123.159 109.803 124.388 108.438 124.751 108.212C124.801 108.182 125.582 107.884 125.677 107.862C130.158 106.854 135.944 106.989 140.265 105.265C142.796 104.255 149.662 98.2714 151.171 96.045C151.15 96.5973 150.921 97.6757 150.667 98.1266C149.491 100.22 146.216 102.517 144.408 104.224C145.246 104.366 146.335 103.931 147.161 103.709C156.314 101.245 166.564 97.3525 174.28 92.1147C180.328 88.0113 183.905 81.8443 192.611 83.8245C193.663 84.0638 194.558 84.7159 195.657 84.826C197.552 86.3926 201.036 88.6923 200.799 91.3946C200.815 91.649 200.167 91.6268 200.028 91.5816C199.904 91.5435 198.749 89.9881 198.481 89.6336C196.999 87.6762 197.091 87.6088 194.805 86.343C194.412 86.1251 194.431 86.0541 193.826 85.817C192.597 85.3332 191.414 84.7982 189.979 84.8806C190.521 103.253 179.559 122.833 160.501 129.751C160.29 129.761 160.082 129.777 159.872 129.789C159.525 129.808 159.073 129.763 158.946 130.139C158.748 130.127 158.518 130.165 158.316 130.178C157.607 130.229 157.439 130.522 157.39 130.527C144.001 132.365 132.931 127.49 126.562 116.406C125.531 114.614 124.948 112.341 123.98 110.726C122.538 108.323 122.493 113.551 121.885 114.176C121.784 114.279 119.58 115.385 119.278 115.505C118.715 115.73 117.367 115.383 117.657 116.107C117.986 116.928 121.116 120.357 121.949 121.239C122.879 122.225 126.53 125.877 127.527 126.262C128.005 126.448 129.505 126.531 129.631 126.698C129.821 126.949 129.594 127.643 129.917 128.102C130.117 128.385 134.02 130.525 134.693 130.863C149.003 138.058 164.61 137.012 179.395 131.234C185.742 128.752 194.49 123.84 198.679 118.762C205.481 110.511 208.947 97.1369 207.438 86.9244C205.005 70.4602 191.387 68.3641 180.565 80.9064C179.594 82.0329 178.312 84.4229 177.385 85.2295C176.981 85.5821 176.741 85.7876 176.132 85.7255C175.189 84.9527 180.334 78.929 181.184 78.0868C184.262 75.0251 188.635 71.7741 193.265 71.4933C193.327 70.4789 191.399 70.9329 190.662 70.3437C188.981 69.0033 192.08 67.373 192.632 66.2614C190.679 65.8353 188.23 66.77 186.62 65.5596C186.13 64.4554 188.596 61.2108 189.141 59.9303C189.997 57.9212 190.589 55.5655 190.598 53.3932C190.211 52.2343 184.509 54.8356 183.294 53.4479C182.535 52.4918 183.871 49.096 183.901 47.5971C183.923 46.4964 183.867 45.2957 183.352 44.3006C181.537 43.9144 173.733 48.0448 172.85 46.9216L173.473 42.2336C168.472 42.9052 163.983 43.645 159.289 45.4401C156.889 46.3585 154.277 48.94 154.211 44.8828C149.062 46.5258 143.872 49.128 140.332 53.0511C140.127 53.1174 139.923 53.2885 139.72 53.3815C138.23 53.6071 136.809 54.151 135.369 54.5268C135.287 54.0372 135.595 53.4862 135.594 53.0481C136.991 49.7373 139.855 46.8743 142.88 44.7432C143.191 44.5226 145.32 42.9032 145.162 44.117C144.959 45.6695 137.811 50.3 137.8 52.9132C138.577 52.2608 139.262 51.3937 140.042 50.7359C143.775 47.5885 149.75 44.0889 154.793 43.4066C156.258 43.2094 156.65 43.3144 156.404 44.7378C158.515 43.7163 160.751 42.765 163.036 42.1387C164.991 41.6024 172.644 40.0535 174.119 40.7776C174.331 40.8802 174.554 40.9257 174.625 41.1794L174.595 45.0946C175.069 45.501 182.017 41.8021 183.824 42.4037C187.033 43.4732 185.424 49.9981 184.837 52.3778C186.539 51.9349 191.498 50.438 192.11 52.6718C193.08 56.2086 190.126 60.8242 189.03 64.1327C190.28 64.196 195.331 64.3008 195.894 65.1721C196.957 66.8218 193.115 67.5327 193.127 69.1526C194.062 69.3319 197.4 69.9904 197.953 70.4645C198.391 70.8382 198.19 71.5386 198.669 71.8882C199.109 72.208 200.771 72.7057 201.56 73.2057C205.762 75.862 208.385 81.9317 209.029 86.4964C210.799 98.9963 206.269 112.879 197.332 122.368C197.1 122.985 198.782 122.715 199.449 123.249C201.657 125.009 197.097 124.775 196.143 124.997C192.883 125.758 188.477 129.315 186.544 131.823C177.77 143.208 183.691 156.158 167.616 163.437C163.697 165.211 157.994 167.463 153.979 165.008C151.288 163.361 147.113 158.628 144.453 156.356C140.203 152.729 135 148.089 130.479 144.909C128.339 143.403 126.062 142.08 123.868 140.656C118.268 137.018 112.097 136.735 105.704 135.156C100.45 133.857 95.2278 132.228 90.2415 130.24L89.6357 131.135C84.1226 129.298 79.1123 134.87 77.5332 139.224C75.9541 143.578 77.2191 144.979 81.0328 147.5C80.7958 145.332 82.294 143.16 83.6657 141.477C84.625 140.298 87.7659 136.987 89.3733 137.357L89.9294 138.016C86.3139 141.382 80.318 146.283 84.7407 151.23C87.3471 154.145 92.2168 153.707 95.9403 153.619C95.2863 152.07 95.4319 150.188 96.5987 148.897L92.526 149.433C92.2599 148.541 93.0056 147.66 93.6418 147.024L95.4938 146.325C95.7981 146.325 96.1776 146.229 96.4377 146.267C96.4296 146.891 97.4478 147.291 97.9551 147.626C102.982 150.933 108.027 154.266 113.696 156.287C115.876 157.065 118.388 160.19 119.893 161.904C124.268 166.888 127.822 172.503 132.149 177.479C132.266 177.652 132.368 177.853 132.499 178.044C132.776 178.454 133.064 178.708 133.182 178.881C133.997 180.083 135.012 181.371 135.931 182.521C136.562 183.31 136.298 182.837 136.596 183.066C136.718 183.158 138.089 184.972 138.412 185.374C141.248 188.872 143.999 192.437 146.862 195.912C147.432 195.947 147.109 195.26 147.038 194.952C146.438 192.433 144.805 189.902 145.221 187.226L149.731 196.478C150.764 197.455 158.227 200.567 159.788 200.846C163.098 201.433 168.487 198.308 169.881 198.642C171.66 199.068 169.115 201.847 168.422 202.362C172.495 202.248 176.059 199.465 179.608 197.67C180.345 197.297 182.164 196.823 182.515 196.584C182.821 196.374 182.847 195.249 183.817 195.854L184.104 198.029L200.035 185.844C201.719 185.05 202.139 186.661 202.365 186.655C206.107 181.94 208.402 175.57 209.551 169.817C209.97 167.719 210.999 156.744 212.018 156.015C212.395 155.729 212.715 156.088 212.972 156.126C212.61 162.225 211.95 168.724 210.402 174.673C209.517 178.071 206.052 187.206 203.158 189.249C201.961 190.093 200.557 190.158 200.423 188.537L199.958 188.566C196.618 191.173 193.402 193.969 189.952 196.449C188.765 197.303 184.189 200.693 183.048 200.658C180.763 200.586 182.793 198.346 182.163 197.275C180.918 198.947 178.844 199.671 177.213 200.94C177.688 201.556 177.99 202.277 178.165 203.013C180.122 211.172 177.782 222.082 174.839 229.949C170.881 240.539 161.674 251.155 153.913 259.648C152.824 260.838 151.232 261.806 150.666 263.362C148.425 265.897 147.448 269.47 147.127 272.663L146.186 272.721C145.369 263.157 154.449 257 160.302 250.331C167.707 241.889 172.84 233.547 175.513 222.877C177.285 215.807 178.228 208.82 175.956 201.756C173.065 203.046 169.654 204.445 166.426 203.826C165.473 202.742 167.912 201.418 168.298 200.47C165.722 201.135 163.057 202.18 160.344 202.12C157.507 202.058 152.588 200.509 150.65 198.618L150.748 200.079C150.055 201.121 147.967 199.145 147.321 198.679C142.872 195.476 138.361 189.422 134.81 185.089C131.382 180.905 128.831 175.922 123.898 173.232C122.255 172.336 120.352 171.783 118.692 170.925C115.613 169.332 113.191 167.246 110.982 164.715C110.264 164.59 110.364 165.516 110.253 165.639C90.07 187.742 69.5194 219.933 73.3979 249.928C77.6513 282.826 108.476 296.561 141.018 298.482C144.33 298.677 147.69 298.574 150.94 298.797C148.143 290.297 147.599 282.219 149.074 273.423L149.704 273.385C149.312 276.602 148.757 281.113 149.106 284.261C149.197 285.086 149.418 285.478 149.528 285.993C149.729 288.811 150.094 290.275 150.901 292.94C153.927 302.947 163.184 316.109 174.216 319.597C178.813 321.05 180.237 319.554 184.564 319.01C194.348 317.779 199.326 319.154 204.426 309.784C209.345 300.743 208.55 292.959 209.485 283.436C209.881 279.396 211.112 275.318 211.169 271.232C211.228 267.079 210.401 261.706 209.701 257.558C208.486 250.357 206.218 243.352 204.701 236.22C204.784 235.035 206.046 235.202 206.126 234.893C206.308 234.178 205.67 232.65 205.58 231.75C204.604 221.765 206.278 214.333 208.367 204.758C209.294 203.349 209.292 201.468 209.654 199.992C210.433 196.818 210.383 193.921 213.931 197.679C214.075 192.077 213.334 186.462 213.539 180.859C213.749 175.108 214.993 169.398 215.594 163.693C215.737 162.338 215.322 158.063 216.53 157.787L218.147 158.161C217.773 150.121 215.562 142.295 213.249 134.615L213.944 134.14C215.856 134.652 216.339 136.676 217.84 137.675C217.092 134.447 215.96 131.243 215.392 127.974C215.128 126.448 214.475 123.778 215.32 122.439C216.49 120.586 219.146 122.503 220.726 122.85C221.375 122.095 215.409 107.616 214.758 105.347C212.162 96.3192 215.46 99.0282 221.524 102.291C221.757 102.347 221.69 102.058 221.662 101.842C221.173 98.2485 217.39 92.7847 216.266 88.8541C215.123 84.8628 214.82 80.3821 214.042 76.2771C213.716 74.5607 212.078 69.7585 212.412 68.4856C212.505 68.1251 212.792 67.8441 213.151 67.6851L216.791 68.8895C215.464 64.4338 213.672 60.0092 211.117 56.048C210.579 55.2101 207.981 51.4826 207.401 51.0934C206.274 50.3346 200.517 51.4798 200.333 52.4963C202.665 56.3261 202.852 60.943 201.559 65.1344C199.705 62.1596 199.616 58.3807 198.258 55.0827C197.785 53.9317 196.951 53.3376 196.91 53.2273C196.755 52.8309 197.296 50.8707 196.992 49.8867L197.74 46.6183C200.762 42.3721 206.094 39.7263 211.013 37.6754C216.861 35.2372 223.223 34.1382 229.217 31.8066C233.433 30.1669 237.994 28.1864 241.613 25.5916C242.454 25.3117 243.411 25.9358 243.28 26.8388C242.362 27.2203 238.089 32.4353 236.584 33.6859C232.161 37.3566 226.433 39.9193 220.808 41.5456C213.964 43.5261 206.058 43.7869 201.059 49.1997C202.957 48.933 204.549 48.4807 206.537 48.4263C214.228 48.2243 217.996 50.3213 226.235 47.656C237.38 44.0495 247.325 35.7377 249.471 24.6994C249.526 24.4165 249.974 24.0182 249.712 23.5128C247.36 24.5222 244.85 23.6599 242.439 23.372C223.647 21.1357 201.59 28.7725 195.87 47.0231C195.462 48.3247 195.69 50.0041 193.828 49.7848C193.797 48.8997 193.6 47.9012 193.695 47.0406C194.164 42.8244 196.757 39.0802 199.284 35.6841C194.798 34.4885 189.432 32.9167 194.397 28.0731C192.887 28.2086 191.347 28.1872 189.836 28.3523C188.204 28.5301 181.643 30.1574 180.736 29.4979C180.154 29.074 180.305 26.1458 180.327 25.2709C180.399 22.146 181.114 19.0624 181.496 15.975C177.544 19.1976 174.167 22.9118 171.055 26.8276C170.019 27.0468 165.903 24.0735 165.21 24.0191C164.057 23.9258 165.028 26.8739 162.601 26.794C155.643 25.0106 148.671 21.7766 141.282 22.2423C142.952 24.336 147.357 29.3747 142.225 30.358C136.609 31.4329 131.551 30.6808 126.286 33.6479C124.807 34.4829 123.726 35.7585 122.286 36.6153C122.597 38.1338 124.734 38.777 124.402 40.5578C127.026 39.6366 130.256 37.6945 132.959 37.1662C134.351 36.8956 135.426 37.5232 134.186 38.4619C133.275 39.1519 129.719 39.9931 128.208 40.7683C125.46 42.1756 122.562 44.6188 120.684 46.935C123.026 45.9047 133.207 43.2012 135.055 44.1443C136.209 44.7322 133.152 46.7094 132.69 47.2134C132.381 47.5522 129.278 51.2093 129.486 51.374L135.484 52.2405C135.632 52.3847 135.549 52.5913 135.571 52.762C133.282 53.3375 130.509 52.8057 128.115 52.6539L127.671 51.9769L132.607 45.6219C131.06 46.0042 128.6 46.0016 127.224 46.6126C125.949 47.1771 125.093 49.662 124.212 50.7964C122.74 52.6926 120.733 53.7455 118.653 54.9748L123.447 55.9983L125.088 56.9192C124.726 57.0113 124.041 57.5182 123.55 57.5993L122.921 57.6378C117.918 55.4766 111.065 57.0196 107.992 61.4813L107.38 61.8116C106.893 61.9006 106.252 61.7947 105.807 61.9079L105.818 61.9019ZM91.4764 18.5392C95.4029 27.5421 95.7152 35.6749 105.494 41.1185C108.292 42.6754 111.363 44.0947 114.73 44.3321C115.065 44.3546 115.891 44.511 115.78 44.0099C106.047 42.3425 105.927 32.1471 101.443 25.643C100.696 24.5599 99.4667 23.1219 98.4981 22.2082C97.2254 21.0121 93.3739 19.3396 94.7462 17.7612L98.1759 19.5939C99.7654 21.4211 101.985 21.9975 103.285 23.4016C108.357 28.8698 111.513 37.0732 118.633 40.5507C120.264 41.3486 122.489 42.774 123.802 40.8821C119.596 39.0512 118.351 34.1362 116.28 30.5942C111.277 22.0389 103.522 17.1407 93.7284 14.0069C92.0793 13.4789 90.4284 12.873 88.6201 13.1504C89.6898 14.8642 90.6774 16.704 91.4764 18.5392ZM117.37 44.2028L116.115 44.2796L116.132 44.5661L117.403 44.784L117.367 44.2029L117.37 44.2028ZM57.7726 159.471C60.2633 158.886 61.7381 156.425 61.538 154.15L39.1486 88.1379C38.1278 86.8914 36.4023 86.5804 34.8161 86.4652L7.94355 88.5508L6.46231 90.2434C9.29017 90.3391 12.0085 89.4981 14.7689 89.1544C20.4248 88.4481 28.2802 87.3249 33.8253 88.1224C35.2312 88.3239 36.7908 88.5268 37.6536 89.6996L59.2478 154.034C59.6932 155.725 59.4335 157.305 58.4661 158.778C58.1958 159.189 57.6975 159.048 57.7696 159.468L57.7726 159.471ZM34.7274 159.709L56.0348 159.574C59.1652 157.655 59.0407 155.431 58.1919 152.357C55.7875 143.654 51.7583 134.77 48.8092 126.162C44.7349 114.27 41.3748 102.166 37.0362 90.3583C36.5756 89.5076 34.9653 89.4234 33.9546 89.2406C27.7021 88.1048 22.7894 89.1177 16.7132 89.9143C13.3246 90.3609 9.91875 90.7629 6.522 91.124L18.7289 130.513C19.2154 130.604 19.2443 130.366 19.4993 130.178C20.5227 129.43 21.4608 128.142 22.7202 127.275C25.6034 125.292 29.9376 123.917 33.4588 123.459C33.7816 125.324 32.5393 126.991 31.8841 128.689L32.845 129.241C33.2835 130.439 29.1613 136.274 29.5255 136.591C33.1234 134.357 37.9227 133.338 40.4872 137.366C41.0194 138.204 41.373 140.383 41.4962 140.502C41.5887 140.593 43.2476 140.809 44.0457 141.4C49.2264 145.238 44.4481 151.761 40.7489 154.801L34.7299 159.704L34.7274 159.709ZM149.204 104.952L132.381 108.761C134.32 109.76 136.464 113.029 138.2 113.842C138.632 114.044 138.957 114.188 139.461 114.041L147.891 110.526L149.201 104.949L149.204 104.952ZM151.954 129.379C152.037 124.961 156.326 123.749 160.384 124.759C161.552 125.048 163.678 126.503 163.996 126.54C164.343 126.583 166.359 125.678 166.572 125.423C167.056 124.842 166.713 123.56 166.928 122.665C167.387 120.739 169.524 119.681 171.456 119.442C172.471 119.315 173.977 119.637 174.503 119.473C174.799 119.38 176.721 117.362 176.939 116.999C177.668 115.796 176.709 115.793 176.41 114.793C176.02 113.483 176.229 111.925 177.365 110.993C172.418 108.973 166.449 108.403 161.62 111.11C157.454 113.445 155.849 116.702 152.621 119.259C152.215 119.582 151.261 120.13 151.03 119.338C150.706 118.223 156.095 112.779 157.203 111.792C152.34 111.635 147.71 114.423 145.14 118.12C144.719 118.727 143.186 121.315 143.271 121.855C143.366 122.457 144.54 123.036 145.001 123.8C145.846 125.205 145.933 127.243 146.282 128.823L151.949 129.385L151.954 129.379ZM177.95 115.201C178.462 115.648 180.641 112.303 180.854 111.9C181.857 110.006 178.987 110.447 178.054 111.822C177.211 113.058 177.727 113.917 177.95 115.201ZM32.284 124.999L30.555 125.105L30.4344 125.69L32.0557 126.475L32.284 124.999ZM19.3763 161.824C22.8199 166.867 27.5461 168.771 30.6039 172.575C31.2344 173.362 32.7474 177.253 32.9905 177.391C33.1406 177.476 33.6826 177.101 34.0084 177.122C34.9395 177.186 42.6861 183.42 44.1331 184.482C45.5952 185.554 51.3134 190.173 52.2342 190.59C52.985 190.928 54.0339 190.929 55.0759 191.338C56.7382 191.989 58.6809 193.859 59.71 194.247C60.8903 194.691 70.1375 195.62 71.5516 195.528C72.3452 195.476 72.7467 194.936 73.308 194.923C75.1335 194.878 79.4644 196.761 81.5502 197.136C82.0512 197.226 83.6624 197.42 84.1025 197.415C85.1301 197.4 85.1701 196.207 85.5684 195.567C92.7937 184.006 100.262 173.013 109.947 163.015L110.258 157.43L105.605 154.831C104.903 154.815 104.163 156.231 103.718 156.661C94.7555 165.313 87.1877 163.61 75.6502 165.12C73.7991 165.362 71.8774 166.106 70.0494 166.347C64.7525 167.048 56.2693 166.814 51.181 165.29C48.5246 164.493 45.3613 161.757 43.0634 161.374C41.5091 161.114 33.5656 161.509 33.1957 161.099C33.0434 160.931 32.8265 160.226 32.8404 159.981C32.8961 158.902 39.0866 154.293 40.3244 153.072C42.6279 150.802 45.3453 147.768 44.3918 144.451C43.9204 142.808 43.113 141.546 41.0582 141.725C36.3694 142.136 30.7241 148.316 28.2808 151.804C28.0781 152.091 28.008 152.461 27.9795 152.798C27.2262 152.941 27.2691 152.791 27.3756 152.163C27.5029 151.403 28.2115 149.583 28.6969 148.946C29.7642 147.545 33.3684 144.134 34.8666 143.05C36.3648 141.967 37.8984 141.177 39.7504 140.666C40.1111 140.168 39.406 139.109 39.125 138.637C37.8048 136.428 36.2795 135.838 33.6064 136.472C32.2098 136.803 28.3985 139.385 27.2228 140.39C25.3506 141.99 24.1211 144.482 23.1814 146.644L22.5462 146.538C22.4902 145.907 22.4975 145.269 22.4302 144.642C23.3927 143.279 23.747 141.731 24.8894 140.419C25.2712 139.982 27.2786 138.556 27.3514 138.42C27.5175 138.103 27.3283 137.19 27.5466 136.497C28.1417 134.622 31.438 130.585 31.5483 129.215C31.608 128.486 31.0049 128.195 30.5567 127.736C26.607 123.701 20.4711 131.097 18.6957 134.232C13.9974 142.535 13.9913 153.937 19.3731 161.818L19.3763 161.824ZM74.452 132.669C74.3725 133.501 78.1748 134.559 78.4695 134.498C80.4185 131.642 83.6533 128.966 87.5084 129.23C87.0547 128.729 85.9227 128.459 85.2347 128.2C81.2666 126.707 75.8442 125.12 71.7213 126.966C70.3028 127.601 69.4681 128.165 70.0553 129.664C70.6425 131.163 72.7327 132.744 74.4521 132.671L74.452 132.669ZM168.083 124.301L172.627 121.241C172.631 120.451 170.076 121.314 169.63 121.551C168.538 122.134 168.197 123.187 168.083 124.298L168.083 124.301ZM143.027 124.16C141.78 123.156 137.435 122.973 137.786 125.118C137.976 126.27 143.014 128.066 144.317 128.392C144.608 127.977 143.572 124.597 143.027 124.158L143.027 124.16ZM161.963 127.603C162.352 127.055 160.15 126.152 159.75 126.045C156.751 125.239 153.578 126.13 153.225 129.309C156.245 129.334 159.135 128.499 161.963 127.6L161.963 127.603ZM134.464 132.516C134.415 132.476 133.603 132.362 133.2 132.134C132.264 131.606 127.693 128.588 127.177 128.627C123.45 130.127 120.37 132.879 117.928 135.864C119.823 135.77 123.807 138.614 125.162 138.359C125.964 138.208 130.076 135.094 131.211 134.417C132.217 133.818 133.019 133.57 134.034 133.123C134.303 133.007 135.062 133.012 134.464 132.514L134.464 132.516ZM132.475 136.148C130.541 137.251 128.75 138.578 126.832 139.711C127.822 142.018 130.651 142.262 132.79 143.741C136.986 146.64 141.984 151.147 145.928 154.51C148.453 156.665 153.044 161.756 155.609 163.153C158.412 164.683 161.427 164.047 164.406 163.294C168.274 162.316 170.63 160.895 173.146 157.983C179.891 150.171 177.644 138.966 184.279 130.932C171.195 136.947 156.924 139.423 142.715 135.823C141.291 135.461 138.373 134.142 137.215 134.106C135.63 134.055 133.735 135.432 132.473 136.151L132.475 136.148ZM124.863 171.77C121.936 168.404 119.455 164.119 116.434 160.882C116.109 160.534 113.673 158.226 113.462 158.097C113.065 157.852 112.798 157.799 112.326 157.892C110.006 163.971 116.798 167.861 121.526 170.456L124.86 171.77L124.863 171.77ZM272.794 250.611C273.253 248.653 273.994 246.691 274.01 244.68C270.761 244.707 270.058 247.19 268.132 249.146C266.927 250.373 265.258 251.472 264.082 252.757C266.197 253.278 268.543 253.784 269.933 255.473C269.84 255.842 270.08 256.496 270.023 256.933C269.592 257.053 269.394 256.842 269.061 256.701C268.109 256.295 267.536 255.41 266.441 254.943C265.588 254.578 263.341 254.038 262.454 254.179C260.399 254.501 253.99 260.65 251.004 261.035C250.601 261.602 253.846 262.793 254.443 263.17C256.999 264.793 258.459 266.816 259.111 269.615C259.666 272.011 259.4 274.191 259.228 276.639C264.499 270.403 269.309 262.793 271.73 255.146C272.213 253.616 272.436 252.149 272.797 250.613L272.794 250.611ZM75.5836 274.986C74.6734 292.115 79.5173 316.957 102.235 318.179C108.47 318.515 117.605 316.098 121.705 311.265C125.185 307.16 125.423 303.764 130.075 299.569C130.289 299.376 130.67 299.543 130.432 298.878C108.901 296.392 86.2965 286.323 77.004 267.282C76.5164 267.363 76.5455 267.743 76.4529 268.077C75.976 269.799 75.6795 273.145 75.5836 274.986ZM257.084 272.666C257.08 272.411 257.38 271.968 257.328 271.355C257.211 269.954 256.314 267.649 255.39 266.521C254.466 265.392 250.48 262.663 249.014 262.613C247.94 262.577 242.797 265.327 241.268 265.944C236.928 267.699 232.472 269.275 227.877 270.357L232.706 272.279C237.022 274.122 243.029 280.281 243.911 284.608C244.275 286.391 244.78 290.752 242.434 291.436C242.282 289.564 243.017 288.081 242.739 286.144C241.91 280.322 235.221 274.464 229.488 272.543C224.608 270.907 221.514 271.723 216.613 272.216L212.801 271.863L212.504 276.096C212.647 276.63 213.525 276.818 213.752 277.079C217.522 281.39 219.424 292.21 219.123 297.698C219.095 298.197 218.257 301.358 217.713 299.795C217.351 298.756 217.561 296.708 217.401 295.463C216.762 290.511 215.9 285.137 213.652 280.6C213.312 279.914 213.052 278.565 211.954 278.656C210.884 283.42 211.331 288.268 210.939 293.074C210.608 297.134 209.391 302.869 207.985 306.731C207.313 308.578 206.091 310.29 205.475 312.155C219.252 308.519 232.263 301.31 243.11 292.69C245.882 290.489 255.669 282.02 256.552 279.313C257.211 277.292 257.105 274.761 257.076 272.672L257.084 272.666ZM114.526 317.719C107.299 320.35 101.399 320.668 93.9663 318.615C93.2295 318.41 91.9227 317.558 91.3847 317.714C87.5896 320.986 80.046 321.951 77.1164 325.731C75.9458 327.244 75.137 328.61 76.4892 330.253L81.3217 330.011C83.5119 327.926 86.2871 325.315 89.7075 325.103C89.6967 325.448 89.9134 325.722 89.5659 326.01C88.7749 326.671 86.8258 327.395 85.6921 328.327C84.9582 328.928 84.3516 329.621 83.7124 330.303C84.1605 330.902 84.8009 330.572 85.3067 330.646C88.0047 331.035 91.0238 330.562 93.8225 330.418C96.4363 330.282 99.0813 330.136 101.691 329.936C105.702 329.626 111.626 329.465 115.37 328.811C118.389 328.285 119.143 325.798 118.517 323.321C117.974 321.172 115.6 319.363 116.376 317.026C116.172 316.863 114.906 317.583 114.523 317.722L114.526 317.719ZM179.249 322.254C178.33 322.385 177.343 322.314 176.418 322.43C177.276 325.377 174.378 328.737 177.583 331.145C178.296 331.682 178.809 332.148 179.856 332.178C182.089 333.721 184.235 335.366 187.092 335.93C188.676 336.242 191.264 336.352 192.362 335.221C194.562 332.955 189.598 330.012 190.522 328.584C191.729 326.726 194.097 331.849 194.386 332.167C195.796 333.72 202.629 335.049 204.618 334.177C206.852 333.197 204.815 331.147 206.583 330.684C207.763 330.375 213.772 333.496 215.876 332.314C214.916 328.328 209.671 328.874 206.389 328.126C203.165 327.391 201.116 324.401 198.847 322.363C197.921 321.53 196.193 320.797 196.15 319.752C190.931 321.402 185.381 321.096 179.989 321.899C179.587 321.959 179.3 322.243 179.246 322.251L179.249 322.254Z" fill="#0B0908"/>
<path d="M71.9438 71.0065C66.4658 77.6473 67.6125 88.1454 69.4475 95.8302C69.8493 97.5177 71.2341 102.722 72.0522 103.971C74.4678 107.65 83.1143 109.18 87.4605 109.561C89.1326 109.709 90.9247 109.497 92.4362 109.625C96.7117 109.987 100.989 110.846 105.345 110.692C107.022 111.057 108.325 114.869 109.746 115.71C111.042 116.477 113.345 116.226 114.823 116.135C115.033 116.122 115.241 116.11 115.452 116.097L113.744 116.779C108.719 120.933 103.217 124.581 98.1111 128.638C97.3899 129.209 96.1965 129.83 96.1286 130.756C91.4467 129.339 86.7875 127.156 82.2427 125.897C76.1918 124.219 70.8964 124.85 65.3425 127.695L65.5137 128.835C68.2898 129.315 69.6208 131.889 71.6715 133.253C73.3539 134.373 75.779 134.942 77.7772 135.4C76.4001 137.611 74.5797 141.004 75.1383 143.598C75.1753 143.776 75.8299 145.666 75.8853 145.767L63.1682 154.749C63.1155 151.758 61.8308 149.229 61.0769 146.381C60.8883 145.666 61.1525 143.592 59.9722 143.812C58.8622 140.681 57.8277 137.508 56.8656 134.334C56.5317 133.233 56.4389 132 55.9939 130.743C55.7027 129.914 55.2095 128.673 54.5819 128.028C51.5573 119.037 48.1774 110.16 45.0646 101.196C43.8401 97.6637 43.0575 93.9192 41.7026 90.4328C40.8809 88.3221 39.934 86.3428 37.4503 85.5729C33.8204 84.4458 26.5296 86.0371 22.507 86.3505C18.4844 86.6639 13.8733 86.6397 9.74797 87.1207L71.9411 71.0093L71.9438 71.0065Z" fill="#AFE3FC" fill-opacity="0.52"/>
<path d="M125.728 56.8747L128.744 59.617L129.362 59.4314L128.874 56.6794L130.175 56.7718C134.404 66.4066 130.918 76.7663 120.592 81.3547C122.841 82.3594 125.37 82.7878 127.494 84.0608C127.993 84.3608 130.22 85.8587 129.747 86.5085C126.83 85.1873 123.301 83.624 120.078 83.1359C116.039 82.523 113.173 84.0666 109.252 84.5377C106.388 84.8823 103.126 84.9825 100.269 84.7999C102.631 87.1738 105.648 89.6903 107.134 92.6661C107.272 92.9425 107.694 93.5296 107.295 93.7394C102.681 89.6408 98.7105 83.5219 91.388 84.169C92.5315 87.4668 92.3234 91.0246 93.3676 94.358C94.8403 99.0575 98.2981 100.45 94.8782 106.019C94.6068 106.46 93.138 107.741 93.4821 108.061C96.6933 108.362 99.9417 108.795 103.172 108.93C108.154 109.141 113.974 109.699 118.139 106.789L125.888 100.807C126.184 101.05 124.452 103.102 124.161 103.41C122.389 105.273 119.88 106.878 117.831 108.479C120.109 109.012 122.631 107.661 124.762 108.2C124.399 108.427 123.17 109.792 122.654 110.224C122.23 110.581 121.632 110.606 121.441 110.747C121.18 110.094 120.595 110.226 120.004 110.233C116.065 110.264 112.102 111.072 108.17 110.683L111.001 114.856L116.915 114.25L114.82 116.136C113.342 116.226 111.039 116.477 109.744 115.71C108.322 114.87 107.019 111.057 105.343 110.692C100.986 110.843 96.7088 109.987 92.4334 109.625C90.9218 109.497 89.1296 109.707 87.4576 109.562C83.1114 109.18 74.4647 107.648 72.0493 103.971C71.2312 102.723 69.8464 97.5179 69.4447 95.8304C67.6096 88.1455 66.4628 77.6448 71.9409 71.0067C72.2262 70.8387 72.5383 70.7309 72.867 70.657C74.3332 70.3281 75.6983 69.7688 77.2361 69.8037C82.8126 69.9327 88.0062 78.7155 90.8582 82.4705C94.5775 82.5519 98.201 83.5289 101.93 83.5237C106.91 83.5173 112.752 82.6436 117.407 80.9637C117.702 80.857 118.123 80.8715 118.007 80.4943C109.277 80.6819 102.755 73.8214 104.249 65.7474C104.473 64.5376 105.128 63.4546 105.204 62.2324C105.484 62.1616 105.71 61.93 105.816 61.9021C106.261 61.7888 106.905 61.8945 107.389 61.8058C106.17 65.4739 105.15 68.1193 106.812 71.8852C109.571 78.1428 118.064 80.6628 124.207 76.8411C127.196 74.981 130.421 69.1178 130.353 65.7784C130.277 62.1303 126.606 59.334 123.556 57.5962C124.047 57.5151 124.734 57.0081 125.093 56.9162C125.282 56.8697 125.531 56.9243 125.723 56.8777L125.728 56.8747ZM129.545 59.8637L129.562 60.1556C129.761 60.0466 129.755 59.9475 129.545 59.8637ZM74.7287 71.4892C74.1097 71.648 73.4535 72.1451 72.9769 72.5478C66.9767 77.616 69.9566 96.1001 73.13 102.219C74.9335 105.697 81.3812 107.042 85.2311 107.55C89.7177 108.144 92.1578 108.72 93.7792 104.017C94.9752 100.552 92.6906 99.0601 91.5819 96.2359C89.8516 91.8237 90.6807 86.7656 88.7631 82.4186C86.9635 78.3413 80.2054 70.0815 74.7289 71.4918L74.7287 71.4892Z" fill="#4F88A4"/>
<path d="M105.207 62.2323C105.134 63.4543 104.476 64.5374 104.252 65.7472C102.758 73.8213 109.283 80.6815 118.01 80.4941C118.123 80.8715 117.705 80.8568 117.41 80.9635C112.752 82.6436 106.91 83.5173 101.932 83.5236C98.2039 83.5287 94.5804 82.5517 90.861 82.4703C88.0091 78.7154 82.8155 69.9325 77.2389 69.8035L77.2211 69.5116C86.3779 67.6852 96.0803 64.5487 105.207 62.2323Z" fill="#AFE3FC" fill-opacity="0.52"/>
<path d="M77.2211 69.5116L77.2389 69.8035C75.7012 69.7686 74.336 70.3279 72.8698 70.6568C73.7121 69.2695 75.8385 69.7871 77.2211 69.5116Z" fill="#77592F"/>
<path d="M197.082 319.405L197.414 319.677C197.123 319.649 196.778 319.748 196.473 319.732L196.455 319.446C196.646 319.394 196.972 319.468 197.082 319.405Z" fill="#FCB38C"/>
<path d="M135.585 52.7557C135.563 52.5851 135.646 52.3811 135.498 52.2343L129.5 51.3677C129.295 51.2002 132.395 47.5459 132.704 47.2071C133.163 46.7006 136.224 44.7259 135.069 44.1381C133.224 43.1948 123.04 45.8984 120.698 46.9287C122.576 44.6125 125.477 42.1718 128.222 40.7621C129.733 39.9869 133.289 39.1457 134.2 38.4556C135.437 37.5171 134.362 36.8895 132.973 37.16C130.27 37.6882 127.04 39.6303 124.416 40.5516C124.748 38.7708 122.611 38.1275 122.3 36.6091C123.74 35.7523 124.821 34.4766 126.3 33.6416C131.565 30.6719 136.623 31.4266 142.239 30.3518C147.371 29.3684 142.966 24.3297 141.296 22.236C148.685 21.7703 155.654 25.0018 162.615 26.7878C165.043 26.8677 164.074 23.922 165.224 24.0129C165.917 24.0699 170.034 27.0406 171.069 26.8213C174.182 22.9056 177.558 19.1913 181.51 15.9687C181.128 19.0561 180.413 22.1371 180.341 25.2647C180.319 26.1396 180.168 29.0677 180.75 29.4917C181.657 30.1511 188.218 28.5239 189.85 28.3461C191.358 28.1812 192.901 28.2023 194.411 28.0669C189.446 32.9104 194.812 34.4849 199.298 35.6778C196.774 39.0738 194.178 42.8155 193.709 47.0344C193.614 47.8949 193.811 48.8934 193.842 49.7785C193.845 49.8294 193.526 50.1526 193.595 50.7585C193.872 53.1579 196.168 54.2188 198.272 55.0737C199.63 58.3718 199.722 62.1505 201.573 65.1255C202.866 60.9314 202.679 56.3172 200.347 52.4874C200.531 51.4709 206.288 50.3257 207.415 51.0845C207.995 51.4737 210.59 55.2013 211.131 56.039C213.686 60.003 215.478 64.4249 216.805 68.8806L213.165 67.6762C212.806 67.8325 212.519 68.1162 212.426 68.4767C212.092 69.7496 213.731 74.5545 214.056 76.2682C214.837 80.373 215.14 84.851 216.28 88.8452C217.404 92.7757 221.183 98.2371 221.676 101.833C221.706 102.049 221.773 102.337 221.538 102.282C215.471 99.0168 212.176 96.3103 214.772 105.338C215.423 107.607 221.389 122.086 220.74 122.841C219.16 122.497 216.507 120.576 215.334 122.43C214.489 123.769 215.142 126.439 215.406 127.965C215.974 131.234 217.106 134.438 217.854 137.666C216.356 136.669 215.87 134.645 213.958 134.131L213.263 134.606C215.576 142.289 217.788 150.114 218.161 158.152L216.544 157.778C215.336 158.054 215.751 162.329 215.608 163.684C215.004 169.389 213.763 175.099 213.553 180.85C213.348 186.453 214.088 192.066 213.945 197.67C210.394 193.913 210.447 196.809 209.668 199.983C208.388 201.314 208.724 203.167 208.381 204.749C206.295 214.324 204.621 221.756 205.594 231.741C205.681 232.641 206.319 234.169 206.14 234.884C206.063 235.193 204.798 235.026 204.714 236.211C206.232 243.345 208.5 250.35 209.715 257.549C210.415 261.699 211.239 267.073 211.183 271.223C211.126 275.31 209.895 279.387 209.499 283.427C208.564 292.953 209.359 300.734 204.44 309.775C199.34 319.145 194.362 317.77 184.578 319.001C180.248 319.545 178.827 321.043 174.23 319.588C163.198 316.1 153.941 302.938 150.915 292.931C150.657 290.762 150.322 288.549 149.872 286.41C149.815 286.139 149.547 286.013 149.542 285.984C149.502 285.433 149.665 284.536 149.12 284.252C148.771 281.104 149.326 276.593 149.718 273.376C149.881 272.027 150.594 270.22 150.079 268.959C150.977 265.69 152.23 262.629 153.93 259.641C161.691 251.149 170.898 240.533 174.856 229.943C175.628 230.051 175.487 229.544 175.695 229.12C178.249 223.986 180.05 218.997 181.269 213.434C182.075 209.751 182.862 205.956 181.693 202.279C184.329 202.472 186.076 201.47 188.211 200.272C192.393 197.925 196.354 194.347 200.329 191.631C201.371 190.92 202.603 190.632 203.774 189.741C210.644 184.501 213.998 172.225 214.705 164.322C214.847 162.75 215.264 158.961 214.953 157.628C214.643 156.295 214.132 156.286 212.983 156.12C212.723 156.082 212.406 155.723 212.029 156.009C211.01 156.735 209.982 167.713 209.562 169.811C208.414 175.563 206.115 181.934 202.376 186.649C202.151 186.655 201.731 185.046 200.046 185.838L184.115 198.023L183.828 195.848C182.858 195.243 182.832 196.368 182.526 196.578C182.175 196.817 180.356 197.294 179.62 197.664C176.07 199.459 172.506 202.241 168.433 202.356C169.129 201.841 171.671 199.062 169.892 198.636C168.498 198.302 163.109 201.427 159.799 200.839C158.238 200.561 150.775 197.452 149.742 196.472L145.232 187.22C144.817 189.895 146.449 192.427 147.05 194.946C147.123 195.253 147.446 195.94 146.874 195.906C144.01 192.431 141.259 188.863 138.423 185.368C138.097 184.969 136.726 183.153 136.607 183.06L136.564 182.488L135.942 182.515C135.02 181.365 134.008 180.077 133.193 178.875L133.139 177.999L132.51 178.038C132.38 177.847 132.278 177.646 132.16 177.473C127.683 170.88 119.843 157.87 112.551 153.763C109.301 151.933 99.6991 146.723 96.4461 146.261C96.1859 146.223 95.8064 146.319 95.5022 146.319C95.3978 146.317 95.2383 145.937 94.55 146.194C93.9638 146.416 93.9421 146.723 93.6501 147.018C93.0168 147.654 92.2684 148.538 92.5344 149.428L96.607 148.891C95.4402 150.182 95.2947 152.065 95.9486 153.613C92.2252 153.701 87.3555 154.139 84.7491 151.224C80.3265 146.28 86.3224 141.379 89.9378 138.01L89.3817 137.351C87.7744 136.984 84.6333 140.292 83.6741 141.471C82.3023 143.154 80.8041 145.326 81.0411 147.494C77.2274 144.973 75.9625 143.572 77.5416 139.218C79.1207 134.864 84.1339 129.292 89.644 131.129L90.2499 130.234C95.2362 132.222 100.456 133.854 105.713 135.15C112.105 136.729 118.276 137.012 123.876 140.65C126.07 142.075 128.347 143.397 130.488 144.903C135.005 148.083 140.209 152.724 144.461 156.35C147.121 158.619 151.296 163.355 153.987 165.002C158.002 167.457 163.706 165.208 167.624 163.431C183.699 156.149 177.778 143.202 186.553 131.817C188.485 129.309 192.892 125.752 196.151 124.991C197.105 124.769 201.665 125 199.457 123.243C198.79 122.712 197.109 122.979 197.34 122.362C206.277 112.871 210.808 98.9904 209.037 86.4905C208.39 81.9233 205.77 75.8535 201.569 73.1998C200.776 72.7 199.117 72.2021 198.678 71.8823C198.198 71.5327 198.399 70.8323 197.962 70.4586C197.408 69.9845 194.071 69.326 193.136 69.1468C193.12 67.527 196.965 66.8159 195.902 65.1662C195.339 64.2949 190.291 64.1872 189.039 64.1268C190.137 60.8182 193.088 56.2027 192.118 52.6659C191.506 50.4348 186.548 51.929 184.845 52.3719C185.435 49.992 187.044 43.4671 183.832 42.3978C182.028 41.796 175.08 45.4949 174.604 45.0887L174.633 41.1735C174.563 40.9225 174.34 40.877 174.128 40.7717C172.652 40.045 164.997 41.5967 163.045 42.1328C160.759 42.7591 158.523 43.7104 156.413 44.7319C156.659 43.3085 156.267 43.2008 154.801 43.4007C149.758 44.0803 143.784 47.5826 140.05 50.73C139.271 51.3878 138.588 52.2548 137.808 52.9073C137.819 50.2941 144.967 45.6663 145.171 44.1111C145.331 42.8972 143.199 44.5167 142.888 44.7373C139.863 46.8711 136.999 49.7341 135.603 53.0423C135.603 52.9482 135.596 52.8438 135.585 52.7504L135.585 52.7557ZM188.228 169.652C187.379 168.938 184.572 173.494 183.756 173.885L178.642 178.146C180.798 177.867 183.012 176.215 184.589 174.847C185.304 174.228 189.2 170.469 188.228 169.655L188.228 169.652ZM198.66 205.93L197.712 206.117C197.134 206.564 197.942 213.271 197.931 214.613C197.878 220.656 196.013 226.78 194.298 232.561C194.739 232.378 195.129 231.462 195.321 231.047C197.453 226.447 199.877 215.644 199.61 210.715C199.575 210.048 198.896 206.047 198.663 205.93L198.66 205.93ZM184.748 236.664L185.946 230.439C184.919 231.695 184.428 234.38 184.141 236.029C184.032 236.66 183.994 236.804 184.748 236.664ZM188.028 269.566C187.064 263.903 186.829 257.942 187.918 252.288C187.531 252.456 187.095 252.908 186.89 253.243C185.385 255.698 185.475 264.599 186.088 267.411C186.29 268.345 186.719 269.912 188.03 269.563L188.028 269.566ZM176.058 275.282C175.913 275.696 174.964 276.193 175.206 276.799C175.719 276.558 176.147 276.026 176.391 275.554C178.288 271.906 177.884 265.585 179.327 261.605C177.056 261.854 177.636 265.611 177.369 267.345C177.035 269.51 176.721 273.378 176.058 275.282Z" fill="#C08F4B"/>
<path d="M110.273 165.635L112.998 171.008C116.651 175.023 121.807 176.096 125.512 180.253C131.594 187.076 133.774 195.571 142.305 201.166C145.212 203.071 147.434 203.029 150.524 204.044C158.886 206.787 158.839 207.397 168.186 206.648C169.328 206.556 170.778 206.965 172.15 206.376C172.861 206.958 171.328 218.542 171.008 220.271C167.576 238.858 148.156 251.937 144.637 270.461C143.235 277.844 143.811 284.518 145.474 291.799C142.698 292.136 139.951 291.887 137.191 291.629C109.845 289.059 85.5749 274.154 74.2418 250.744C74.0294 250.303 74.2702 249.694 73.412 249.921C69.5335 219.927 90.0841 187.736 110.267 165.632L110.273 165.635ZM82.9997 236.154C82.628 238.507 84.1697 239.128 86.4563 238.568C89.9534 237.717 87.9266 230.307 85.1109 231.356C83.1195 232.099 87.4653 234.889 86.2285 236.929C85.849 237.404 85.2403 237.495 84.6377 237.4C83.4558 237.215 84.1418 235.925 82.9997 236.154Z" fill="#EEB79B"/>
<path d="M30.5569 127.738C29.8808 127.769 29.722 128.158 29.395 128.589C28.2149 130.137 22.3061 142.142 22.1048 143.729C22.021 144.396 22.4228 144.57 22.4303 144.645C22.4948 145.272 22.4904 145.91 22.5464 146.54L23.1816 146.647C24.1242 144.485 25.3508 141.993 27.223 140.392C28.3959 139.39 32.2072 136.808 33.6065 136.475C36.2796 135.841 37.8051 136.433 39.1252 138.64C39.363 139.59 38.6202 139.146 38.0574 139.277C33.6217 140.32 29.6812 144.91 28.6998 148.946C28.2143 149.583 27.5058 151.403 27.3785 152.163C27.272 152.791 27.2291 152.941 27.9823 152.798C28.0109 152.46 28.0812 152.093 28.2837 151.804C30.727 148.316 36.3752 142.135 41.0611 141.725C43.1159 141.545 43.9204 142.808 44.3947 144.451C45.3482 147.768 42.6337 150.802 40.3273 153.072C39.0893 154.29 32.899 158.902 32.8433 159.981C32.8294 160.226 33.0463 160.93 33.1986 161.098C33.5684 161.509 41.5121 161.116 43.0663 161.373C45.3642 161.757 48.5275 164.493 51.1839 165.29C56.2722 166.814 64.7554 167.047 70.0523 166.347C71.8832 166.106 73.802 165.362 75.6531 165.12C87.1904 163.607 94.7582 165.31 103.72 156.661C104.485 157.033 105.044 157.65 105.731 158.124C106.636 158.751 107.862 158.571 107.231 159.954C102.413 165.022 98.5183 170.743 94.1603 176.133C93.0103 177.558 91.626 178.893 90.4703 180.318C87.8168 183.593 84.8893 188.212 81.9867 191.107C81.719 191.374 81.5334 191.702 81.077 191.725C73.733 189.89 65.9859 190.654 58.571 189.224C42.9908 186.221 32.0586 172.675 21.1766 162.883C20.6737 162.43 20.1392 161.839 19.3705 161.824C13.9887 153.942 13.992 142.541 18.6932 134.238C20.4686 131.103 26.6015 123.707 30.5542 127.741L30.5569 127.738Z" fill="#C08F4B"/>
<path d="M140.343 53.0504C143.881 49.1275 149.073 46.5251 154.223 44.8821C154.289 48.942 156.898 46.3606 159.301 45.4394C163.995 43.6443 168.484 42.9018 173.484 42.2329L172.861 46.9209C173.747 48.0439 181.549 43.9137 183.363 44.2999C183.879 45.295 183.935 46.4957 183.913 47.5964C183.883 49.0953 182.546 52.4911 183.306 53.4471C184.521 54.8349 190.223 52.2336 190.61 53.3925C190.6 55.5621 190.009 57.9205 189.153 59.9296C188.608 61.2101 186.141 64.4547 186.632 65.5589C188.241 66.7693 190.693 65.8344 192.643 66.2607C192.091 67.3696 188.995 68.9997 190.674 70.343C191.411 70.9322 193.339 70.4782 193.276 71.4926C188.646 71.776 184.273 75.0244 181.195 78.086C180.346 78.9309 175.201 84.9519 176.143 85.7248C176.753 85.7896 176.989 85.5843 177.397 85.2288C178.323 84.4195 179.606 82.0322 180.577 80.9057C191.399 68.3634 205.014 70.4597 207.45 86.9236C208.959 97.1388 205.492 110.51 198.69 118.761C194.502 123.842 185.754 128.754 179.407 131.233C164.622 137.014 149.014 138.058 134.704 130.862C134.032 130.524 130.129 128.385 129.929 128.101C129.605 127.643 129.832 126.949 129.643 126.697C129.514 126.53 128.014 126.447 127.539 126.261C126.544 125.873 122.891 122.224 121.961 121.238C121.128 120.354 117.997 116.927 117.669 116.106C117.378 115.382 118.726 115.727 119.289 115.504C119.589 115.384 121.796 114.279 121.897 114.176C122.505 113.55 122.55 108.322 123.992 110.725C124.96 112.341 125.545 114.614 126.573 116.405C132.945 127.489 144.016 132.365 157.402 130.527L158.328 130.177C158.53 130.165 158.759 130.126 158.957 130.138C159.068 130.145 159.463 130.591 159.919 130.37L159.883 129.789C160.094 129.776 160.304 129.76 160.515 129.75C166.245 129.491 176.483 122.319 180.676 118.413C190.624 109.144 193.594 99.6839 193.272 86.8615C193.258 86.2979 192.88 85.7109 193.84 85.8135C194.445 86.0505 194.427 86.1216 194.82 86.3394C194.846 86.913 195.294 87.1248 195.671 87.4646C196.462 88.1741 197.489 89.2831 198.495 89.6301C198.763 89.9846 199.921 91.5398 200.042 91.578C200.181 91.6233 200.829 91.6455 200.813 91.3911C201.051 88.6861 197.566 86.389 195.671 84.8225C194.908 84.1918 194.7 83.5273 193.308 82.7954C185.281 78.5751 179.654 85.1363 173.387 88.8742C167.514 92.3757 159.023 96.7013 152.273 98.1869C151.796 98.2913 151.021 98.6532 150.678 98.1232C150.932 97.6723 151.161 96.5939 151.183 96.0416C151.932 94.934 153.623 91.9331 151.688 91.3232C150.32 94.35 148.553 97.1056 146.016 99.43L133.843 101.79C140.264 96.675 146.888 91.7648 153.461 86.8202C156.184 87.855 160.179 87.5647 163.072 87.0758C163.838 86.9457 167.884 86.2062 167.578 85.2304C167.336 84.455 165.351 85.2108 164.596 85.2758C161.714 85.5248 158.776 85.7047 155.906 85.5013L155.888 85.2094C156.879 84.493 158.183 83.4537 159.206 82.6626C170.226 85.4177 182.541 78.5896 183.796 67.7456C185.058 56.8367 176.108 47.7112 164.634 47.4648C160.161 47.3677 155.973 47.3982 152.153 49.9865C151.779 50.0739 151.247 50.515 150.616 50.6665C147.418 51.4294 143.378 52.0825 140.338 53.0535L140.343 53.0504Z" fill="#EEB79B"/>
<path d="M150.622 50.6635C142.469 56.7316 140.306 67.0694 146.421 75.0997C149.228 78.7848 154.572 81.8389 159.491 82.0566C159.381 82.2084 159.32 82.5751 159.212 82.6596C158.186 83.4508 156.885 84.49 155.894 85.2064C155.789 85.2828 155.373 85.1684 155.265 85.2449L151.392 83.5576C142.727 77.14 141.038 68.9544 142.865 59.137C142.948 58.6938 143.075 58.3394 142.418 58.4952C137.713 66.6879 143.675 84.2879 154.06 86.1976C153.984 86.5221 153.713 86.6354 153.466 86.8199C146.894 91.7645 140.27 96.6746 133.849 101.79L125.691 107.856C125.596 107.878 124.815 108.175 124.765 108.205C122.634 107.667 120.112 109.017 117.834 108.484C119.88 106.884 122.392 105.278 124.164 103.415C124.456 103.107 126.187 101.058 125.891 100.812L118.142 106.794C113.977 109.704 108.157 109.147 103.175 108.936C99.942 108.8 96.6964 108.364 93.4853 108.066C93.1412 107.746 94.6101 106.468 94.8814 106.024C98.3013 100.456 94.8437 99.0654 93.3709 94.3632C92.3264 91.0271 92.5347 87.4719 91.3912 84.1741C98.7136 83.5244 102.684 89.646 107.298 93.7446C107.7 93.5346 107.275 92.945 107.137 92.6713C105.651 89.6955 102.634 87.179 100.273 84.8051C103.129 84.9877 106.391 84.8875 109.256 84.5428C113.176 84.0691 116.042 82.5282 120.081 83.1411C123.304 83.6292 126.833 85.1925 129.75 86.5137C130.22 85.864 127.993 84.3635 127.497 84.066C125.374 82.7929 122.844 82.3645 120.595 81.3599C130.921 76.7715 134.407 66.4091 130.178 56.777L128.878 56.6846L129.365 59.4366L128.747 59.6222L125.732 56.8798C128.858 56.1294 131.961 55.3643 135.066 54.5507C135.16 55.3701 135.105 56.2201 135.218 57.0383C135.28 57.47 135.025 57.8968 135.73 57.7326C137.265 56.7168 138.224 54.0725 139.732 53.3889C139.935 53.2958 140.139 53.1247 140.344 53.0585C143.384 52.0875 147.424 51.4344 150.622 50.6715L150.622 50.6635Z" fill="#A1C5D8"/>
<path d="M34.7274 159.709L40.7464 154.807C44.4456 151.766 49.2239 145.244 44.0432 141.405C43.245 140.815 41.5861 140.599 41.4936 140.508C41.3734 140.389 41.0198 138.209 40.4846 137.371C37.9202 133.343 33.1207 134.36 29.5229 136.596C29.1588 136.28 33.2836 130.442 32.8424 129.246L31.8816 128.695C32.5338 126.997 33.7792 125.332 33.4563 123.465C29.9379 123.922 25.6008 125.298 22.7176 127.28C21.4553 128.148 20.5201 129.436 19.4968 130.184C19.2417 130.372 19.21 130.61 18.7263 130.519L6.51944 91.1295C9.91619 90.7684 13.3248 90.3636 16.7107 89.9198C22.7896 89.1204 27.7023 88.1074 33.952 89.2461C34.9628 89.4289 36.5731 89.5131 37.0337 90.3638C41.3723 102.172 44.7324 114.276 48.8066 126.167C51.7557 134.776 55.785 143.659 58.1894 152.363C59.0381 155.437 59.1625 157.657 56.0322 159.58L34.7248 159.715L34.7274 159.709ZM12.4736 91.7004C7.59206 92.3701 8.80193 101.012 13.8729 100.361C18.9354 99.7122 17.1742 91.0552 12.4736 91.7004ZM15.0014 102.087C11.7947 102.95 12.5219 108.536 15.5536 109.453C21.301 111.189 20.2745 100.668 15.0014 102.087Z" fill="#4F96FD"/>
<path d="M110.273 165.635C110.384 165.512 110.284 164.586 111.002 164.711C113.214 167.242 115.633 169.328 118.712 170.921C120.373 171.782 122.275 172.332 123.918 173.228C128.854 175.918 131.405 180.901 134.831 185.085C138.381 189.418 142.892 195.472 147.341 198.675C147.987 199.138 150.073 201.118 150.768 200.075L150.67 198.614C152.608 200.506 157.527 202.054 160.364 202.116C163.074 202.176 165.742 201.129 168.318 200.466C167.932 201.414 165.493 202.738 166.446 203.822C169.674 204.441 173.082 203.042 175.976 201.752C178.245 208.817 177.302 215.803 175.533 222.873C172.86 233.543 167.727 241.886 160.322 250.327C154.469 256.999 145.389 263.156 146.206 272.717L147.147 272.659C147.47 269.465 148.445 265.893 150.686 263.358C150.089 264.999 149.683 267.599 149.422 269.397C149.363 269.798 148.979 270.545 149.56 270.751C149.364 271.626 149.24 272.534 149.091 273.417C147.616 282.213 148.16 290.294 150.957 298.791C147.707 298.567 144.347 298.674 141.035 298.476C108.493 296.554 77.6711 282.82 73.4149 249.921C74.2731 249.694 74.0322 250.303 74.2447 250.744C85.5778 274.154 109.848 289.059 137.194 291.629C139.954 291.887 142.701 292.136 145.477 291.799C143.814 284.518 143.238 277.844 144.64 270.461C148.156 251.937 167.579 238.857 171.011 220.271C171.331 218.545 172.864 206.958 172.153 206.375C170.778 206.965 169.331 206.553 168.189 206.648C158.842 207.397 158.888 206.787 150.527 204.044C147.437 203.031 145.215 203.073 142.308 201.166C133.777 195.57 131.597 187.073 125.515 180.253C121.81 176.096 116.654 175.022 113.001 171.007L110.276 165.635L110.273 165.635Z" fill="#D29D83"/>
<path d="M75.5836 274.986C76.2715 274.912 76.4405 275.353 76.7807 275.752C81.9065 281.77 85.4662 287.385 92.4497 291.943C100.948 297.492 112.37 301.526 122.502 303.465C117.507 309.958 110.083 315.048 102.238 318.179C79.5201 316.957 74.6763 292.115 75.5865 274.986L75.5836 274.986Z" fill="#C08F4B"/>
<path d="M242.747 286.141C240.418 287.754 238.305 289.627 236.026 291.304C227.725 297.416 218.651 302.055 209.24 306.498C208.922 306.649 208.232 307.318 207.993 306.725C209.4 302.863 210.619 297.128 210.947 293.068L213.658 280.597C215.906 285.134 216.77 290.507 217.407 295.46C217.567 296.705 217.356 298.755 217.718 299.792C218.263 301.358 219.101 298.194 219.128 297.695C219.433 292.207 217.528 281.387 213.758 277.076L214.773 272.364C215.375 272.209 216.005 272.275 216.618 272.213C221.519 271.72 224.613 270.904 229.494 272.54C235.224 274.461 241.916 280.319 242.744 286.141L242.747 286.141Z" fill="#FCB38C"/>
<path d="M132.475 136.148C133.704 136.67 135.012 136.071 136.291 136.34C137.389 136.571 139.852 138.175 141.153 138.697C153.864 143.819 164.317 142.292 176.747 136.954L170.829 151.091C168.356 155.879 165.395 159.812 159.878 161.798C158.478 162.303 156.878 162.296 155.609 163.15C153.043 161.751 148.452 156.659 145.927 154.508C141.984 151.145 136.986 146.64 132.789 143.738C130.65 142.259 127.822 142.016 126.832 139.708C128.747 138.575 130.541 137.248 132.475 136.146L132.475 136.148Z" fill="#EEB79B"/>
<path d="M75.5836 274.986C75.6824 273.145 75.9789 269.799 76.4529 268.077C76.5457 267.746 76.5164 267.363 77.004 267.282C86.2965 286.323 108.901 296.392 130.432 298.878C130.667 299.546 130.289 299.376 130.075 299.569C125.426 303.764 125.185 307.16 121.705 311.265C117.608 316.098 108.47 318.515 102.235 318.179C110.08 315.049 117.505 309.958 122.499 303.465C112.367 301.523 100.945 297.492 92.4468 291.943C85.4662 287.385 81.9065 281.77 76.7778 275.752C76.4376 275.353 76.2687 274.912 75.5808 274.987L75.5836 274.986Z" fill="#77592F"/>
<path d="M85.5683 195.565C84.6584 195.895 84.1296 196.486 84.1023 197.412C83.6622 197.418 82.051 197.223 81.55 197.133C79.4671 196.758 75.1333 194.876 73.3079 194.92C72.7466 194.933 72.3451 195.474 71.5514 195.525C70.1374 195.617 60.8931 194.688 59.7099 194.245C58.6809 193.859 56.738 191.986 55.0757 191.335C54.0308 190.926 52.9819 190.926 52.234 190.587C51.3132 190.171 45.5922 185.551 44.1329 184.479C42.683 183.418 34.9393 177.183 34.0082 177.119C33.6794 177.096 33.1403 177.471 32.9904 177.388C32.7445 177.253 31.2342 173.359 30.6037 172.573C27.546 168.769 22.8198 166.865 19.3761 161.821C20.1448 161.836 20.6765 162.427 21.1822 162.88C32.0644 172.674 42.9964 186.218 58.5766 189.221C65.9915 190.651 73.7386 189.886 81.0826 191.722C81.539 191.699 81.7246 191.37 81.9923 191.104C84.8951 188.212 87.8224 183.59 90.4759 180.315C91.6316 178.89 93.0131 177.555 94.1659 176.13C98.5239 170.74 102.415 165.019 107.236 159.951C107.867 158.568 106.638 158.745 105.736 158.121C105.05 157.644 104.491 157.03 103.726 156.658C104.172 156.227 104.908 154.812 105.613 154.828L110.266 157.427L109.956 163.012C100.271 173.012 92.8022 184.003 85.5769 195.564L85.5683 195.565Z" fill="#77592F"/>
<path d="M123.562 57.5932C126.612 59.3309 130.283 62.1273 130.358 65.7753C130.427 69.1147 127.199 74.9781 124.212 76.8381C118.069 80.6625 109.576 78.1398 106.818 71.8822C105.156 68.1162 106.176 65.4708 107.394 61.8027L108.006 61.4723L122.935 57.6289L123.564 57.5904L123.562 57.5932ZM111.459 67.7653C108.905 68.6339 110.409 75.221 114.226 73.9203C116.488 73.1502 115.271 66.4677 111.459 67.7653Z" fill="#AFE3FC"/>
<path d="M132.475 136.148C133.738 135.429 135.633 134.052 137.218 134.103C138.373 134.14 141.293 135.458 142.718 135.82C156.924 139.423 171.198 136.944 184.282 130.929C177.646 138.961 179.894 150.168 173.149 157.98C170.635 160.892 168.28 162.315 164.408 163.292C161.429 164.044 158.415 164.68 155.612 163.15C156.881 162.298 158.481 162.302 159.881 161.797C165.397 159.809 168.356 155.879 170.832 151.091L176.75 136.954C164.32 142.295 153.867 143.819 141.155 138.697C139.854 138.175 137.392 136.57 136.294 136.339C135.014 136.068 133.704 136.67 132.478 136.148L132.475 136.148Z" fill="#D29D83"/>
<path d="M114.526 317.719C113.678 320.529 115.028 322.47 115.569 324.867C115.971 326.654 114.298 326.681 112.639 327.124C107.613 328.466 102.236 328.715 97.0768 329.34C93.1597 329.813 89.2855 330.658 85.3065 330.643C84.8008 330.569 84.1605 330.902 83.7123 330.3C84.3514 329.619 84.958 328.926 85.6919 328.324C86.8258 327.395 88.7718 326.668 89.5658 326.007C89.9131 325.717 89.6965 325.445 89.7073 325.101C86.2868 325.31 83.5117 327.923 81.3215 330.008L76.4891 330.25C75.134 328.608 75.9426 327.239 77.1163 325.729C80.0487 321.948 87.5923 320.983 91.3846 317.711C91.9197 317.555 93.2264 318.408 93.9662 318.612C101.399 320.668 107.299 320.347 114.526 317.717L114.526 317.719Z" fill="#FCB38C"/>
<path d="M249.488 24.6876C247.342 35.7233 237.397 44.0378 226.251 47.6443C218.012 50.3095 214.245 48.2125 206.553 48.4145C204.566 48.4663 202.974 48.9185 201.075 49.1879C206.075 43.7752 213.98 43.5144 220.824 41.5339C226.453 39.9046 232.181 37.3447 236.6 33.6741C238.106 32.4236 242.382 27.211 243.297 26.8271C243.543 26.726 244.13 26.8056 244.553 26.6211C246.154 25.9265 247.754 25.0384 249.485 24.6905L249.488 24.6876Z" fill="#EEB79B"/>
<path d="M257.084 272.666C252.806 276.709 248.951 281.372 243.916 284.605C243.034 280.278 237.028 274.119 232.711 272.276L227.882 270.354C232.475 269.272 236.933 267.696 241.273 265.941C242.8 265.324 247.945 262.574 249.02 262.61C250.483 262.66 254.465 265.381 255.395 266.518C256.325 267.654 257.216 269.951 257.334 271.352C257.386 271.965 257.086 272.408 257.09 272.663L257.084 272.666Z" fill="#FCB38C"/>
<path d="M179.249 322.254C179.304 322.245 179.588 321.962 179.992 321.902C185.387 321.099 190.934 321.404 196.153 319.754C196.196 320.8 197.925 321.533 198.851 322.366C201.119 324.404 203.165 327.396 206.392 328.129C209.674 328.877 214.919 328.33 215.879 332.316C213.775 333.499 207.766 330.378 206.586 330.687C204.818 331.147 206.856 333.199 204.621 334.18C201.175 334.404 197.84 330.942 194.389 332.17C194.1 331.851 191.732 326.728 190.525 328.587C189.598 330.012 194.565 332.957 192.365 335.223C189.632 334.692 179.763 331.412 178.415 329.503C176.87 327.31 179.884 324.621 179.252 322.256L179.249 322.254Z" fill="#FCB38C"/>
<path d="M257.084 272.666C257.116 274.755 257.219 277.286 256.561 279.307C255.678 282.014 245.89 290.483 243.119 292.684C232.271 301.304 219.261 308.516 205.483 312.149C206.099 310.281 207.321 308.57 207.993 306.725C208.232 307.318 208.919 306.65 209.24 306.498C218.648 302.055 227.725 297.416 236.026 291.304C238.305 289.627 240.418 287.754 242.747 286.141C243.022 288.075 242.29 289.558 242.442 291.433C244.788 290.752 244.281 286.391 243.919 284.604C248.957 281.372 252.809 276.709 257.087 272.666L257.084 272.666Z" fill="#DC804F"/>
<path d="M242.456 23.3602C237.15 25.1445 232.215 27.7338 226.979 29.6643C216.377 33.5735 202.135 35.4047 197.756 46.6039L197.009 49.8723C196.839 49.3209 195.477 48.1303 195.886 47.0113C201.607 28.758 223.663 21.124 242.456 23.3602Z" fill="#EEB79B"/>
<path d="M212.99 156.125C214.136 156.291 214.661 156.361 214.959 157.633C215.257 158.905 214.853 162.757 214.711 164.328C214.004 172.227 210.65 184.503 203.78 189.746C202.612 190.637 201.378 190.925 200.335 191.636C196.361 194.352 192.399 197.928 188.217 200.277C186.085 201.475 184.336 202.477 181.699 202.284C182.868 205.961 182.081 209.756 181.275 213.439C180.057 219.002 178.255 223.988 175.701 229.125C175.49 229.549 175.634 230.056 174.862 229.948C177.803 222.081 180.145 211.17 178.188 203.012C178.01 202.275 177.711 201.555 177.236 200.939C178.867 199.67 180.941 198.946 182.186 197.273C182.817 198.345 180.786 200.584 183.071 200.657C184.209 200.692 188.785 197.302 189.976 196.447C193.425 193.967 196.641 191.172 199.982 188.567L200.446 188.538C200.58 190.156 201.984 190.092 203.181 189.247C206.075 187.205 209.541 178.069 210.425 174.672C211.973 168.723 212.633 162.227 212.995 156.125L212.99 156.125Z" fill="#77592F"/>
<path d="M57.7726 159.471C57.6977 159.051 58.1987 159.189 58.4692 158.78C59.4395 157.307 59.6962 155.727 59.2509 154.037L37.6566 89.7021C36.7939 88.5293 35.2343 88.3264 33.8283 88.1249C28.2804 87.3275 20.428 88.4532 14.772 89.1569C12.0087 89.5007 9.29033 90.3418 6.46536 90.2459L7.9466 88.5533L34.8192 86.4677C36.4053 86.5829 38.1309 86.8939 39.1517 88.1404L61.541 154.152C61.7411 156.427 60.2663 158.888 57.7757 159.473L57.7726 159.471Z" fill="#4F88A4"/>
<path d="M93.7255 14.007C103.519 17.1382 111.274 22.0391 116.277 30.5944C118.348 34.1364 119.593 39.0514 123.799 40.8823C122.487 42.7742 120.261 41.3488 118.63 40.5509C111.51 37.076 108.354 28.87 103.282 23.4017C101.982 21.9977 99.7625 21.4213 98.173 19.5941C98.0358 19.4359 97.9575 18.8655 97.6152 18.4806C96.3051 17.0046 94.8804 15.5974 93.7226 14.0072L93.7255 14.007Z" fill="#EEB79B"/>
<path d="M93.7255 14.007C94.8831 15.5945 96.3049 17.0019 97.6181 18.4804C97.9603 18.8653 98.0387 19.4357 98.1759 19.5939L94.7462 17.7612C93.3739 19.3396 97.2254 21.0121 98.4981 22.2082C99.4696 23.1217 100.696 24.5599 101.443 25.643C105.927 32.1444 106.047 42.3398 115.78 44.0099C115.891 44.511 115.065 44.3573 114.73 44.3321C111.363 44.0947 108.292 42.6781 105.494 41.1185C104.496 39.2471 102.842 37.6953 101.738 35.8922C98.4745 30.5794 96.8778 24.2318 92.6733 19.3018C92.3331 18.9033 92.1642 18.4621 91.4763 18.5365C90.6773 16.7013 89.6897 14.8615 88.6199 13.1477C90.4283 12.8703 92.0763 13.4764 93.7282 14.0042L93.7255 14.007Z" fill="#D29D83"/>
<path d="M242.456 23.3602C244.867 23.6481 247.377 24.5105 249.728 23.5011C249.991 24.0064 249.543 24.4047 249.488 24.6876C247.76 25.038 246.157 25.9263 244.556 26.6183C244.133 26.8028 243.545 26.7205 243.3 26.8242C243.433 25.9237 242.473 25.2971 241.633 25.577C238.01 28.1693 233.453 30.1523 229.236 31.7919C223.239 34.1237 216.88 35.2225 211.032 37.6608C206.113 39.7116 200.782 42.3575 197.759 46.6037C202.138 35.4046 216.377 33.5735 226.982 29.6641C232.218 27.7336 237.153 25.1443 242.459 23.3601L242.456 23.3602Z" fill="#D29D83"/>
<path d="M269.061 256.699C267.827 259.311 265.925 261.841 264.138 264.171C262.727 266.012 261.146 268.404 259.108 269.615C258.459 266.814 256.996 264.793 254.44 263.171C253.843 262.793 250.598 261.6 251.001 261.035C253.99 260.653 260.397 254.501 262.451 254.179C263.335 254.039 265.585 254.578 266.439 254.943C267.53 255.411 268.103 256.295 269.058 256.701L269.061 256.699Z" fill="#FCB38C"/>
<path d="M134.464 132.516C135.062 133.015 134.3 133.01 134.035 133.126C133.019 133.57 132.217 133.82 131.211 134.42C130.073 135.097 125.961 138.211 125.162 138.362C123.807 138.617 119.823 135.772 117.928 135.867C120.371 132.885 123.45 130.132 127.177 128.63C127.693 128.59 132.264 131.608 133.201 132.137C133.603 132.365 134.415 132.476 134.464 132.519L134.464 132.516Z" fill="#77592F"/>
<path d="M125.099 56.9132L123.458 55.9923L118.664 54.9687C120.744 53.7394 122.751 52.6866 124.223 50.7903C125.104 49.6559 125.96 47.1711 127.235 46.6066C128.612 45.9955 131.072 45.9981 132.619 45.6159L127.682 51.9708L128.126 52.6478C130.52 52.7997 133.291 53.3343 135.582 52.7559C135.594 52.8493 135.6 52.9537 135.6 53.0478C135.601 53.4859 135.293 54.0369 135.375 54.5264C135.275 54.5513 135.16 54.5207 135.06 54.5457C131.955 55.3593 128.852 56.1244 125.725 56.8748C125.534 56.9215 125.285 56.8669 125.096 56.9133L125.099 56.9132Z" fill="#EEB79B"/>
<path d="M272.794 250.611C272.433 252.146 272.213 253.614 271.727 255.143C269.306 262.79 264.496 270.401 259.225 276.636C259.397 274.188 259.663 272.008 259.108 269.612C261.146 268.404 262.724 266.01 264.138 264.168C265.925 261.839 267.824 259.311 269.061 256.696C269.391 256.837 269.589 257.051 270.022 256.927C270.083 256.494 269.843 255.839 269.933 255.468C270.173 254.521 272.235 251.704 272.793 250.605L272.794 250.611Z" fill="#DC804F"/>
<path d="M85.2376 128.2C83.8718 128.891 82.3327 129.165 80.9191 129.787C78.8116 130.714 76.8271 132.564 74.4549 132.669C72.7385 132.744 70.648 131.157 70.058 129.661C69.4681 128.165 70.3057 127.601 71.724 126.963C75.8469 125.117 81.2694 126.704 85.2374 128.197L85.2376 128.2Z" fill="#C08F4B"/>
<path d="M114.526 317.719C114.906 317.581 116.174 316.858 116.378 317.023C115.6 319.36 117.977 321.172 118.519 323.318C119.146 325.796 118.389 328.282 115.373 328.808C111.629 329.462 105.705 329.623 101.694 329.933C99.8293 329.529 97.4862 329.874 95.5332 330.012C95.0024 330.05 94.1217 329.91 93.8252 330.415C91.0265 330.559 88.0074 331.032 85.3094 330.643C89.2883 330.658 93.1627 329.816 97.0797 329.339C102.239 328.715 107.616 328.469 112.642 327.124C114.298 326.681 115.974 326.654 115.572 324.867C115.031 322.473 113.681 320.529 114.529 317.719L114.526 317.719Z" fill="#DC804F"/>
<path d="M124.863 171.77L121.529 170.456C116.801 167.861 110.009 163.971 112.328 157.892C112.801 157.798 113.068 157.852 113.465 158.096C113.676 158.229 116.112 160.534 116.437 160.882C119.457 164.118 121.939 168.404 124.866 171.77L124.863 171.77Z" fill="#D29D83"/>
<path d="M96.4522 146.266C99.7023 146.728 109.307 151.938 112.557 153.768C119.846 157.875 127.689 170.885 132.166 177.478C127.84 172.502 124.286 166.887 119.91 161.903C118.403 160.186 115.894 157.064 113.714 156.286C108.047 154.265 103.002 150.932 97.9724 147.624C97.4623 147.29 96.444 146.89 96.4551 146.266L96.4522 146.266Z" fill="#77592F"/>
<path d="M105.494 41.1185C95.7152 35.6749 95.4 27.5422 91.4764 18.5392C92.1643 18.4648 92.3333 18.906 92.6735 19.3045C96.8809 24.2343 98.4774 30.5792 101.738 35.8949C102.845 37.6978 104.499 39.2496 105.494 41.1212L105.494 41.1185Z" fill="#EEB79B"/>
<path d="M269.933 255.473C268.543 253.784 266.197 253.278 264.082 252.757C265.258 251.472 266.926 250.371 268.132 249.146C270.058 247.19 270.758 244.707 274.01 244.68C273.994 246.694 273.254 248.655 272.794 250.611C272.235 251.709 270.171 254.526 269.933 255.473Z" fill="#FCB38C"/>
<path d="M179.249 322.254C179.88 324.615 176.867 327.308 178.412 329.5C179.76 331.412 189.629 334.689 192.362 335.221C191.264 336.352 188.676 336.242 187.092 335.93C184.232 335.366 182.089 333.721 179.856 332.178C179.079 331.639 178.827 330.94 177.583 331.145C174.378 328.737 177.276 325.377 176.418 322.43C177.343 322.314 178.33 322.385 179.249 322.254Z" fill="#DC804F"/>
<path d="M121.444 110.75C121.358 110.814 120.939 111.498 120.868 111.664C119.796 111.944 119.013 113.076 118.143 113.588C117.746 113.822 117.327 114.028 116.921 114.249L111.007 114.856L108.176 110.683C112.111 111.071 116.071 110.264 120.01 110.233C120.598 110.229 121.186 110.094 121.446 110.747L121.444 110.75Z" fill="#AFE3FC"/>
<path d="M30.5569 127.738C31.008 128.197 31.6082 128.488 31.5485 129.218C31.4382 130.587 28.1388 134.622 27.5468 136.499C27.3285 137.193 27.5176 138.106 27.3516 138.422C27.2817 138.558 25.2713 139.985 24.8896 140.422C23.7472 141.734 23.3927 143.279 22.4303 144.645C22.4228 144.57 22.0182 144.396 22.1048 143.729C22.3061 142.142 28.2178 130.137 29.395 128.589C29.7222 128.16 29.8781 127.772 30.5569 127.738Z" fill="#77592F"/>
<path d="M122.932 57.6317L108.003 61.4752C111.073 57.0137 117.93 55.4706 122.932 57.6317Z" fill="white"/>
<path d="M28.697 148.949C29.6783 144.911 33.6188 140.321 38.0547 139.28C38.6175 139.149 39.3602 139.593 39.1224 138.642C39.4034 139.114 40.1085 140.173 39.7479 140.671C37.8959 141.182 36.3873 141.955 34.864 143.056C33.3408 144.157 29.7646 147.55 28.6943 148.951L28.697 148.949Z" fill="#77592F"/>
<path d="M85.2376 128.2C85.9227 128.459 87.0576 128.728 87.5113 129.23C83.6563 128.969 80.4215 131.645 78.4724 134.498C78.1777 134.559 74.3754 133.501 74.4549 132.669C76.8273 132.566 78.8116 130.714 80.9191 129.787C82.3327 129.165 83.8746 128.891 85.2376 128.2Z" fill="#77592F"/>
<path d="M213.661 280.597L210.95 293.068C211.34 288.262 210.895 283.417 211.965 278.65C213.061 278.559 213.323 279.908 213.663 280.594L213.661 280.597Z" fill="#EEB79B"/>
<path d="M197.009 49.8749C197.312 50.8562 196.772 52.8164 196.927 53.2155C196.971 53.3257 197.801 53.9226 198.274 55.0709C196.168 54.2134 193.875 53.1523 193.598 50.7557C193.526 50.15 193.845 49.8267 193.845 49.7757C195.707 49.995 195.479 48.3156 195.886 47.014C195.48 48.1328 196.839 49.3236 197.009 49.8749Z" fill="#77592F"/>
<path d="M204.618 334.18C202.629 335.052 195.797 333.723 194.386 332.17C197.837 330.943 201.172 334.405 204.618 334.18Z" fill="#DC804F"/>
<path d="M150.082 268.962C149.928 269.525 149.672 270.255 149.56 270.751C148.982 270.545 149.365 269.798 149.422 269.397C149.683 267.599 150.089 264.999 150.686 263.358C151.252 261.802 152.847 260.834 153.933 259.644C152.23 262.632 150.98 265.692 150.082 268.962Z" fill="#EEB79B"/>
<path d="M139.732 53.3808C138.223 54.0644 137.264 56.7088 135.73 57.7246C135.024 57.8914 135.279 57.4646 135.218 57.0302C135.104 56.2121 135.159 55.3621 135.066 54.5426C135.166 54.5177 135.28 54.5483 135.38 54.5234C136.823 54.1475 138.242 53.6037 139.732 53.3781L139.732 53.3808Z" fill="#4F88A4"/>
<path d="M216.621 272.213C216.008 272.275 215.378 272.211 214.776 272.363L213.761 277.075C213.533 276.815 212.658 276.627 212.513 276.093L212.81 271.86L216.621 272.213Z" fill="#EEB79B"/>
<path d="M150.918 292.934C150.111 290.268 149.746 288.804 149.545 285.986C149.553 286.016 149.818 286.142 149.875 286.412C150.325 288.551 150.66 290.767 150.918 292.934Z" fill="#D29D83"/>
<path d="M101.691 329.931C99.081 330.131 96.4388 330.276 93.8222 330.412C94.1187 329.908 94.9993 330.047 95.5301 330.01C97.4802 329.871 99.8262 329.526 101.691 329.931Z" fill="#EEB79B"/>
<path d="M149.721 273.378L149.091 273.417C149.24 272.534 149.364 271.626 149.56 270.751C149.672 270.255 149.928 269.525 150.082 268.962C150.597 270.223 149.884 272.03 149.721 273.378Z" fill="#77592F"/>
<path d="M120.868 111.664C120.221 113.158 121.008 113.483 118.143 113.588C119.013 113.076 119.796 111.944 120.868 111.664Z" fill="white"/>
<path d="M56.8655 134.331C55.8876 132.319 55.2929 130.13 54.5847 128.026C55.2094 128.67 55.7026 129.911 55.9967 130.74C56.4387 131.997 56.5345 133.231 56.8684 134.331L56.8655 134.331Z" fill="#A1C5D8"/>
<path d="M208.386 204.746C208.73 203.164 208.396 201.311 209.674 199.98C209.312 201.456 209.314 203.337 208.386 204.746Z" fill="#EEB79B"/>
<path d="M32.284 124.999L32.0557 126.475L30.4344 125.69L30.5549 125.102L32.284 124.999Z" fill="#77592F"/>
<path d="M59.9722 143.812C61.1554 143.591 60.8883 145.666 61.0769 146.381C60.5863 145.655 60.2663 144.64 59.9722 143.812Z" fill="#A1C5D8"/>
<path d="M85.5683 195.565C84.6584 195.895 84.1296 196.486 84.1023 197.412C85.1271 197.398 85.1699 196.205 85.5683 195.565Z" fill="#C08F4B"/>
<path d="M95.5083 146.324L93.6562 147.023C93.9482 146.728 93.9699 146.421 94.5561 146.199C95.2443 145.94 95.4039 146.322 95.5083 146.324Z" fill="#77592F"/>
<path d="M177.583 331.148C178.828 330.942 179.079 331.642 179.857 332.18C178.806 332.15 178.296 331.684 177.583 331.148Z" fill="#EEB79B"/>
<path d="M149.545 285.986C149.435 285.472 149.214 285.079 149.123 284.254C149.668 284.538 149.505 285.435 149.545 285.986Z" fill="#77592F"/>
<path d="M132.513 178.043L133.143 178.004L133.196 178.88C133.078 178.707 132.79 178.453 132.513 178.043Z" fill="#77592F"/>
<path d="M117.37 44.2028L117.403 44.784L116.132 44.5661L116.115 44.2823L117.37 44.2028Z" fill="#D29D83"/>
<path d="M135.945 182.52L136.567 182.493L136.61 183.066C136.312 182.836 136.576 183.31 135.945 182.52Z" fill="#77592F"/>
<path d="M74.7287 71.4892C80.2053 70.0788 86.9633 78.3386 88.763 82.416C90.6805 86.763 89.8516 91.8237 91.5818 96.2332C92.6905 99.0574 94.9751 100.549 93.7791 104.014C92.1576 108.718 89.7175 108.141 85.2309 107.548C81.3811 107.039 74.9306 105.697 73.1298 102.217C69.9593 96.0973 66.9766 77.6133 72.9767 72.5452C73.4533 72.1424 74.1096 71.6453 74.7286 71.4865L74.7287 71.4892ZM73.2544 83.5668C69.7942 84.6898 73.0666 93.5633 73.4658 95.966C73.6025 96.78 73.7918 97.7898 73.8831 98.5717C73.9629 99.2603 73.5343 99.8778 73.8346 100.857C74.6141 103.413 77.9664 102.657 78.3826 99.9896C78.73 97.7617 77.1358 88.1403 76.1697 85.9901C75.7642 85.093 74.5049 83.122 73.2544 83.5668ZM81.0355 83.8324C80.7149 83.6585 80.7821 82.8642 79.8496 83.1551C79.2705 83.5399 78.6628 84.2141 78.5439 84.8745C77.972 88.0757 81.1519 98.1833 84.3388 99.789C87.2029 101.234 88.5666 98.3315 87.9217 96.0326C85.4996 91.867 85.6268 86.3251 81.0357 83.835L81.0355 83.8324Z" fill="#A1C5D8"/>
<path d="M129.562 60.1556C129.761 60.0466 129.755 59.9475 129.545 59.8637L129.562 60.1556Z" fill="#A1C5D8"/>
<path d="M198.66 205.93C198.893 206.048 199.572 210.046 199.608 210.715C199.875 215.645 197.45 226.447 195.318 231.048C195.126 231.462 194.736 232.379 194.295 232.562C196.01 226.78 197.878 220.656 197.928 214.613C197.939 213.272 197.131 206.564 197.709 206.117L198.657 205.93L198.66 205.93Z" fill="#0B0908"/>
<path d="M188.028 269.566C186.716 269.915 186.287 268.345 186.085 267.414C185.476 264.602 185.383 255.7 186.887 253.246C187.092 252.911 187.531 252.456 187.915 252.291C186.827 257.945 187.061 263.903 188.025 269.569L188.028 269.566Z" fill="#0B0908"/>
<path d="M188.228 169.652C189.2 170.469 185.304 174.226 184.588 174.845C183.012 176.213 180.798 177.864 178.642 178.144L183.756 173.882C184.575 173.491 187.379 168.938 188.228 169.65L188.228 169.652Z" fill="#0B0908"/>
<path d="M176.058 275.282C176.721 273.378 177.035 269.51 177.369 267.345C177.636 265.614 177.056 261.854 179.327 261.605C177.884 265.583 178.288 271.906 176.391 275.554L176.058 275.282Z" fill="#0B0908"/>
<path d="M184.748 236.664C183.997 236.804 184.032 236.66 184.141 236.029C184.428 234.38 184.916 231.695 185.946 230.439L184.748 236.664Z" fill="#0B0908"/>
<path d="M176.391 275.554C176.147 276.026 175.719 276.558 175.206 276.799C174.964 276.193 175.913 275.696 176.058 275.282L176.391 275.554Z" fill="#77592F"/>
<path d="M82.9997 236.154C84.1418 235.925 83.4558 237.215 84.6377 237.4C85.2403 237.495 85.849 237.404 86.2285 236.929C87.4653 234.889 83.1195 232.099 85.1109 231.356C87.9265 230.305 89.9533 237.715 86.4563 238.568C84.1696 239.125 82.628 238.507 82.9997 236.154Z" fill="#0B0908"/>
<path d="M152.159 49.9835C161.138 47.8992 166.642 46.3743 172.937 53.8319C176.532 58.0923 177.551 65.0746 175.319 69.9336C173.69 73.4817 168.529 79.0898 164.451 80.1565C162.763 80.5985 161.01 80.0875 160.123 82.0152C159.914 82.0119 159.7 82.0626 159.494 82.0537C154.572 81.8389 149.231 78.782 146.424 75.0969C140.309 67.0692 142.472 56.7287 150.624 50.6607C151.255 50.5091 151.788 50.068 152.162 49.9806L152.159 49.9835ZM156.838 50.076C138.431 52.4848 142.908 82.1202 160.744 79.3378C178.202 76.6163 176.426 47.5117 156.838 50.076Z" fill="#4F88A4"/>
<path d="M195.674 84.8196C194.575 84.7095 193.68 84.0574 192.628 83.818C183.922 81.8379 180.342 88.005 174.297 92.1083C166.581 97.3434 156.331 101.236 147.178 103.702C146.352 103.925 145.26 104.363 144.425 104.217C146.236 102.51 149.508 100.213 150.684 98.1202C151.024 98.6504 151.801 98.2883 152.279 98.1838C159.028 96.6956 167.519 92.3727 173.392 88.8712C179.662 85.1331 185.29 78.5718 193.313 82.7924C194.702 83.5244 194.914 84.1888 195.677 84.8194L195.674 84.8196Z" fill="#D29D83"/>
<path d="M193.84 85.8108C192.88 85.7056 193.258 86.2952 193.272 86.8588C193.594 99.6813 190.623 109.141 180.676 118.41C176.482 122.317 166.248 129.488 160.515 129.747C179.573 122.829 190.532 103.25 189.993 84.8771C191.428 84.7946 192.611 85.3296 193.84 85.8135L193.84 85.8108Z" fill="#D29D83"/>
<path d="M159.212 82.6569C159.32 82.5724 159.381 82.2058 159.491 82.0539C159.697 82.0628 159.911 82.0121 160.12 82.0154C167.833 82.1185 174.948 78.7399 178.284 72.0904C183.652 61.3817 176.795 49.6501 164.64 47.4617C176.114 47.7082 185.063 56.8337 183.801 67.7426C182.547 78.5839 170.231 85.4147 159.212 82.6596L159.212 82.6569Z" fill="#D29D83"/>
<path d="M164.64 47.4617C176.795 49.6528 183.652 61.3817 178.284 72.0904C174.951 78.7397 167.836 82.1183 160.12 82.0154C161.007 80.0877 162.76 80.5986 164.448 80.1567C168.526 79.0873 173.69 73.4817 175.316 69.9338C177.545 65.0749 176.529 58.0925 172.934 53.832C166.639 46.3744 161.135 47.902 152.156 49.9836C155.976 47.3954 160.163 47.3648 164.637 47.4619L164.64 47.4617Z" fill="#0B0908"/>
<path d="M151.188 96.0385C149.679 98.265 142.813 104.249 140.282 105.259C135.957 106.98 130.172 106.845 125.694 107.856L133.852 101.79L146.024 99.4294C148.562 97.1051 150.329 94.3522 151.696 91.3227C153.631 91.9299 151.941 94.9335 151.191 96.041L151.188 96.0385Z" fill="#D29D83"/>
<path d="M153.466 86.8172C153.713 86.6327 153.984 86.5194 154.06 86.1949C154.156 86.2132 154.269 86.1633 154.374 86.1757C155.046 86.2555 156.065 86.5775 155.912 85.4956C158.781 85.699 161.719 85.5191 164.602 85.2701C165.357 85.2051 167.341 84.4493 167.583 85.2247C167.889 86.2005 163.843 86.9426 163.078 87.0701C160.184 87.5617 156.189 87.8492 153.466 86.8145L153.466 86.8172Z" fill="#D29D83"/>
<path d="M198.495 89.6274C197.488 89.2804 196.461 88.1714 195.671 87.4619C195.293 87.1221 194.846 86.9103 194.819 86.3367C197.108 87.6024 197.013 87.67 198.495 89.6274Z" fill="#D29D83"/>
<path d="M155.894 85.2037L155.912 85.4956C156.062 86.5776 155.046 86.2555 154.374 86.1757C154.577 85.8354 154.934 85.4695 155.265 85.2423C155.376 85.1656 155.791 85.2799 155.894 85.2037Z" fill="#0B0908"/>
<path d="M159.886 129.783L159.921 130.364C159.465 130.583 159.07 130.14 158.96 130.133C159.087 129.757 159.539 129.802 159.886 129.783Z" fill="#D29D83"/>
<path d="M158.331 130.171L157.404 130.521C157.453 130.515 157.621 130.223 158.331 130.171Z" fill="#D29D83"/>
<path d="M154.06 86.1949C143.675 84.2853 137.712 66.6825 142.418 58.4925C143.071 58.3369 142.946 58.694 142.865 59.1344C141.041 68.9515 142.727 77.1374 151.392 83.5549L155.265 85.2423C154.934 85.4695 154.577 85.8354 154.374 86.1757C154.269 86.1633 154.156 86.2132 154.06 86.1949Z" fill="#4F88A4"/>
<path d="M12.4736 91.7004C17.1742 91.0552 18.9326 99.7124 13.8729 100.361C8.80193 101.012 7.59495 92.37 12.4736 91.7004ZM10.5448 94.9793C10.326 97.1322 11.771 100.291 14.4939 98.909C14.9181 98.6922 15.2873 98.4277 15.1434 97.9231C12.8763 98.9892 12.3711 98.5928 11.2784 96.6922C11.2134 96.5779 11.0634 96.493 10.9459 96.4196C10.8937 96.1352 10.8285 95.4968 10.8744 95.2521C10.911 95.0456 11.8121 93.531 11.7113 93.4458C10.9503 93.3203 10.591 94.5034 10.5419 94.9795L10.5448 94.9793Z" fill="#0B0908"/>
<path d="M15.0014 102.087C20.2745 100.668 21.2981 111.189 15.5536 109.453C12.5219 108.536 11.7976 102.95 15.0014 102.087ZM15.1561 103.196C13.1667 103.592 13.9839 107.286 15.1524 108.01C15.887 108.462 17.4692 108.655 17.309 107.458C14.3758 108.009 14.0644 105.098 15.1532 103.196L15.1561 103.196Z" fill="#0B0908"/>
<path d="M114.226 73.9203C116.488 73.1502 115.271 66.4677 111.459 67.7653C108.905 68.6339 110.409 75.221 114.226 73.9203Z" fill="#4F88A4"/>
<path d="M151.954 129.379L146.287 128.817C145.939 127.237 145.849 125.202 145.006 123.794C144.545 123.027 143.371 122.449 143.276 121.85C143.191 121.309 144.725 118.721 145.146 118.115C147.715 114.418 152.348 111.629 157.208 111.786C156.101 112.773 150.712 118.218 151.035 119.332C151.266 120.127 152.218 119.577 152.627 119.253C155.854 116.696 157.46 113.44 161.625 111.104C166.455 108.398 172.423 108.968 177.371 110.987C176.234 111.92 176.026 113.48 176.416 114.787C176.714 115.787 177.674 115.79 176.945 116.994C176.726 117.356 174.805 119.377 174.509 119.468C173.983 119.631 172.477 119.31 171.462 119.436C169.527 119.676 167.389 120.734 166.934 122.659C166.719 123.557 167.061 124.837 166.578 125.417C166.365 125.675 164.348 126.578 164.001 126.534C163.683 126.495 161.557 125.042 160.389 124.753C156.332 123.744 152.043 124.958 151.96 129.373L151.954 129.379Z" fill="#DC804F"/>
<path d="M149.204 104.952L147.894 110.528L139.464 114.044C138.96 114.188 138.635 114.046 138.203 113.844C136.464 113.031 134.323 109.762 132.384 108.763L149.208 104.954L149.204 104.952Z" fill="white"/>
<path d="M161.963 127.603C159.135 128.501 156.245 129.337 153.225 129.312C153.575 126.13 156.751 125.239 159.75 126.047C160.15 126.155 162.353 127.057 161.963 127.605L161.963 127.603Z" fill="white"/>
<path d="M143.027 124.16C143.572 124.6 144.611 127.979 144.317 128.395C143.011 128.067 137.973 126.27 137.786 125.121C137.435 122.973 141.78 123.156 143.027 124.163L143.027 124.16Z" fill="white"/>
<path d="M177.95 115.201C177.724 113.917 177.211 113.058 178.054 111.822C178.987 110.45 181.857 110.008 180.854 111.9C180.641 112.303 178.462 115.648 177.95 115.201Z" fill="white"/>
<path d="M168.083 124.301C168.197 123.189 168.539 122.136 169.63 121.554C170.073 121.317 172.628 120.451 172.627 121.244L168.083 124.304L168.083 124.301Z" fill="white"/>
<path d="M81.0355 83.8324C85.6267 86.3224 85.4994 91.8643 87.9216 96.0299C88.5664 98.3288 87.2026 101.229 84.3386 99.7863C81.1518 98.1806 77.9719 88.073 78.5437 84.8718C78.6626 84.2114 79.2675 83.5374 79.8495 83.1524C80.7849 82.8613 80.7178 83.6583 81.0354 83.8297L81.0355 83.8324Z" fill="#4F88A4"/>
<path d="M73.2544 83.5668C74.5049 83.122 75.7641 85.0904 76.1697 85.9901C77.1386 88.1402 78.7329 97.7615 78.3826 99.9896C77.9636 102.66 74.6142 103.416 73.8346 100.857C73.5371 99.8777 73.9658 99.2601 73.8831 98.5717C73.7918 97.7898 73.6023 96.7774 73.4658 95.966C73.0637 93.5635 69.7913 84.6899 73.2544 83.5668Z" fill="#4F88A4"/>
<path d="M156.838 50.076C176.429 47.5115 178.202 76.6163 160.744 79.3378C142.905 82.1177 138.431 52.4848 156.838 50.076ZM154.319 55.4902C143.959 57.2666 144.81 74.427 153.943 75.2924C167.692 76.5957 166.998 53.3165 154.319 55.4902Z" fill="#4F96FD"/>
<path d="M10.8773 95.2519C10.8314 95.4966 10.8967 96.1377 10.9488 96.4194C10.9714 96.5524 11.1321 96.6689 11.2813 96.692C12.3711 98.5928 12.8792 98.989 15.1463 97.923C15.2902 98.4275 14.921 98.692 14.4968 98.9088C11.7711 100.293 10.329 97.1347 10.5477 94.9791L10.8802 95.2517L10.8773 95.2519Z" fill="#A1C5D8"/>
<path d="M10.5448 94.9793C10.5939 94.5033 10.9532 93.3202 11.7142 93.4456C11.815 93.5308 10.9139 95.0454 10.8773 95.2519L10.5448 94.9793Z" fill="#4F88A4"/>
<path d="M10.9488 96.4194C10.9714 96.5524 11.1321 96.6689 11.2813 96.692C11.2163 96.5777 11.0662 96.4929 10.9488 96.4194Z" fill="#4F88A4"/>
<path d="M15.1561 103.196C14.0671 105.095 14.3786 108.006 17.3119 107.458C17.4721 108.655 15.8899 108.462 15.1553 108.01C13.9841 107.288 13.1696 103.591 15.159 103.196L15.1561 103.196Z" fill="#A1C5D8"/>
<path d="M153.943 75.2924C167.692 76.5957 166.998 53.3165 154.319 55.4902C143.959 57.2639 144.813 74.4268 153.943 75.2924ZM154.728 56.9193C147.184 58.0744 145.553 69.6805 152.202 73.0768C160.014 77.0683 166.351 65.0452 160.285 59.0142C159.014 57.7508 156.613 56.6291 154.728 56.9193Z" fill="#AFE3FC"/>
<path d="M154.728 56.9193C156.614 56.6318 159.014 57.7508 160.285 59.0142C166.351 65.0479 160.014 77.0683 152.202 73.0768C145.553 69.6805 147.184 58.0717 154.728 56.9193ZM152.496 62.0175C149.016 62.8244 149.86 70.5565 153.549 70.1426C157.238 69.7286 156.53 61.0825 152.496 62.0175Z" fill="#4F96FD"/>
<path d="M152.496 62.0175C156.53 61.0825 157.365 69.7128 153.549 70.1426C149.734 70.5723 149.019 62.8243 152.496 62.0175Z" fill="#AFE3FC"/>
</svg>
