<svg width="1920" height="474" viewBox="0 0 1920 474" fill="none" xmlns="http://www.w3.org/2000/svg">
<g clip-path="url(#clip0_152_16339)">
<path d="M-19.6222 51.1325L182.133 31.1996C299.509 19.6032 418.02 31.4565 530.774 66.0704L544.449 70.2683C654.711 104.117 770.061 118.339 885.243 112.285L1128.04 99.5249C1153.04 98.211 1177.9 95.0462 1202.43 90.0563L1346.34 60.7836C1591.38 10.9413 1845.83 74.1961 2039 232.975V232.975L1844.69 1606.64V1606.64C1637.6 1684.05 1411.64 1695.52 1197.78 1639.49L1192.44 1638.09C1061.22 1603.7 924.728 1594.14 789.994 1609.88L650.447 1626.18H-59L-19.6222 51.1325Z" fill="#262626"/>
</g>
<defs>
<clipPath id="clip0_152_16339">
<rect width="1920" height="474" fill="white"/>
</clipPath>
</defs>
</svg>
