<svg width="121" height="15" viewBox="0 0 121 15" fill="none" xmlns="http://www.w3.org/2000/svg">
<path d="M15.8442 11.5971L13.0927 1.3003H15.1303L17.0043 9.49362L19.2055 1.3003H21.3026L23.4443 9.49362L25.3183 1.3003H27.3706L24.5449 11.5971H22.2842L20.2168 3.96277L18.09 11.5971H15.8442ZM31.0597 11.7736C30.3161 11.7736 29.6568 11.6167 29.0815 11.3029C28.5065 10.9891 28.0553 10.5478 27.7282 9.97899C27.401 9.41024 27.2374 8.75318 27.2374 8.00791C27.2374 7.25282 27.396 6.5811 27.7132 5.99269C28.0403 5.40433 28.4867 4.94832 29.0519 4.62468C29.6269 4.29127 30.3012 4.12457 31.0747 4.12457C31.7983 4.12457 32.4379 4.28144 32.9932 4.59525C33.5484 4.90906 33.9799 5.34055 34.287 5.8897C34.6045 6.42907 34.763 7.03218 34.763 7.69901C34.763 7.80691 34.7582 7.91966 34.7483 8.03734C34.7483 8.155 34.7433 8.27759 34.7334 8.4051H29.1263C29.1658 8.97386 29.3641 9.42006 29.7211 9.74365C30.088 10.0673 30.5293 10.2291 31.0448 10.2291C31.4314 10.2291 31.7538 10.1457 32.0115 9.97899C32.2794 9.80252 32.4777 9.57696 32.6065 9.30236H34.54C34.4012 9.76326 34.168 10.185 33.8409 10.5674C33.5236 10.94 33.1271 11.2342 32.6511 11.45C32.1852 11.6657 31.6548 11.7736 31.0597 11.7736ZM31.0747 5.65436C30.6085 5.65436 30.1971 5.78676 29.8401 6.05153C29.4831 6.3065 29.2552 6.69876 29.1559 7.22833H32.8296C32.8 6.7478 32.6215 6.36535 32.2941 6.08092C31.9669 5.79654 31.5606 5.65436 31.0747 5.65436ZM40.2906 11.7736C39.7353 11.7736 39.2494 11.6706 38.8332 11.4647C38.4167 11.2588 38.0797 10.9695 37.8217 10.5968L37.6135 11.5971H35.9181V1.00611H37.8217V5.34547C38.0597 5.02188 38.3721 4.73745 38.7587 4.49234C39.1553 4.24717 39.666 4.12457 40.2906 4.12457C40.9849 4.12457 41.6044 4.29127 42.1498 4.62468C42.6952 4.9581 43.1264 5.41411 43.4437 5.99269C43.7612 6.57128 43.9197 7.22831 43.9197 7.96378C43.9197 8.69931 43.7612 9.35629 43.4437 9.93487C43.1264 10.5036 42.6952 10.9548 42.1498 11.2882C41.6044 11.6118 40.9849 11.7736 40.2906 11.7736ZM39.889 10.1261C40.4939 10.1261 40.9947 9.92509 41.3912 9.52301C41.788 9.12095 41.9863 8.60123 41.9863 7.96378C41.9863 7.32638 41.788 6.8017 41.3912 6.38986C40.9947 5.978 40.4939 5.77202 39.889 5.77202C39.2743 5.77202 38.7686 5.978 38.3721 6.38986C37.9855 6.79192 37.792 7.31164 37.792 7.94909C37.792 8.58649 37.9855 9.11112 38.3721 9.52301C38.7686 9.92509 39.2743 10.1261 39.889 10.1261ZM48.6246 11.7736C47.9405 11.7736 47.3209 11.6559 46.7656 11.4205C46.2104 11.1754 45.764 10.8027 45.427 10.3026C45.09 9.80252 44.9115 9.1749 44.8915 8.41979H46.7656C46.7755 8.9199 46.9391 9.34159 47.2563 9.68484C47.5835 10.0183 48.0397 10.185 48.6246 10.185C49.1799 10.185 49.6063 10.0329 49.9038 9.72896C50.2013 9.42493 50.3499 9.04247 50.3499 8.58157C50.3499 8.04225 50.1517 7.63528 49.7549 7.36068C49.3683 7.0763 48.8677 6.9341 48.2529 6.9341H47.4794V5.38959H48.2676C48.7733 5.38959 49.1948 5.27191 49.5318 5.03657C49.8691 4.80123 50.0375 4.45307 50.0375 3.99215C50.0375 3.60972 49.9086 3.30574 49.6508 3.08018C49.403 2.84482 49.0561 2.72714 48.6097 2.72714C48.1238 2.72714 47.7422 2.86934 47.4645 3.15373C47.1968 3.43811 47.0482 3.78624 47.0183 4.19813H45.1593C45.1988 3.2469 45.531 2.49669 46.1557 1.94753C46.7902 1.39837 47.6083 1.12379 48.6097 1.12379C49.3237 1.12379 49.9235 1.25128 50.4092 1.50624C50.9049 1.7514 51.2769 2.07992 51.5248 2.49179C51.783 2.90366 51.9114 3.35966 51.9114 3.8598C51.9114 4.43838 51.7481 4.92867 51.4207 5.33078C51.1032 5.72301 50.7069 5.98778 50.2309 6.12509C50.8158 6.24277 51.2918 6.52715 51.659 6.97822C52.0256 7.41955 52.2092 7.97852 52.2092 8.65513C52.2092 9.22394 52.0701 9.74365 51.7926 10.2144C51.5151 10.6851 51.1082 11.0626 50.5732 11.347C50.0476 11.6314 49.3981 11.7736 48.6246 11.7736ZM53.6324 11.5971V1.3003H57.4845C58.3173 1.3003 59.0065 1.4376 59.5522 1.71218C60.0971 1.98676 60.5037 2.36431 60.7716 2.84482C61.0389 3.32534 61.1731 3.86469 61.1731 4.4629C61.1731 5.03166 61.044 5.55629 60.7865 6.03682C60.5283 6.50755 60.1267 6.89 59.5818 7.18421C59.0364 7.46858 58.3373 7.61076 57.4845 7.61076H55.5362V11.5971H53.6324ZM55.5362 6.08092H57.3655C58.0299 6.08092 58.5057 5.93874 58.7936 5.65436C59.0906 5.36016 59.2397 4.96301 59.2397 4.4629C59.2397 3.95296 59.0906 3.55579 58.7936 3.27139C58.5057 2.97721 58.0299 2.83011 57.3655 2.83011H55.5362V6.08092ZM64.2543 11.7736C63.6198 11.7736 63.099 11.6756 62.6928 11.4794C62.2859 11.2734 61.9839 11.0038 61.7851 10.6704C61.5869 10.3369 61.4881 9.96921 61.4881 9.56713C61.4881 8.89052 61.7555 8.34132 62.2913 7.91966C62.8265 7.49802 63.6294 7.28712 64.7005 7.28712H66.5746V7.11065C66.5746 6.61049 66.4306 6.24277 66.1432 6.00744C65.8555 5.77202 65.4985 5.65436 65.0724 5.65436C64.6855 5.65436 64.3485 5.7475 64.0609 5.93388C63.7735 6.11035 63.5947 6.37512 63.5256 6.72819H61.6664C61.716 6.19865 61.8942 5.73775 62.2016 5.34547C62.5191 4.95319 62.9258 4.65412 63.4216 4.44816C63.9173 4.23243 64.4726 4.12457 65.0871 4.12457C66.1381 4.12457 66.9663 4.38443 67.5707 4.90415C68.1756 5.42394 68.4782 6.15939 68.4782 7.11065V11.5971H66.8572L66.6784 10.4203C66.4602 10.8126 66.1531 11.1362 65.7565 11.3912C65.3699 11.6461 64.8691 11.7736 64.2543 11.7736ZM64.6855 10.3026C65.2312 10.3026 65.652 10.1261 65.9497 9.77309C66.2569 9.42006 66.4506 8.98368 66.5301 8.46389H64.9088C64.403 8.46389 64.0414 8.55705 63.8231 8.74341C63.6049 8.9199 63.4957 9.14055 63.4957 9.40532C63.4957 9.6897 63.6049 9.91035 63.8231 10.0673C64.0414 10.2242 64.3288 10.3026 64.6855 10.3026ZM70.524 14.8332L72.2341 11.1116H71.788L68.9177 4.3011H70.9848L73.0525 9.43476L75.2087 4.3011H77.2318L72.5466 14.8332H70.524ZM78.0298 11.5971V4.3011H79.7108L79.8741 5.28665C80.1124 4.93358 80.4248 4.65412 80.8115 4.44816C81.208 4.23243 81.6637 4.12457 82.1795 4.12457C83.3197 4.12457 84.1279 4.56095 84.6036 5.43372C84.8715 5.03166 85.2285 4.71293 85.6747 4.47759C86.1309 4.24225 86.6267 4.12457 87.1619 4.12457C88.1238 4.12457 88.8624 4.40895 89.3782 4.97771C89.894 5.54651 90.1515 6.38004 90.1515 7.47836V11.5971H88.2477V7.65488C88.2477 7.02726 88.1239 6.54676 87.876 6.21334C87.6377 5.87993 87.2658 5.71323 86.7604 5.71323C86.2446 5.71323 85.8281 5.89953 85.5111 6.27221C85.204 6.64481 85.0503 7.16455 85.0503 7.83141V11.5971H83.1465V7.65488C83.1465 7.02726 83.0224 6.54676 82.7745 6.21334C82.5266 5.87993 82.1446 5.71323 81.6293 5.71323C81.1234 5.71323 80.712 5.89953 80.3945 6.27221C80.0873 6.64481 79.9336 7.16455 79.9336 7.83141V11.5971H78.0298ZM95.0969 11.7736C94.3533 11.7736 93.6942 11.6167 93.1189 11.3029C92.5439 10.9891 92.0927 10.5478 91.7653 9.97899C91.438 9.41024 91.2747 8.75318 91.2747 8.00791C91.2747 7.25282 91.4334 6.5811 91.7504 5.99269C92.0778 5.40433 92.5239 4.94832 93.0893 4.62468C93.6646 4.29127 94.3386 4.12457 95.1119 4.12457C95.8355 4.12457 96.4754 4.28144 97.0306 4.59525C97.5856 4.90906 98.0168 5.34055 98.3242 5.8897C98.6417 6.42907 98.8005 7.03218 98.8005 7.69901C98.8005 7.80691 98.7954 7.91966 98.7858 8.03734C98.7858 8.155 98.7807 8.27759 98.7709 8.4051H93.1635C93.203 8.97386 93.4018 9.42006 93.7588 9.74365C94.1254 10.0673 94.5665 10.2291 95.0823 10.2291C95.4689 10.2291 95.7909 10.1457 96.0492 9.97899C96.3166 9.80252 96.5149 9.57696 96.6437 9.30236H98.5772C98.4384 9.76326 98.2055 10.185 97.8781 10.5674C97.5611 10.94 97.1641 11.2342 96.6883 11.45C96.2222 11.6657 95.6922 11.7736 95.0969 11.7736ZM95.1119 5.65436C94.6458 5.65436 94.2346 5.78676 93.8775 6.05153C93.5205 6.3065 93.2926 6.69876 93.1934 7.22833H96.8671C96.8374 6.7478 96.6587 6.36535 96.3313 6.08092C96.0041 5.79654 95.598 5.65436 95.1119 5.65436ZM99.9556 11.5971V4.3011H101.636L101.785 5.53668C102.013 5.10521 102.34 4.76197 102.766 4.50703C103.203 4.25208 103.713 4.12457 104.298 4.12457C105.21 4.12457 105.919 4.40895 106.425 4.97771C106.931 5.54651 107.184 6.38004 107.184 7.47836V11.5971H105.28V7.65488C105.28 7.02726 105.151 6.54676 104.893 6.21334C104.635 5.87993 104.234 5.71323 103.688 5.71323C103.153 5.71323 102.712 5.89953 102.365 6.27221C102.028 6.64481 101.859 7.16455 101.859 7.83141V11.5971H99.9556ZM111.845 11.5971C111.071 11.5971 110.451 11.4108 109.986 11.0381C109.52 10.6655 109.287 10.0035 109.287 9.0523V5.87501H108.022V4.3011H109.287L109.51 2.34469H111.19V4.3011H113.183V5.87501H111.19V9.06699C111.19 9.42006 111.265 9.66518 111.413 9.80252C111.572 9.92995 111.84 9.99373 112.216 9.99373H113.139V11.5971H111.845ZM117.421 11.7736C116.766 11.7736 116.191 11.6706 115.695 11.4647C115.199 11.2489 114.803 10.9548 114.505 10.5821C114.208 10.2095 114.03 9.778 113.97 9.28767H115.889C115.948 9.57204 116.107 9.81721 116.365 10.0231C116.632 10.2192 116.975 10.3173 117.391 10.3173C117.807 10.3173 118.11 10.234 118.298 10.0673C118.496 9.9006 118.596 9.70936 118.596 9.49362C118.596 9.17981 118.457 8.96894 118.179 8.86109C117.902 8.74341 117.515 8.63061 117.019 8.52276C116.702 8.45411 116.38 8.37075 116.052 8.27268C115.725 8.1746 115.423 8.05203 115.145 7.90496C114.877 7.74805 114.659 7.55189 114.49 7.31655C114.322 7.07139 114.238 6.77232 114.238 6.41925C114.238 5.77202 114.496 5.22779 115.011 4.78649C115.537 4.34522 116.27 4.12457 117.212 4.12457C118.085 4.12457 118.779 4.32556 119.295 4.72767C119.82 5.12973 120.133 5.6838 120.231 6.38986H118.432C118.323 5.85049 117.911 5.58081 117.197 5.58081C116.84 5.58081 116.563 5.64945 116.365 5.78676C116.176 5.92405 116.082 6.09566 116.082 6.30159C116.082 6.51732 116.226 6.68893 116.514 6.81644C116.801 6.94393 117.182 7.06161 117.659 7.16946C118.174 7.28712 118.645 7.41955 119.072 7.56664C119.508 7.70392 119.855 7.91474 120.113 8.19912C120.37 8.47372 120.499 8.87087 120.499 9.39063C120.509 9.84173 120.39 10.2487 120.142 10.6115C119.894 10.9744 119.537 11.2588 119.072 11.4647C118.605 11.6706 118.055 11.7736 117.421 11.7736Z" fill="url(#paint0_linear_1707_2596)"/>
<path d="M6.52502 8.17154C5.34476 7.12146 3.53705 7.22737 2.48739 8.40809C1.43772 9.58881 1.54358 11.3972 2.72384 12.4473C3.90409 13.4974 5.71182 13.3915 6.76148 12.2108C7.81114 11.0301 7.70528 9.22163 6.52502 8.17154Z" fill="url(#paint1_linear_1707_2596)"/>
<path d="M5.87284 6.84589C6.48247 7.90221 7.83265 8.26413 8.88856 7.65426C9.94448 7.0444 10.3062 5.69366 9.69662 4.63733C9.087 3.58101 7.73682 3.21909 6.68091 3.82896C5.62499 4.43882 5.26319 5.78956 5.87284 6.84589Z" fill="url(#paint2_linear_1707_2596)"/>
<path d="M3.46956 4.73747C4.63339 4.73747 5.57686 3.79363 5.57686 2.62933C5.57686 1.46503 4.63339 0.521179 3.46956 0.521179C2.30571 0.521179 1.36224 1.46503 1.36224 2.62933C1.36224 3.79363 2.30571 4.73747 3.46956 4.73747Z" fill="url(#paint3_linear_1707_2596)"/>
<path d="M1.29894 7.10953C1.74961 7.56037 2.48029 7.56037 2.93095 7.10953C3.38163 6.65868 3.38163 5.92772 2.93095 5.47687C2.48029 5.02603 1.74961 5.02603 1.29894 5.47687C0.84827 5.92772 0.84827 6.65868 1.29894 7.10953Z" fill="url(#paint4_linear_1707_2596)"/>
<defs>
<linearGradient id="paint0_linear_1707_2596" x1="2.18044" y1="3.14384" x2="120.214" y2="11.3014" gradientUnits="userSpaceOnUse">
<stop offset="0.015625" stop-color="#2143AE"/>
<stop offset="0.489583" stop-color="#4C58CC"/>
<stop offset="1" stop-color="#1082EB"/>
</linearGradient>
<linearGradient id="paint1_linear_1707_2596" x1="81.6257" y1="9.39809" x2="81.3398" y2="-1.02937" gradientUnits="userSpaceOnUse">
<stop stop-color="#2143AE"/>
<stop offset="1" stop-color="#1082EB"/>
</linearGradient>
<linearGradient id="paint2_linear_1707_2596" x1="112.484" y1="4.09975" x2="106.794" y2="31.5388" gradientUnits="userSpaceOnUse">
<stop stop-color="#1D43AE"/>
<stop offset="1" stop-color="#1082EB"/>
</linearGradient>
<linearGradient id="paint3_linear_1707_2596" x1="40.8074" y1="6.75975" x2="42.3997" y2="19.7957" gradientUnits="userSpaceOnUse">
<stop stop-color="#1D43AE"/>
<stop offset="1" stop-color="#1082EB"/>
</linearGradient>
<linearGradient id="paint4_linear_1707_2596" x1="2.93098" y1="5.47697" x2="1.29832" y2="7.10899" gradientUnits="userSpaceOnUse">
<stop stop-color="#1082EB"/>
<stop offset="1" stop-color="#1D43AE"/>
</linearGradient>
</defs>
</svg>
