<svg width="25" height="21" viewBox="0 0 25 21" fill="none" xmlns="http://www.w3.org/2000/svg">
<path d="M24.8899 0.845543C24.8707 0.755329 24.8277 0.671898 24.7654 0.603921C24.703 0.535944 24.6236 0.485901 24.5354 0.458993C24.2142 0.394943 23.8817 0.418695 23.5728 0.527747C23.5728 0.527747 2.15373 8.22512 0.929908 9.07767C0.667115 9.26254 0.578499 9.36796 0.534191 9.49325C0.323346 10.1044 0.981855 10.3687 0.981855 10.3687L6.50203 12.167C6.59511 12.1843 6.69098 12.1791 6.78162 12.1517C8.03753 11.3572 19.4171 4.1717 20.074 3.93183C20.1779 3.90127 20.2543 3.93183 20.2268 4.00516C19.964 4.92188 10.1338 13.6613 10.0818 13.7132C10.0555 13.7349 10.0349 13.7626 10.0216 13.794C10.0083 13.8254 10.0027 13.8595 10.0054 13.8935L9.49053 19.2838C9.49053 19.2838 9.27357 20.9644 10.9512 19.2838C11.8812 18.3584 12.8497 17.4725 13.8541 16.6284C15.7517 17.9393 17.796 19.3877 18.676 20.1425C18.8236 20.2863 18.9988 20.3988 19.191 20.4731C19.3832 20.5474 19.5885 20.582 19.7944 20.5748C20.0479 20.5433 20.2859 20.4356 20.4769 20.2659C20.6678 20.0962 20.8028 19.8725 20.8639 19.6245C20.8639 19.6245 24.7768 3.92571 24.9082 1.81268C24.9189 1.60642 24.9388 1.48113 24.9388 1.32835C24.9442 1.16595 24.9278 1.00355 24.8899 0.845543Z" fill="white"/>
</svg>
